<?xml version="1.0" encoding="utf-8"?><svg xmlns="http://www.w3.org/2000/svg" xmlns:xlink="http://www.w3.org/1999/xlink"><symbol viewBox="0 0 16 16" id="active" xmlns="http://www.w3.org/2000/svg"><path d="M14 9.174V7h-1.2V2.2H2.2v11.6H6V15h3.91a3.59 3.59 0 0 1-1.11-2.6c0-.469.09-.916.253-1.327L4.966 6.795a.6.6 0 1 1 .868-.83l.575.603L7.954 4.98a.6.6 0 1 1 .86.838L7.237 7.436l.693.725 1.525-1.58a.6.6 0 1 1 .863.834L8.76 9.03l.942.987A3.591 3.591 0 0 1 12.4 8.8c.575 0 1.118.135 1.6.374zM9.91 15H2a1 1 0 0 1-1-1V2a1 1 0 0 1 1-1h11a1 1 0 0 1 1 1v7.174A3.6 3.6 0 1 1 9.91 15zm2.49-.2a2.4 2.4 0 1 0 0-4.8 2.4 2.4 0 0 0 0 4.8z"/></symbol><symbol viewBox="0 0 16 16" id="alarm-clock" xmlns="http://www.w3.org/2000/svg"><path d="M7.2 3.037A6.5 6.5 0 1 1 6 3.02V1.2H4V0h5.2v1.2h-2v1.837zm-1.45 5.93c.054-.07.1-.112.132-.133l3.08-2.738.137.004.457.458.007.134-2.635 3.207-.115.114c-.267.268-.788.268-1.055 0-.268-.267-.268-.788-.008-1.047zM6.5 14.8a5.3 5.3 0 1 0 0-10.6 5.3 5.3 0 0 0 0 10.6zm7.432-10.879L13.03 2.85l-1.351.498-.128-.056-.42-1.043.059-.132 1.755-.622c.234-.107.41-.057.77.142l.028.022 1.54 1.764c.235.252.259.522.104.808l-.954 1.678-.138.036-1.008-.607-.037-.133.682-1.284z"/></symbol><symbol viewBox="0 0 16 16" id="align-center" xmlns="http://www.w3.org/2000/svg"><path d="M3 2h10v1.2H3V2zM0 7.4h16v1.2H0V7.4zm1 5.4h14V14H1v-1.2z"/></symbol><symbol viewBox="0 0 16 16" id="align-justify" xmlns="http://www.w3.org/2000/svg"><path d="M0 2h16v1.2H0V2zm0 5.4h16v1.2H0V7.4zm0 5.4h16V14H0v-1.2z"/></symbol><symbol viewBox="0 0 16 16" id="align-left" xmlns="http://www.w3.org/2000/svg"><path d="M0 2h8v1.2H0V2zm0 5.4h16v1.2H0V7.4zm0 5.4h13V14H0v-1.2z"/></symbol><symbol viewBox="0 0 16 16" id="align-right" xmlns="http://www.w3.org/2000/svg"><path d="M16 3.2H8V2h8v1.2zm0 5.4H0V7.4h16v1.2zm0 5.4H3v-1.2h13V14z"/></symbol><symbol viewBox="0 0 16 16" id="android-fill" xmlns="http://www.w3.org/2000/svg"><path d="M10.811 2.402a4.483 4.483 0 0 1 1.163 2.565h-9c.023.101.04.098.053-.01a4.484 4.484 0 0 1 1.167-2.56L2.991.545 3.831 0l1.127 1.736A4.48 4.48 0 0 1 7.5.95a4.48 4.48 0 0 1 2.548.79L11.178 0l.84.545-1.207 1.857zM1 6.95a1 1 0 0 1 1 1v4a1 1 0 0 1-2 0v-4a1 1 0 0 1 1-1zm13 0a1 1 0 0 1 1 1v4a1 1 0 0 1-2 0v-4a1 1 0 0 1 1-1zm-8 6v2a1 1 0 0 1-2 0v-2.268a2 2 0 0 1-1-1.732v-5h9v5a2 2 0 0 1-1 1.732v2.268a1 1 0 0 1-2 0v-2H6z"/></symbol><symbol viewBox="0 0 16 16" id="angle-double-down" xmlns="http://www.w3.org/2000/svg"><path d="M7.92 12.94l-.006.005-4.75-4.762.831-.817L7.92 11.29l3.99-3.99.825.836-4.81 4.809-.005-.005zm0-4l-.006.005-4.75-4.762.831-.817L7.92 7.29l3.99-3.99.825.836-4.81 4.809-.005-.005z"/></symbol><symbol viewBox="0 0 16 16" id="angle-double-up" xmlns="http://www.w3.org/2000/svg"><path d="M7.978 3.005L7.984 3l4.75 4.762-.832.817-3.924-3.924-3.99 3.99-.825-.836L7.973 3l.005.005zm0 4L7.984 7l4.75 4.762-.832.817-3.924-3.924-3.99 3.99-.825-.836L7.973 7l.005.005z"/></symbol><symbol viewBox="0 0 16 16" id="angle-down" xmlns="http://www.w3.org/2000/svg"><path d="M7.978 11.997l-.005.006L2.3 6.33l.83-.831 4.848 4.848L12.826 5.5l.83.83-5.673 5.673-.005-.006z"/></symbol><symbol viewBox="0 0 16 16" id="angle-left" xmlns="http://www.w3.org/2000/svg"><path d="M4.732 8.751l-.005-.005 5.672-5.673.83.83L6.382 8.75 11.23 13.6l-.831.83-5.672-5.672.005-.006z"/></symbol><symbol viewBox="0 0 16 16" id="angle-right" xmlns="http://www.w3.org/2000/svg"><path d="M11.224 8.252l.006.005-5.672 5.673-.831-.83 4.848-4.848-4.848-4.848.83-.83 5.673 5.672-.006.005z"/></symbol><symbol viewBox="0 0 16 16" id="angle-up" xmlns="http://www.w3.org/2000/svg"><path d="M7.978 5.005L7.984 5l5.673 5.672-.83.831-4.849-4.848-4.847 4.848-.831-.831L7.973 5l.005.005z"/></symbol><symbol viewBox="0 0 16 16" id="application" xmlns="http://www.w3.org/2000/svg"><path d="M8.218 14.072l6.112-2.425-.004-5.938-6.112 2.773.004 5.59zm-1.2-.144l-.004-5.447-5.304-2.58.004 5.746 5.304 2.281zm7.307-9.535V4.39L8.019 1.632l-6.31 2.76v.179l5.924 2.802 6.692-2.98zM7.565.52a1.2 1.2 0 0 1 .913.002l6.306 2.76a1.2 1.2 0 0 1 .74 1.108l.006 7.256c0 .484-.29.92-.735 1.107l-6.563 2.603a1.2 1.2 0 0 1-.925.002l-6.053-2.603a1.2 1.2 0 0 1-.74-1.109L.51 4.391a1.2 1.2 0 0 1 .745-1.11L7.564.52z"/></symbol><symbol viewBox="0 0 16 16" id="application-add" xmlns="http://www.w3.org/2000/svg"><path d="M13.899 9V6.226L8.789 9H8.49v6.91c-.48.151-1.003.112-1.461-.117l-5.992-3A2.002 2.002 0 0 1-.062 11V5c0-.76.426-1.455 1.1-1.793l5.992-3a1.956 1.956 0 0 1 1.754 0l5.992 3A2.002 2.002 0 0 1 15.876 5v4h-1.977zm-7.366 4.312V9.11L1.915 6.222V11l4.618 2.312zM12.9 4.5L7.907 2 2.918 4.498l4.639 2.9L12.899 4.5zm-.448 8.003v-1.5h1.993v1.5h1.494v2h-1.494v1.5H12.45v-1.5h-1.494v-2h1.494z"/></symbol><symbol viewBox="0 0 16 16" id="application-fill" xmlns="http://www.w3.org/2000/svg"><path d="M8.457 15.432l-.005-7.195 7.154-3.82.005 7.104c0 .483-.29.92-.735 1.106l-6.406 2.8a1.203 1.203 0 0 1-.013.005zm-1.2-.131L1.23 12.627a1.2 1.2 0 0 1-.74-1.108L.485 4.656 7.252 8.26l.005 7.042zM15.31 3.213l-7.44 3.965L.653 3.385a1.2 1.2 0 0 1 .577-.497L7.545.128A1.2 1.2 0 0 1 8.46.13l6.406 2.761c.175.073.327.184.446.322z"/></symbol><symbol viewBox="0 0 16 16" id="archive" xmlns="http://www.w3.org/2000/svg"><path d="M14 7.758a4.5 4.5 0 1 1-5 0V1h5v6.758zm-1.2-.567V2.2h-2.6v4.99a4.5 4.5 0 0 1 2.6 0zM2.8 4h1.463v1.2H2.8V4zm0 3.612h1.463v1.2H2.8v-1.2zM10.8 4h1.462v1.2H10.8V4zm-.3 5.8h2.025V11H10.5V9.8zm0 2.25h2.025v1.2H10.5v-1.2zM1 1h5v14H1V1zm1.2 12.8h2.6V2.2H2.2v11.6zm9.3 1a3.3 3.3 0 1 0 0-6.6 3.3 3.3 0 0 0 0 6.6z"/></symbol><symbol viewBox="0 0 16 16" id="arrow-down" xmlns="http://www.w3.org/2000/svg"><path d="M8.59 11.85l2.962-3.165a.6.6 0 0 1 .876.82l-3.97 4.243a.598.598 0 0 1-.93.057l-3.97-4.323a.6.6 0 1 1 .885-.812l2.947 3.211V2.733c0-.405.269-.733.6-.733.332 0 .6.328.6.733v9.117z"/></symbol><symbol viewBox="0 0 16 16" id="arrow-down-bold" xmlns="http://www.w3.org/2000/svg"><path d="M8.99 10.837l2.27-2.426a1 1 0 0 1 1.46 1.367L8.784 13.98a.998.998 0 0 1-1.55.095l-3.97-4.322A1 1 0 1 1 4.737 8.4l2.253 2.454V2.733c0-.61.428-1.133 1-1.133.572 0 1 .523 1 1.133v8.104z"/></symbol><symbol viewBox="0 0 16 16" id="arrow-right-circle-fill" xmlns="http://www.w3.org/2000/svg"><path d="M0 8c0-4.4 3.6-8 8-8s8 3.6 8 8-3.6 8-8 8-8-3.6-8-8zm9.531-.8H4v1.6h5.12l-1.257 1.257 1.131 1.131 3.394-3.394-1.131-1.131L8.994 4.4 7.863 5.531 9.53 7.2z"/></symbol><symbol viewBox="0 0 16 16" id="arrow-right-up-bold" xmlns="http://www.w3.org/2000/svg"><path d="M10.585 4H2V2h12.125v12.125h-2V5.288l-8.918 8.919-1.414-1.414L10.585 4z"/></symbol><symbol viewBox="0 0 16 16" id="arrow-right-up-circle" xmlns="http://www.w3.org/2000/svg"><path d="M9.5 7.207l-3.646 3.647-.708-.708L8.793 6.5H5.5v-1h5v5h-1V7.207zM8 14.9c3.8 0 6.9-3.1 6.9-6.9 0-3.8-3.1-6.9-6.9-6.9-3.8 0-6.9 3.1-6.9 6.9 0 3.8 3.1 6.9 6.9 6.9zM8 0c4.4 0 8 3.6 8 8s-3.6 8-8 8-8-3.6-8-8 3.6-8 8-8z"/></symbol><symbol viewBox="0 0 16 16" id="arrow-right-up-square-bold" xmlns="http://www.w3.org/2000/svg"><path d="M5 1v2H3v10h10v-2h2v3a1 1 0 0 1-1 1H2a1 1 0 0 1-1-1V2a1 1 0 0 1 1-1h3zm6.481 2H9V1h6v5.616h-2V4.308l-5.808 5.914L5.75 8.835 11.481 3z"/></symbol><symbol viewBox="0 0 16 16" id="arrow-up" xmlns="http://www.w3.org/2000/svg"><path d="M7.4 4.15L4.438 7.315a.6.6 0 0 1-.876-.82l3.97-4.243a.598.598 0 0 1 .93-.057l3.97 4.323a.6.6 0 1 1-.885.812L8.6 4.118v9.149c0 .404-.269.733-.6.733-.332 0-.6-.329-.6-.733V4.15z"/></symbol><symbol viewBox="0 0 16 16" id="arrow-up-bold" xmlns="http://www.w3.org/2000/svg"><path d="M7 5.163L4.73 7.588a1 1 0 0 1-1.46-1.366l3.936-4.203a.998.998 0 0 1 1.55-.095l3.97 4.322A1 1 0 1 1 11.253 7.6L9 5.146v8.12c0 .61-.428 1.134-1 1.134-.572 0-1-.523-1-1.133V5.163z"/></symbol><symbol viewBox="0 0 16 16" id="attachment" xmlns="http://www.w3.org/2000/svg"><path d="M2.92 4.138L5.844 1.41a5 5 0 1 1 6.82 7.314l-2.56 2.387a3.5 3.5 0 0 1-4.774-5.12l2.56-2.387a.6.6 0 1 1 .818.878L6.15 6.869a2.3 2.3 0 0 0 3.138 3.364l2.56-2.387a3.8 3.8 0 0 0-5.184-5.558L3.738 5.016l-.366.34a5.3 5.3 0 0 0 7.23 7.753l4.022-3.751a.6.6 0 1 1 .818.878l-4.022 3.75A6.5 6.5 0 0 1 2.554 4.48l.365-.341z"/></symbol><symbol viewBox="0 0 16 16" id="attachment-bold" xmlns="http://www.w3.org/2000/svg"><path d="M13.915 9.16l1.37 1.37-3.425 3.425a6.781 6.781 0 1 1-9.59-9.59l2.74-2.74a4.844 4.844 0 1 1 6.85 6.85l-2.74 2.74a2.906 2.906 0 1 1-4.11-4.11l2.74-2.74a.969.969 0 1 1 1.37 1.37l-2.74 2.74a.969.969 0 0 0 1.37 1.37l2.74-2.74a2.906 2.906 0 1 0-4.11-4.11l-2.74 2.74a4.844 4.844 0 0 0 6.85 6.85l3.425-3.425a.969.969 0 1 1 1.37 1.37.969.969 0 0 1-1.37-1.37z"/></symbol><symbol viewBox="0 0 16 16" id="audio" xmlns="http://www.w3.org/2000/svg"><path d="M15.078 10.214a2.904 2.904 0 0 1 .004.291c-.057 1.55-1.348 2.793-2.929 2.793-1.616 0-2.93-1.301-2.93-2.9 0-1.6 1.314-2.9 2.93-2.9.623 0 1.201.194 1.677.523l-.078-3.595-7.028 1.356.131 6.017a2.9 2.9 0 0 1 .004.294c-.058 1.549-1.349 2.79-2.928 2.79-1.616 0-2.93-1.3-2.93-2.9 0-1.598 1.314-2.9 2.93-2.9.623 0 1.201.194 1.676.523L5.467 3.2a.6.6 0 0 1 .535-.61l8.142-1.573A.602.602 0 0 1 14.278 1a.6.6 0 0 1 .612.587l.188 8.627zm-1.193.306a.612.612 0 0 1-.002-.042l-.006-.29a1.733 1.733 0 0 0-1.724-1.51 1.73 1.73 0 0 0-1.737 1.72c0 .949.78 1.719 1.737 1.719a1.73 1.73 0 0 0 1.732-1.597zm-.16-7.311l-.019-.886L6.68 3.679l.019.886 7.027-1.356zm-8.07 8.564a1.733 1.733 0 0 0-1.724-1.508 1.73 1.73 0 0 0-1.738 1.719c0 .948.78 1.719 1.738 1.719.916 0 1.669-.706 1.732-1.597a.606.606 0 0 1-.002-.042l-.007-.291z"/></symbol><symbol viewBox="0 0 16 16" id="authorship" xmlns="http://www.w3.org/2000/svg"><g fill-rule="nonzero"><path d="M15.825 16h-1.25a6.903 6.903 0 0 0-13.15 0H.175a8.103 8.103 0 0 1 15.65 0z"/><path d="M8.1 11.2A5.6 5.6 0 1 1 8.1 0a5.6 5.6 0 0 1 0 11.2zm0-1.2a4.4 4.4 0 1 0 0-8.8 4.4 4.4 0 0 0 0 8.8z"/></g></symbol><symbol viewBox="0 0 16 16" id="background" xmlns="http://www.w3.org/2000/svg"><path d="M9.93 1.925l-.397-.921-.379-.001.985-.997L11.832 0 9.93 1.925zM3.084 8.854L0 11.975v-1.707L4.395 5.82 3.084 8.854zm6.643 1.786l.518 1.182-4.134 4.185H4.424l5.303-5.367zm2.753-2.788L16 4.29v1.708l-3.008 3.044-.512-1.19zm-1.202 6.325l.115.264.315.719h.286l-.837.847H9.47l1.808-1.83zm2.734-2.767l1.987-2.012v1.708L14.524 12.6l-.512-1.19zm1.116 3.747h.51l-.157-.357.519-.525v1.732h-1.712l.84-.85zm-3.667-9.674l-.512-1.189L15.185.007H16V.89l-4.538 4.593zm-5.087 5.149l-.196.199.087-.2h.11zm-4.469 4.523l-.84.852H-.002v-.63l.455-.461-.104.238 1.555.001zM0 0l1.68.006L0 1.706V0zm5.099 0l1.68.006-6.778 6.86L0 5.161 5.099.001zm2.896 3.707L6.007 8.24h3.974L7.995 3.707zM5.481 9.438l-1.986 4.527-1.309-.002L7.34 2.213l-.002-.004h1.314l-.002.004 5.152 11.752-1.31.001-1.985-4.528H5.481z"/></symbol><symbol viewBox="0 0 16 16" id="bar-fill" xmlns="http://www.w3.org/2000/svg"><path d="M10.96 13.88h3.2V3h-3.2v10.88zm.704-.64h1.792V8.568h-1.792v4.672zm-5.184.64h3.199V4.664H6.48v9.216zm.704-.576h1.792v-2.752H7.184v2.752zM2 13.88h3.2V6.585H2v7.295zm.704-.577h1.792v-1.471H2.704v1.471z"/></symbol><symbol viewBox="0 0 16 16" id="blockquote" xmlns="http://www.w3.org/2000/svg"><path d="M9.499 13.753v-5.5H15v5.5H9.499zm1-4.5v3.5H14v-3.5h-3.501zm-9.5 4.5v-5.5H6.5v5.5H.999zm1-4.5v3.5H5.5v-3.5H1.999zM6.5 2.222v1.2c-.074-.004-.145-.022-.22-.022a4.12 4.12 0 0 0-4.115 4.115c0 .253.031.498.075.738H1C.965 8.01.966 7.768.966 7.515A5.32 5.32 0 0 1 6.28 2.2c.075 0 .145.019.22.022zm8.5 0v1.2c-.074-.004-.145-.022-.22-.022a4.12 4.12 0 0 0-4.115 4.115c0 .253.031.498.075.738H9.5c-.035-.243-.034-.485-.034-.738A5.32 5.32 0 0 1 14.78 2.2c.075 0 .145.019.22.022z"/></symbol><symbol viewBox="0 0 16 16" id="bold" xmlns="http://www.w3.org/2000/svg"><g fill-rule="evenodd"><path d="M10.788 6.717c1.796.246 3.143 1.936 3.143 4.05 0 2.285-1.7 4.214-3.713 4.214H3.116V7.823H2.8v-5.47h.325V1h5.479c1.666 0 3.02 1.53 3.02 3.412a3.63 3.63 0 0 1-.836 2.305zm-.57 7.065c1.34 0 2.514-1.41 2.514-3.015 0-1.616-1.054-2.881-2.399-2.881h-6.78v5.896h6.665zM8.604 6.623c.936 0 1.82-1.075 1.82-2.21 0-1.2-.833-2.213-1.82-2.213H3.553v4.423h5.05z"/><path d="M3.1 14.981c-.33 0-.6-.322-.6-.717V1.717c0-.395.27-.717.6-.717.33 0 .6.322.6.717v12.547c0 .395-.27.717-.6.717"/></g></symbol><symbol viewBox="0 0 16 16" id="branch" xmlns="http://www.w3.org/2000/svg"><path d="M4.2 12.516v2.86a.6.6 0 0 1-1.2 0V5.829a3.001 3.001 0 1 1 1.2.164v5.3c3.739-.764 6.136-2.538 7.262-5.341a3 3 0 1 1 1.298-.049c-1.215 3.55-4.097 5.761-8.56 6.613zM4 4.8a1.8 1.8 0 1 0 0-3.6 1.8 1.8 0 0 0 0 3.6zm8 0a1.8 1.8 0 1 0 0-3.6 1.8 1.8 0 0 0 0 3.6z"/></symbol><symbol viewBox="0 0 16 16" id="browser" xmlns="http://www.w3.org/2000/svg"><path d="M15.977.935a1.109 1.109 0 0 0-.43-.714c-.295-.214-.645-.234-.886-.216-.202.016-.41.061-.66.144a6.58 6.58 0 0 0-.786.329c-.286.14-.586.307-.915.51-.329.204-.67.43-1.043.693-.304.216-.61.44-.933.69a6.38 6.38 0 0 0-1.203-.262 6.82 6.82 0 0 0-1.18-.038 6.47 6.47 0 0 0-2.694.755 6.557 6.557 0 0 0-2.078 1.75 6.514 6.514 0 0 0-1.354 4.522 6.55 6.55 0 0 0 .31 1.552c-.269.358-.508.696-.733 1.029-.26.386-.478.737-.667 1.073-.194.345-.338.64-.456.928-.119.29-.256.672-.268 1.075-.011.363.099.683.309.904.209.22.518.34.868.344h.015c.187 0 .39-.03.62-.094.23-.063.476-.154.753-.28.275-.126.563-.277.881-.464.317-.185.648-.397 1.01-.646.159-.107.32-.222.483-.34.316.191.649.357.992.49a6.54 6.54 0 0 0 2.357.448 6.467 6.467 0 0 0 1.994-.303 6.504 6.504 0 0 0 3.146-2.164 6.512 6.512 0 0 0 1.048-1.886l.033-.09.007-.022v-.007a.681.681 0 0 0-.67-.663.681.681 0 0 0-.671.663h-.006l-.023.054c-.155.354-.349.69-.577 1a5.345 5.345 0 0 1-1.724 1.512 5.267 5.267 0 0 1-2.332.64 5.222 5.222 0 0 1-3.384-1.064 5.245 5.245 0 0 1-1.58-1.954 37.466 37.466 0 0 1 1.53-1.82 47.47 47.47 0 0 1 1.814-1.924c.316-.318.638-.633.958-.939a43.817 43.817 0 0 1 2.67-2.353 5.19 5.19 0 0 1 1.798 1.352 5.217 5.217 0 0 1 1.143 2.276H8.86a.624.624 0 0 0-.62.716c.043.307.309.537.62.537h5.99v-.09a6.529 6.529 0 0 0-.906-3.331c.265-.356.5-.69.721-1.021.256-.385.471-.736.655-1.07.17-.311.302-.58.408-.84l.012-.021h.002l.006-.018.063-.175.001-.003.002-.004.018-.05.007-.02c.108-.315.209-.708.139-1.1zM3.895 13.395c-.29.202-.874.573-.899.589-.27.165-.514.3-.746.417a5.39 5.39 0 0 1-.532.234c-.13.048-.24.08-.342.102a1.16 1.16 0 0 1-.131.022c.003-.033.007-.063.012-.092a2.46 2.46 0 0 1 .116-.397c.102-.274.235-.552.435-.907.176-.314.384-.647.634-1.019.088-.13.178-.26.274-.396.323.536.719 1.023 1.179 1.448zM6.399 5.83l-.632.631.001.002a46.36 46.36 0 0 0-2.652 2.93 5.327 5.327 0 0 1 .158-2.314 5.256 5.256 0 0 1 4.199-3.687 5.332 5.332 0 0 1 1.61-.014C8.204 4.12 7.285 4.96 6.4 5.83zm8.34-4.49c-.02.116-.055.238-.114.396a6.378 6.378 0 0 1-.435.907c-.178.314-.385.649-.637 1.019-.118.178-.248.361-.383.547-.45-.498-.969-.92-1.548-1.259.327-.24.635-.455.935-.65.3-.197.572-.364.833-.51.224-.125.427-.228.62-.312.162-.072.298-.124.431-.164a1.727 1.727 0 0 1 .31-.067.493.493 0 0 1-.011.092z"/></symbol><symbol viewBox="0 0 16 16" id="bug" xmlns="http://www.w3.org/2000/svg"><path d="M10.988 13.171a5.506 5.506 0 0 1-2.93.838 5.505 5.505 0 0 1-3.089-.942l-1.463 2.898c-2.834-2.83-3.595-5.53-2.283-8.097.748-1.464 1.888-2.347 3.42-2.648a3.204 3.204 0 0 1-.042-.491c0-1.244.662-2.332 1.654-2.936C5.58 1.396 4.76 1.2 3.784 1.2a.6.6 0 1 1 0-1.2c1.572 0 2.861.443 3.845 1.315a3.509 3.509 0 0 1 .922.008C9.535.446 10.828 0 12.405 0a.6.6 0 0 1 0 1.2c-.994 0-1.826.203-2.508.615a3.433 3.433 0 0 1 1.62 2.914c0 .169-.02.345-.055.534 1.43.337 2.504 1.206 3.22 2.605 1.312 2.567.55 5.266-2.283 8.097l-1.411-2.794zm.675-1.326l1.013 2.008c1.534-1.975 1.802-3.747.937-5.439-.658-1.287-1.688-1.993-3.195-2.102l-.131.002c-.557.009-.945.024-1.146.043a5.33 5.33 0 0 0-.19.022l2.712 5.466zm-1.219.25L7.952 7.158l-2.301 4.558-.134.268a4.304 4.304 0 0 0 2.542.824c.863 0 1.686-.252 2.385-.715zM8.002 5.32c.82-.167 1.576-.238 2.267-.212.032-.15.048-.276.048-.38a2.25 2.25 0 0 0-2.258-2.24A2.25 2.25 0 0 0 5.8 4.729c0 .096.013.221.04.375a11.739 11.739 0 0 1 1.192.06c.433.043.756.096.97.157zm-3.424 5.86l2.388-4.806a8.702 8.702 0 0 0-.432-.049 8.35 8.35 0 0 0-.675-.02l-.36.006c-1.514.106-2.548.812-3.208 2.103-.864 1.692-.596 3.464.937 5.439l1.35-2.674z"/></symbol><symbol viewBox="0 0 16 16" id="bug-fill" xmlns="http://www.w3.org/2000/svg"><path d="M12.766 0a3.2 3.2 0 0 1 3.192 3.192v9.575a3.2 3.2 0 0 1-3.192 3.191H3.191A3.201 3.201 0 0 1 0 12.767V3.192A3.202 3.202 0 0 1 3.191 0h9.575zm-1.441 13.017c1.248-1.554 1.514-2.927.9-4.194-.607-1.25-1.73-1.719-3.562-1.365l2.662 5.559zM7.98 7.932L6.104 11.85a3.3 3.3 0 0 0 2.114.763c.647 0 1.25-.185 1.761-.507L7.98 7.932zm0-1.162c.761-.19 1.446-.269 2.053-.235.008-.07.011-.148.011-.231 0-.674-.255-1.28-.66-1.692a2.62 2.62 0 0 1 1.429-.415.547.547 0 0 0 0-1.094c-.98 0-1.825.35-2.517.958a1.7 1.7 0 0 0-.486.014 3.728 3.728 0 0 0-2.533-.972.547.547 0 0 0 0 1.094c.555 0 1.057.161 1.496.459a2.426 2.426 0 0 0-.607 1.872c.546-.004 1.151.076 1.814.242zm-3.345 6.247l2.662-5.56c-1.832-.353-2.955.116-3.561 1.366-.615 1.267-.35 2.64.9 4.194z"/></symbol><symbol viewBox="0 0 16 16" id="bulb-bold" xmlns="http://www.w3.org/2000/svg"><path d="M4.527 14v-1.082a7.06 7.06 0 0 1-3.075-6.46C1.725 3.133 4.332.392 7.641.04 7.874 0 8.147 0 8.419 0c3.853 0 7.006 3.17 7.006 7.046a7.049 7.049 0 0 1-3.114 5.872V14H13a1 1 0 0 1 0 2H4a1 1 0 0 1 0-2h.527zm2 0h3.784v-2.15l.887-.593a5.048 5.048 0 0 0 2.227-4.211C13.425 4.273 11.165 2 8.417 2a4 4 0 0 0-.445.012l-.12.016c-2.333.248-4.21 2.204-4.407 4.606a5.06 5.06 0 0 0 2.203 4.628l.879.594V14zM7.982 3.837c2.08 0 3.78 1.7 3.78 3.78 0 .416-.34.756-.756.756a.758.758 0 0 1-.756-.756 2.275 2.275 0 0 0-2.268-2.268.758.758 0 0 1-.756-.756c0-.416.34-.756.756-.756z"/></symbol><symbol viewBox="0 0 16 16" id="calendar" xmlns="http://www.w3.org/2000/svg"><path d="M10.9 3.2H5.1v1.6H3.9V3.2H1.2v3.2h13.6V3.2h-2.7v1.6h-1.2V3.2zM12.1 2H15a1 1 0 0 1 1 1v12a1 1 0 0 1-1 1H1a1 1 0 0 1-1-1V3a1 1 0 0 1 1-1h2.9V.4h1.2V2h5.8V.4h1.2V2zm2.7 5.6H1.2v7.2h13.6V7.6z"/></symbol><symbol viewBox="0 0 16 16" id="calendar-check" xmlns="http://www.w3.org/2000/svg"><path d="M12.1 2H15a1 1 0 0 1 1 1v12a1 1 0 0 1-1 1H1a1 1 0 0 1-1-1V3a1 1 0 0 1 1-1h2.9V.4h1.2V2h5.8V.4h1.2V2zm0 1.2v1.6h-1.2V3.2H5.1v1.6H3.9V3.2H1.2v11.6h13.6V3.2h-2.7zm-5.177 7.286l4.741-4.903.863.834-5.55 5.74-3.38-3.076.807-.888 2.52 2.293z"/></symbol><symbol viewBox="0 0 16 16" id="caret-down" xmlns="http://www.w3.org/2000/svg"><path d="M3.756 7.002l8.48-.004-4.242 4.242z"/></symbol><symbol viewBox="0 0 16 16" id="caret-right" xmlns="http://www.w3.org/2000/svg"><path d="M7.006 12.24L7 3.76l4.243 4.242z"/></symbol><symbol viewBox="0 0 16 16" id="caret-right-down" xmlns="http://www.w3.org/2000/svg"><path d="M5.007 11L11 5v6z"/></symbol><symbol viewBox="0 0 16 16" id="check" xmlns="http://www.w3.org/2000/svg"><path d="M6.012 11.201L1.313 6.832l-.817.879 5.54 5.15 9.304-9.163-.842-.855z"/></symbol><symbol viewBox="0 0 16 16" id="check-bold" xmlns="http://www.w3.org/2000/svg"><path d="M6.075 10.474L1.8 6.424 0 8l6.075 6.077 9.675-9.902-1.575-1.8z"/></symbol><symbol viewBox="0 0 16 16" id="check-circle" xmlns="http://www.w3.org/2000/svg"><g fill-rule="nonzero"><path d="M8 16A8 8 0 1 0 8 0a8 8 0 0 0 0 16zm0-1.2A6.8 6.8 0 1 1 8 1.2a6.8 6.8 0 0 1 0 13.6z"/><path d="M5.666 7.207l-.859.838 2.658 2.723 4.34-4.43-.857-.84-3.482 3.554z"/></g></symbol><symbol viewBox="0 0 16 16" id="check-fill" xmlns="http://www.w3.org/2000/svg"><g fill-rule="evenodd"><path d="M0 8c0 4.4 3.6 8 8 8s8-3.6 8-8-3.6-8-8-8-8 3.6-8 8z"/><path d="M5.285 6.803L4.15 7.93l2.944 2.963 4.718-4.788-1.14-1.123L7.09 8.619z"/></g></symbol><symbol viewBox="0 0 16 16" id="clean" xmlns="http://www.w3.org/2000/svg"><path d="M10.2.7l5.7 5.7-7.701 7.7H3.9L.3 10.6 10.2.7zM4.359 12.9H7.7l2.629-2.63-4-3.997-4.312 4.313 2.34 2.314z"/></symbol><symbol viewBox="0 0 16 16" id="clock-circle" xmlns="http://www.w3.org/2000/svg"><path d="M8 16A8 8 0 1 1 8 0a8 8 0 0 1 0 16zm0-1.2A6.8 6.8 0 1 0 8 1.2a6.8 6.8 0 0 0 0 13.6zm.598-10.302v3.253l2.626 2.625a.6.6 0 1 1-.848.848l-2.802-2.8A.6.6 0 0 1 7.398 8V4.498a.6.6 0 1 1 1.2 0z"/></symbol><symbol viewBox="0 0 16 16" id="clock-circle-moment" xmlns="http://www.w3.org/2000/svg"><path d="M8 16A8 8 0 1 1 8 0a8 8 0 0 1 0 16zm0-1.2A6.8 6.8 0 1 0 8 1.2a6.8 6.8 0 0 0 0 13.6zm.017-10V8.42H11.7v1.2H6.817V4.8h1.2z"/></symbol><symbol viewBox="0 0 16 16" id="clock-circle-moment-fill" xmlns="http://www.w3.org/2000/svg"><path d="M0 8c0-4.4 3.6-8 8-8s8 3.6 8 8-3.6 8-8 8-8-3.6-8-8zm7.023.033v1.6h4.849v-1.6h-3.25V4h-1.6v4.033z"/></symbol><symbol viewBox="0 0 16 16" id="clock-circle-open" xmlns="http://www.w3.org/2000/svg"><path d="M7.025 1.143V-.022l3.001 2.042-3 2.002V2.37A6.296 6.296 0 0 0 2.2 8.488a6.296 6.296 0 0 0 6.3 6.291 6.296 6.296 0 0 0 6.28-6.79h1.204c.01.165.016.331.016.5 0 4.135-3.358 7.489-7.5 7.489-4.142 0-7.5-3.354-7.5-7.49 0-3.632 2.59-6.66 6.025-7.345zM8.6 5.994v2.394h2.8v1.198h-4V5.994h1.2z"/></symbol><symbol viewBox="0 0 16 16" id="clock-point-bold" xmlns="http://www.w3.org/2000/svg"><path d="M8 9h8v2H6V0h2v9z"/></symbol><symbol viewBox="0 0 16 16" id="close" xmlns="http://www.w3.org/2000/svg"><path d="M8.056 7.208l5.354-5.354.849.848-5.354 5.354 5.354 5.354-.849.849-5.354-5.354-5.354 5.354-.848-.849 5.354-5.354-5.354-5.354.848-.848 5.354 5.354z"/></symbol><symbol viewBox="0 0 16 16" id="close-bold" xmlns="http://www.w3.org/2000/svg"><path d="M8 6.586L14.071.515l1.414 1.414L9.415 8l6.07 6.071-1.414 1.414L8 9.415l-6.071 6.07-1.414-1.414L6.585 8 .516 1.929 1.929.515 8 6.585z"/></symbol><symbol viewBox="0 0 16 16" id="close-circle-fill" xmlns="http://www.w3.org/2000/svg"><g fill-rule="evenodd"><path d="M0 8c0 4.4 3.6 8 8 8s8-3.6 8-8-3.6-8-8-8-8 3.6-8 8z"/><path d="M9.091 7.96l1.697 1.697-1.131 1.131L7.96 9.091l-1.697 1.697L5.13 9.657 6.828 7.96 5.131 6.263 6.263 5.13 7.96 6.828l1.697-1.697 1.131 1.132L9.091 7.96z"/></g></symbol><symbol viewBox="0 0 16 16" id="cloud-upload" xmlns="http://www.w3.org/2000/svg"><path d="M8.614 10.36V15h-1.2v-4.767l-1.53 1.53-.83-.867L7.95 8l3.025 3.025-.853.844-1.508-1.508zM11 14.997V13.8h.078l.077-.003a3.8 3.8 0 0 0 2.41-6.602l-.49-.447.118-.653a3.3 3.3 0 0 0-6.103-2.25l-.375.647-.745-.051a4.348 4.348 0 0 0-.299-.01C3.212 4.43 1.2 6.518 1.2 9.115c0 2.356 1.656 4.293 3.8 4.632v1.212c-2.816-.344-5-2.83-5-5.844 0-3.25 2.54-5.884 5.671-5.884.128 0 .255.004.381.013a4.5 4.5 0 0 1 8.322 3.066 5 5 0 0 1-3.172 8.686H11z"/></symbol><symbol viewBox="0 0 16 16" id="code" xmlns="http://www.w3.org/2000/svg"><g fill-rule="evenodd"><path d="M.003 8.306l4.302 4.304.849-.848L.852 7.458z"/><path d="M0 8.308l.847.85 4.31-4.296-.847-.85zM10.8 4.861l4.309 4.296.848-.85-4.309-4.296z"/><path d="M10.804 11.762l.849.848 4.302-4.304-.85-.848zM8.526 4L6.1 12.582l1.241.006 2.435-8.565z"/></g></symbol><symbol viewBox="0 0 16 16" id="color" xmlns="http://www.w3.org/2000/svg"><path d="M10.074 7.575l-2.076-4.86-2.076 4.86h4.152zm.513 1.2H5.41l-1.295 3.03-1.308-.003L7.296 1.3H8.7l4.485 10.486-1.311.002-1.287-3.013zM2 14.525v-1.201h11.997v1.2H2z"/></symbol><symbol viewBox="0 0 16 16" id="comment" xmlns="http://www.w3.org/2000/svg"><path d="M4 7h2v2H4V7zm6 0h2v2h-2V7zM0 8.148C0 4.281 3.543 1 8 1s8 3.398 8 7.266c0 3.867-3.543 7.148-8 7.148-1.143 0-1.486-.117-2.629-.351h-.114c-.8 0-2.743.937-3.657.937-.229 0-.343-.117-.457-.234-.229-.47.571-3.047.228-3.633C.457 10.96 0 9.672 0 8.148zm1.198-.067c0 .817.16 1.566.515 2.328.38.818.929.96.929 2.077 0 .355-.086 1.057-.257 2.107 1.414-.52 2.34-.781 2.777-.781h.094c.234 0 .674.093 1.22.21.55.116 1.16.131 1.405.131 3.92 0 6.872-2.73 6.872-5.9 0-1.864-.974-3.56-2.531-4.702-1.195-.875-2.755-1.358-4.341-1.358-3.654 0-6.683 2.717-6.683 5.888z"/></symbol><symbol viewBox="0 0 16 16" id="commit" xmlns="http://www.w3.org/2000/svg"><path d="M8 13A5 5 0 1 1 8 3a5 5 0 0 1 0 10zm0-1.2a3.8 3.8 0 1 0 0-7.6 3.8 3.8 0 0 0 0 7.6zM.03 8.615v-1.2H3v1.2H.03zm13 0v-1.2H16v1.2h-2.97z"/></symbol><symbol viewBox="0 0 16 16" id="commit-list" xmlns="http://www.w3.org/2000/svg"><path d="M4.7 7.532l1.63 1.646-.853.844-1.63-1.646-.003.003L3 7.527l2.485-2.462.844.853-1.63 1.614zm6.6 0L9.671 5.918l.844-.853L13 7.527l-.844.852-.003-.003-1.63 1.646-.853-.844 1.63-1.646zM8.043 5h1.279l-1.438 5.225H6.55l1.02-3.52L8.043 5zM1 2h14v11H1V2zm1 1v9h12V3H2zm1 10.8h10V15H3v-1.2z"/></symbol><symbol viewBox="0 0 16 16" id="connect" xmlns="http://www.w3.org/2000/svg"><path d="M6 4.476h1.5a1.1 1.1 0 0 1 1.1 1.096l.013 4.87H10V9a1 1 0 0 1 1-1h4a1 1 0 0 1 1 1v4a1 1 0 0 1-1 1h-4a1 1 0 0 1-1-1v-1.358H8.514a1.1 1.1 0 0 1-1.1-1.096L7.4 5.676H6V7a1 1 0 0 1-1 1H1a1 1 0 0 1-1-1V3a1 1 0 0 1 1-1h4a1 1 0 0 1 1 1v1.476zM1.2 3.2v3.6h3.6V3.2H1.2zm10 9.6h3.6V9.2h-3.6v3.6z"/></symbol><symbol viewBox="0 0 16 16" id="connect-bold" xmlns="http://www.w3.org/2000/svg"><path d="M6 4h1a2 2 0 0 1 2 2v4h1V9a1 1 0 0 1 1-1h4a1 1 0 0 1 1 1v4a1 1 0 0 1-1 1h-4a1 1 0 0 1-1-1v-1H9a2 2 0 0 1-2-2V6H6v1a1 1 0 0 1-1 1H1a1 1 0 0 1-1-1V3a1 1 0 0 1 1-1h4a1 1 0 0 1 1 1v1zM2 4v2h2V4H2zm10 6v2h2v-2h-2z"/></symbol><symbol viewBox="0 0 16 16" id="copy" xmlns="http://www.w3.org/2000/svg"><path d="M7.6 8.2V7h4.174v1.2H7.6zm0 3V10h4.174v1.2H7.6zm-4.4-10v10.074H2L2.003 2c0-1.088.895-2 1.997-2h7.585v1.2H3.2zM5 2h9a1 1 0 0 1 1 1v12a1 1 0 0 1-1 1H5a1 1 0 0 1-1-1V3a1 1 0 0 1 1-1zm.2 1.2v11.6h8.6V3.2H5.2z"/></symbol><symbol viewBox="0 0 16 16" id="direction-ltr" xmlns="http://www.w3.org/2000/svg"><path d="M7.468 5.658h.003v1.084h-.003v2.816c0 .33-.27.6-.6.6-.33 0-.6-.27-.6-.6V6.742H5.19c-1.753 0-3.178-1.288-3.178-2.87s1.425-2.87 3.178-2.87h1.985A.6.6 0 0 1 7.235 1h5.553c.33 0 .6.27.6.6 0 .33-.27.6-.6.6h-1.881v7.34c0 .33-.271.602-.601.602-.33 0-.6-.271-.6-.601V2.2H7.468v3.458zm-1.2 0V2.087H5.19c-1.091 0-1.978.8-1.978 1.785 0 .985.887 1.786 1.978 1.786h1.078zm5.006 6.53l-.577-.557a.599.599 0 0 1 .832-.863l1.64 1.579a.601.601 0 0 1 .034.897l-1.672 1.605a.601.601 0 0 1-.831-.866l.619-.595H2.6c-.33 0-.6-.27-.6-.6 0-.33.27-.6.6-.6h8.674z"/></symbol><symbol viewBox="0 0 16 16" id="direction-rtl" xmlns="http://www.w3.org/2000/svg"><path d="M7.468 5.658h.003v1.084h-.003v2.816c0 .33-.27.6-.6.6-.33 0-.6-.27-.6-.6V6.742H5.19c-1.753 0-3.178-1.288-3.178-2.87s1.425-2.87 3.178-2.87h1.985A.6.6 0 0 1 7.235 1h5.553c.33 0 .6.27.6.6 0 .33-.27.6-.6.6h-1.881v7.34c0 .33-.271.602-.601.602-.33 0-.6-.271-.6-.601V2.2H7.468v3.458zm-1.2 0V2.087H5.19c-1.091 0-1.978.8-1.978 1.785 0 .985.887 1.786 1.978 1.786h1.078zm-2.155 6.53h8.674c.33 0 .6.27.6.6 0 .33-.27.6-.6.6H4.068l.62.595c.238.228.247.61.018.849a.603.603 0 0 1-.85.017l-1.671-1.605a.601.601 0 0 1 .035-.899l1.638-1.577a.6.6 0 1 1 .832.863l-.577.556z"/></symbol><symbol viewBox="0 0 16 16" id="doughnut-fill" xmlns="http://www.w3.org/2000/svg"><path d="M8.56 1v3.2a3.55 3.55 0 0 1 2.816 2.816h3.2c-.32-3.2-2.816-5.76-6.016-6.016m0 10.112v3.2c3.2-.32 5.76-2.88 6.08-6.016h-3.2c-.319 1.408-1.472 2.56-2.88 2.816M1.2 7.656c0 3.519 2.688 6.336 6.08 6.656v-3.2c-1.664-.32-2.88-1.729-2.88-3.456C4.4 5.928 5.616 4.52 7.28 4.2V1C3.824 1.32 1.2 4.136 1.2 7.656"/></symbol><symbol viewBox="0 0 16 16" id="download" xmlns="http://www.w3.org/2000/svg"><path d="M7.393 9.953V1.02h1.2v9.06l2.717-2.716.88-.817.817.817-4.95 4.95-4.95-4.95.847-.847 1.16 1.165.004-.004 2.275 2.275zM16 9v6a1 1 0 0 1-1 1H1a1 1 0 0 1-1-1V9h1.2v5.8h13.6V9H16z"/></symbol><symbol viewBox="0 0 16 16" id="dropdown" xmlns="http://www.w3.org/2000/svg"><path d="M4.014 9.9h8.034l-4.01 5.036L4.015 9.9zM4 6.036L8.025 1l4.01 5.036H4z"/></symbol><symbol viewBox="0 0 16 16" id="edit" xmlns="http://www.w3.org/2000/svg"><path d="M2 8.34L10.71 0 15 4.17 6.538 13H2V8.34zm1.2.512V11.8h2.826l7.283-7.6-2.606-2.533L3.2 8.852zM0 16v-1.2h16V16H0z"/></symbol><symbol viewBox="0 0 16 16" id="embed" xmlns="http://www.w3.org/2000/svg"><path d="M13.118 10.235l.01.01-2.39 2.39-.848-.85 1.551-1.55-1.55-1.55.848-.85 2.389 2.39-.01.01zm-8.43.003l1.55 1.55-.849.85L3 10.247l.01-.01-.01-.01 2.39-2.39.849.85-1.55 1.55zM3.07 6.098C3.543 3.766 5.595 2 8.065 2c2.478 0 4.535 1.78 4.996 4.124a4.496 4.496 0 0 1 3.004 4.234 4.517 4.517 0 0 1-4.511 4.511H4.51A4.517 4.517 0 0 1 0 10.36a4.5 4.5 0 0 1 3.07-4.261zm8.738-.18a3.937 3.937 0 0 0-3.744-2.74 3.937 3.937 0 0 0-3.752 2.757c-.04.207-.064.42-.064.64 0 .17.026.331.05.494-1.725.112-3.1 1.536-3.1 3.29a3.315 3.315 0 0 0 3.312 3.31h7.043a3.314 3.314 0 0 0 3.31-3.31c0-1.724-1.327-3.127-3.01-3.28.018-.145.044-.286.044-.434 0-.25-.035-.492-.089-.727zm-2.48 1.92l-1.34 4.788-1.24.008 1.325-4.8 1.255.004z"/></symbol><symbol viewBox="0 0 16 16" id="epic-fill" xmlns="http://www.w3.org/2000/svg"><path d="M11.976 7.327l-4.61 6.114a.181.181 0 0 1-.132.057c-.025 0-.044-.007-.056-.02-.088-.024-.119-.074-.094-.15l.583-4.44H4.128c-.063 0-.107-.026-.13-.076-.039-.05-.033-.106.018-.17L8.927 2.53c.05-.076.106-.088.17-.038.061.013.093.063.093.15l-.583 4.44h3.238c.062 0 .106.027.131.077a.37.37 0 0 1 0 .169M12.767 0H3.191a3.201 3.201 0 0 0-3.19 3.192v9.575a3.201 3.201 0 0 0 3.19 3.192h9.576a3.201 3.201 0 0 0 3.191-3.192V3.192A3.201 3.201 0 0 0 12.768 0"/></symbol><symbol viewBox="0 0 16 16" id="exclamation-bold" xmlns="http://www.w3.org/2000/svg"><path d="M7 14v-2h2v2H7zm0-4V1h2v9H7z"/></symbol><symbol viewBox="0 0 16 16" id="exclamation-double-bold" xmlns="http://www.w3.org/2000/svg"><path d="M4 13v-2h2v2H4zm0-4V0h2v9H4zm5 4v-2h2v2H9zm0-4V0h2v9H9z"/></symbol><symbol viewBox="0 0 16 16" id="exclamation-three-bold" xmlns="http://www.w3.org/2000/svg"><path d="M2 14v-2h2v2H2zm0-4V1h2v9H2zm5 4v-2h2v2H7zm0-4V1h2v9H7zm5 4v-2h2v2h-2zm0-4V1h2v9h-2z"/></symbol><symbol viewBox="0 0 16 16" id="eye" xmlns="http://www.w3.org/2000/svg"><path d="M8 3.4c2.823 0 5.04 1.367 7.38 3.637a2.037 2.037 0 0 1 0 2.925C13.04 12.232 10.824 13.6 8 13.6c-2.823 0-5.032-1.364-7.376-3.637a2.037 2.037 0 0 1 0-2.925C2.967 4.764 5.176 3.4 8 3.4zm0 1.2c-2.417 0-4.405 1.228-6.542 3.3a.837.837 0 0 0 0 1.2C3.596 11.173 5.584 12.4 8 12.4s4.413-1.231 6.546-3.3a.837.837 0 0 0 0-1.2C12.412 5.83 10.415 4.6 8 4.6zM8 11a2.5 2.5 0 1 1 0-5 2.5 2.5 0 0 1 0 5zm0-1.2a1.3 1.3 0 1 0 0-2.6 1.3 1.3 0 0 0 0 2.6z"/></symbol><symbol viewBox="0 0 16 16" id="eye-invisible" xmlns="http://www.w3.org/2000/svg"><path d="M13.983 15.323l.013-.012L2.67 2.36l.874-.766 1.931 2.203A8.043 8.043 0 0 1 8 3.4c2.823 0 5.04 1.367 7.38 3.637a2.037 2.037 0 0 1 0 2.925c-.877.851-1.737 1.575-2.618 2.148l2.126 2.426-.902.791-.003-.004zm-3.432-2.129A8.05 8.05 0 0 1 8 13.6c-2.823 0-5.032-1.364-7.376-3.637a2.037 2.037 0 0 1 0-2.925C1.511 6.176 2.38 5.445 3.27 4.87l.804.919C3.2 6.33 2.342 7.043 1.458 7.9a.837.837 0 0 0 0 1.2C3.596 11.173 5.584 12.4 8 12.4c.58 0 1.136-.07 1.675-.207l.876 1.001zm-1.977-2.26a2.5 2.5 0 0 1-2.91-3.327l1.082 1.236c.105.386.384.7.747.854l1.081 1.237zM6.354 4.8l1.104 1.259a2.5 2.5 0 0 1 2.891 3.299l1.608 1.834c.866-.539 1.716-1.245 2.589-2.092a.837.837 0 0 0 0-1.2C12.412 5.83 10.415 4.6 8 4.6c-.57 0-1.116.068-1.646.2zm2.221 2.534l.657.749a1.304 1.304 0 0 0-.657-.75z"/></symbol><symbol viewBox="0 0 16 16" id="feature" xmlns="http://www.w3.org/2000/svg"><path d="M6.208 13.522l-.007-.004c-1.25-.789-2.964-.975-5.099-.618a.945.945 0 0 1-1.1-.937L0 3.806c0-.477.338-.883.809-.964 2.515-.432 4.567-.154 6.074.998.335.255.52.634.52 1.058l.003 7.949c0 .616-.67 1-1.198.675zm-.004-8.624c0-.051-.013-.077-.049-.104-1.164-.89-2.828-1.136-4.955-.8l.002 7.675c1.954-.288 3.633-.151 5.004.487l-.002-7.258zm3.603 8.62l-.006.004a.788.788 0 0 1-1.201-.675l.002-7.949c0-.424.188-.803.523-1.058 1.508-1.152 3.56-1.43 6.076-.998.469.081.808.487.808.964l-.003 8.157a.945.945 0 0 1-1.1.937c-2.133-.357-3.85-.17-5.099.618zm-.005-8.62l-.002 7.26c1.372-.64 3.054-.777 5.006-.489l.002-7.676c-2.127-.335-3.79-.089-4.955.801-.037.029-.05.055-.05.104z"/></symbol><symbol viewBox="0 0 16 16" id="feature-fill" xmlns="http://www.w3.org/2000/svg"><path d="M13.285 10.633a.279.279 0 0 1-.326.278c-1.678-.28-3.254-.194-4.462.562a.153.153 0 0 1-.232-.132l.002-5.56a.56.56 0 0 1 .232-.463c1.173-.888 2.786-1.004 4.536-.708a.3.3 0 0 1 .252.297l-.002 5.726zm-5.824.84c-1.209-.756-2.782-.841-4.463-.563a.278.278 0 0 1-.325-.277l-.002-5.725a.3.3 0 0 1 .251-.299c1.751-.295 3.363-.18 4.537.708a.56.56 0 0 1 .23.463l.002 5.561a.151.151 0 0 1-.23.132zM12.766 0H3.192A3.2 3.2 0 0 0 0 3.193v9.575a3.2 3.2 0 0 0 3.192 3.192h9.574a3.2 3.2 0 0 0 3.192-3.192V3.192A3.2 3.2 0 0 0 12.766 0z"/></symbol><symbol viewBox="0 0 16 16" id="filter" xmlns="http://www.w3.org/2000/svg"><path d="M11.806 3.286L9.744 7.634l.025 6.77a.6.6 0 0 1-1.2.004l-.026-6.906a.6.6 0 0 1 .058-.26l2.121-4.47a.4.4 0 0 0-.361-.572H3.589a.4.4 0 0 0-.363.57l2.04 4.36a.6.6 0 0 1 .056.255v7.02a.6.6 0 0 1-1.2 0V7.518L2.14 3.278A1.6 1.6 0 0 1 3.59 1h6.772a1.6 1.6 0 0 1 1.445 2.286zM11.5 9.2a.6.6 0 0 1 0-1.2h2.9a.6.6 0 0 1 0 1.2h-2.9zm0 3.5a.6.6 0 0 1 0-1.2h3a.6.6 0 0 1 0 1.2h-3z"/></symbol><symbol viewBox="0 0 16 16" id="float-center" xmlns="http://www.w3.org/2000/svg"><path d="M1.6.9h12.8a.6.6 0 0 1 0 1.2H1.6a.6.6 0 1 1 0-1.2zm0 12.9h12.8a.6.6 0 0 1 0 1.2H1.6a.6.6 0 0 1 0-1.2zm0-8.85h12.8a.6.6 0 0 1 .6.6v4.8a.6.6 0 0 1-.6.6H1.6a.6.6 0 0 1-.6-.6v-4.8a.6.6 0 0 1 .6-.6zm.4 1v4h12v-4H2z"/></symbol><symbol viewBox="0 0 16 16" id="float-full" xmlns="http://www.w3.org/2000/svg"><path d="M3.1 1h9.8a.6.6 0 0 1 0 1.2H3.1a.6.6 0 1 1 0-1.2zm0 12.8h9.8a.6.6 0 0 1 0 1.2H3.1a.6.6 0 0 1 0-1.2zM1.6 5h12.8a.6.6 0 0 1 .6.6v4.8a.6.6 0 0 1-.6.6H1.6a.6.6 0 0 1-.6-.6V5.6a.6.6 0 0 1 .6-.6zM2 6v4h12V6H2z"/></symbol><symbol viewBox="0 0 16 16" id="float-left" xmlns="http://www.w3.org/2000/svg"><path d="M1.6 1h12.8a.6.6 0 0 1 0 1.2H1.6a.6.6 0 1 1 0-1.2zM2 5h4a1 1 0 0 1 1 1v4a1 1 0 0 1-1 1H2a1 1 0 0 1-1-1V6a1 1 0 0 1 1-1zm0 1v4h4V6H2zm6.6-.733h5.8a.6.6 0 0 1 0 1.2H8.6a.6.6 0 1 1 0-1.2zm0 4.266h5.8a.6.6 0 0 1 0 1.2H8.6a.6.6 0 1 1 0-1.2zm-7 4.267h12.8a.6.6 0 0 1 0 1.2H1.6a.6.6 0 0 1 0-1.2z"/></symbol><symbol viewBox="0 0 16 16" id="float-right" xmlns="http://www.w3.org/2000/svg"><path d="M1.6 1h12.8a.6.6 0 0 1 0 1.2H1.6a.6.6 0 1 1 0-1.2zM10 5h4a1 1 0 0 1 1 1v4a1 1 0 0 1-1 1h-4a1 1 0 0 1-1-1V6a1 1 0 0 1 1-1zm0 1v4h4V6h-4zm-8.4-.733h5.8a.6.6 0 1 1 0 1.2H1.6a.6.6 0 1 1 0-1.2zm0 4.266h5.8a.6.6 0 1 1 0 1.2H1.6a.6.6 0 1 1 0-1.2zm0 4.267h12.8a.6.6 0 0 1 0 1.2H1.6a.6.6 0 0 1 0-1.2z"/></symbol><symbol viewBox="0 0 16 16" id="folder-bold" xmlns="http://www.w3.org/2000/svg"><path d="M2.738 3c-.132 0-.238.105-.238.222v8.555c0 .118.106.223.238.223h10.524c.131 0 .238-.106.238-.223V5.055h1-1c0-.15-.079-.222-.3-.222H8.928a1.687 1.687 0 0 1-1.342-.642c-.195-.24-.294-.436-.471-.855l-.013-.03A3.91 3.91 0 0 0 6.962 3H2.739zM14.5 5.055h1v6.722A2.234 2.234 0 0 1 13.262 14H2.738A2.234 2.234 0 0 1 .5 11.777V3.222A2.233 2.233 0 0 1 2.738 1h4.333c1.02 0 1.44.502 1.873 1.527l.014.032c.055.13.093.216.122.274h4.12c1.29 0 2.3.93 2.3 2.222h-1z"/></symbol><symbol viewBox="0 0 16 16" id="folder-expand" xmlns="http://www.w3.org/2000/svg"><path d="M2.065 5.003h-1.2v-.018h1.2v.018h-1.2v-.019h1.2V5.4a.6.6 0 1 1-1.2 0V3.8c0-.993.81-1.802 1.805-1.802h5.561c.788 0 1.115.393 1.481 1.27l.013.031c.182.436.236.502.31.502l3.975-.025c1.058 0 1.865.752 1.865 1.8l.036 6.582c0 .993-.812 1.803-1.806 1.803h-.147c-.84 0-1.947.003-3.417.009l-1.127.004a8026.61 8026.61 0 0 1-3.622.013.6.6 0 0 1 0-1.2l1.445-.004 2.173-.009 1.126-.004c1.472-.006 2.58-.009 3.422-.009h.147a.608.608 0 0 0 .606-.6l-.036-6.582c0-.368-.252-.603-.661-.603L10.04 5c-.758 0-1.061-.374-1.422-1.24l-.013-.03c-.19-.457-.254-.533-.374-.533h-5.56a.607.607 0 0 0-.606.602v1.204zM2 7.5l2 2.667H0L2 7.5zm0 6.667L0 11.5h4l-2 2.667z"/></symbol><symbol viewBox="0 0 16 16" id="folder-fill" xmlns="http://www.w3.org/2000/svg"><path d="M15.773 4.636v8c0 .8-.655 1.455-1.455 1.455H1.955A1.459 1.459 0 0 1 .5 12.636V2.454C.5 1.654 1.154 1 1.955 1h5.09c1.31 0 .946 2.181 2.182 2.181h5.019c.872 0 1.527.582 1.527 1.455"/></symbol><symbol viewBox="0 0 16 16" id="folder-fold" xmlns="http://www.w3.org/2000/svg"><path d="M2.065 5.003h-1.2v-.018h1.2v.018h-1.2v-.019h1.2V5.4a.6.6 0 1 1-1.2 0V3.8c0-.993.81-1.802 1.805-1.802h5.561c.788 0 1.115.393 1.481 1.27l.013.031c.182.436.236.502.31.502l3.975-.025c1.058 0 1.865.752 1.865 1.8l.036 6.582c0 .993-.812 1.803-1.806 1.803h-.147c-.84 0-1.947.003-3.417.009l-1.127.004a8026.61 8026.61 0 0 1-3.622.013.6.6 0 0 1 0-1.2l1.445-.004 2.173-.009 1.126-.004c1.472-.006 2.58-.009 3.422-.009h.147a.608.608 0 0 0 .606-.6l-.036-6.582c0-.368-.252-.603-.661-.603L10.04 5c-.758 0-1.061-.374-1.422-1.24l-.013-.03c-.19-.457-.254-.533-.374-.533h-5.56a.607.607 0 0 0-.606.602v1.204zM2 10.167L0 7.5h4l-2 2.667zM2 11.5l2 2.667H0L2 11.5z"/></symbol><symbol viewBox="0 0 16 16" id="folder-open-fill" xmlns="http://www.w3.org/2000/svg"><path d="M1.409 5.44L0 10.614V2.391C0 1.084 1.222 1 1.545 1h4.131c.323 0 .731.228 1.01.74.24.51.57.792.99.844.42.052 2.269.08 5.544.084.72-.006 1.002.527 1.002 1.043v.878H2.118c-.393 0-.71.383-.71.852zm1.65.582H15.34c.363 0 .659.367.659.822l-1.51 6.221c0 .455-.295.822-.66.822H1.548c-.364 0-.66-.367-.66-.822L2.4 6.844c0-.455.295-.822.659-.822z"/></symbol><symbol viewBox="0 0 16 16" id="font" xmlns="http://www.w3.org/2000/svg"><path d="M7.268 8.674l-2.076-4.86-2.076 4.86h4.152zm.513 1.2H2.603l-1.294 3.03L0 12.902 4.49 2.4H5.894l4.484 10.486-1.31.002-1.287-3.014zm2.86 1.111c0-1.423 1.246-2.193 4.21-2.49 0-.89-.235-1.72-1.362-1.72-.772 0-1.484.356-2.017.711l-.475-.771c.653-.415 1.602-.889 2.669-.889 1.602 0 2.313 1.127 2.313 2.787v4.151h-.948l-.12-.83h-.06c-.651.534-1.422.949-2.252.949-1.127 0-1.957-.652-1.957-1.898zm4.113-1.778c-2.253.296-3.024.83-3.024 1.72 0 .77.534 1.067 1.186 1.067.652 0 1.186-.297 1.838-.89V9.207z"/></symbol><symbol viewBox="0 0 16 16" id="formula" xmlns="http://www.w3.org/2000/svg"><path d="M12.663 11.027c-.117.142-.25.318-.4.527.09.88.404 1.722.913 2.446a.807.807 0 0 0 .951.051c.212-.071.317.313 0 .494a2.582 2.582 0 0 1-2.376.185 2.786 2.786 0 0 1-.918-1.726c-.101.152-.177.27-.223.346-.05.08-.121.194-.215.34a5.11 5.11 0 0 1-.776.993 1.134 1.134 0 0 1-.787.3.82.82 0 0 1-.832-.852 1.058 1.058 0 0 1 1.085-1.113c.176 0 .352.021.522.066.167.045.324.094.471.147a2.69 2.69 0 0 0 .264-.271c.129-.15.25-.305.362-.467-.15-.602-.31-1.287-.527-2.038a.869.869 0 0 0-1.281-.585c-.259.118-.388-.329.094-.529.447-.184 2.482-1.047 2.941.8.075.303.144.597.212.885l.246-.38c.085-.13.157-.246.218-.346.213-.368.476-.704.781-1 .214-.194.492-.301.781-.3a.8.8 0 0 1 .594.239.84.84 0 0 1 .238.619c.015.3-.1.59-.314.8a1.075 1.075 0 0 1-.767.3 2.1 2.1 0 0 1-.535-.069 5.572 5.572 0 0 1-.456-.138 1.662 1.662 0 0 0-.266.276zM7.223 5.4H8.5a.6.6 0 1 1 0 1.2H6.928c-.236 1.116-.614 3-.573 2.8-.105.506-.198.919-.297 1.318-.17.677-.36 1.312-.604 1.999-.587 1.652-1.397 2.363-2.395 2.363-.146 0-.283-.009-.412-.027-.627-.087-1.061-.549-1.305-1.273a.6.6 0 0 1 1.137-.383c.112.334.224.452.334.468.072.01.154.015.246.015.432 0 .833-.352 1.264-1.565.23-.65.41-1.248.57-1.889.096-.38.185-.778.287-1.27-.04.193.285-1.423.522-2.556H4.5a.6.6 0 1 1 0-1.2h1.472c.456-1.698 1.376-3.494 2.285-4.009.84-.476 1.634-.401 2.159.29a.6.6 0 0 1-.955.726c-.124-.163-.254-.175-.612.028-.51.289-1.218 1.642-1.627 2.965z"/></symbol><symbol viewBox="0 0 16 16" id="hashtag" xmlns="http://www.w3.org/2000/svg"><path d="M4.236 9.9l.422-3.8H2.6a.6.6 0 1 1 0-1.2h2.19l.372-3.347a.6.6 0 1 1 1.192.133L5.998 4.9h4.793l.37-3.347a.6.6 0 0 1 1.193.133L11.998 4.9h2.459a.6.6 0 0 1 0 1.2h-2.592l-.421 3.8h2.013a.6.6 0 0 1 0 1.2H11.31l-.374 3.368a.6.6 0 0 1-1.192-.132l.358-3.236H5.311l-.374 3.368a.6.6 0 0 1-1.192-.132l.358-3.236H1.6a.6.6 0 0 1 0-1.2h2.636zm1.208 0h4.792l.422-3.8H5.865l-.421 3.8z"/></symbol><symbol viewBox="0 0 16 16" id="header" xmlns="http://www.w3.org/2000/svg"><path d="M8 7.2V2.6a.6.6 0 1 1 1.2 0v10.8a.6.6 0 0 1-1.2 0v-5H2.2v5a.6.6 0 0 1-1.2 0V2.6a.6.6 0 1 1 1.2 0v4.6H8zm3.8 5.6h3.5a.5.5 0 0 1 .5.5v.2a.5.5 0 0 1-.5.5h-3.5a.5.5 0 0 1-.5-.5v-.2a.5.5 0 0 1 .5-.5zM13 7.998l-.543.506a.6.6 0 1 1-.818-.878l1.507-1.406a.598.598 0 0 1 .181-.116.6.6 0 0 1 .873.535V13.2a.6.6 0 0 1-1.2 0V7.998z"/></symbol><symbol viewBox="0 0 16 16" id="header-1" xmlns="http://www.w3.org/2000/svg"><path d="M8 7.2V2.6a.6.6 0 1 1 1.2 0v10.8a.6.6 0 0 1-1.2 0v-5H2.2v5a.6.6 0 0 1-1.2 0V2.6a.6.6 0 1 1 1.2 0v4.6H8zm3.8 5.6h3.5a.5.5 0 0 1 .5.5v.2a.5.5 0 0 1-.5.5h-3.5a.5.5 0 0 1-.5-.5v-.2a.5.5 0 0 1 .5-.5zM13 7.998l-.543.506a.6.6 0 1 1-.818-.878l1.507-1.406a.598.598 0 0 1 .181-.116.6.6 0 0 1 .873.535V13.2a.6.6 0 0 1-1.2 0V7.998z"/></symbol><symbol viewBox="0 0 16 16" id="header-2" xmlns="http://www.w3.org/2000/svg"><path d="M8 7.2V2.6a.6.6 0 1 1 1.2 0v10.8a.6.6 0 0 1-1.2 0v-5H2.2v5a.6.6 0 0 1-1.2 0V2.6a.6.6 0 1 1 1.2 0v4.6H8zm2.605 5.714c.001-.015.019-.178.03-.254.023-.154.057-.308.108-.468a3.19 3.19 0 0 1 .724-1.226 3.707 3.707 0 0 1 .373-.348 4.73 4.73 0 0 1 .688-.454c.682-.389.913-.555 1.327-1.028.466-.534.291-1.425-.47-1.716-.348-.134-.853-.072-1.274.172-.156.09-.294.222-.417.4a.6.6 0 0 1-.989-.679c.22-.321.49-.576.805-.759.72-.417 1.599-.525 2.305-.255a2.278 2.278 0 0 1 .943 3.627c-.522.598-.846.83-1.635 1.28-.252.144-.389.232-.53.345a2.309 2.309 0 0 0-.248.232c-.297.32-.416.542-.487.877h2.877a.6.6 0 0 1 0 1.2l-3.061-.002c-.642.057-1.165-.27-1.069-.944z"/></symbol><symbol viewBox="0 0 16 16" id="header-3" xmlns="http://www.w3.org/2000/svg"><path d="M8 7.2V2.6a.6.6 0 1 1 1.2 0v10.8a.6.6 0 0 1-1.2 0v-5H2.2v5a.6.6 0 0 1-1.2 0V2.6a.6.6 0 1 1 1.2 0v4.6H8zm6.832-.01l-1.617 2.102c.123.022.243.049.36.081 1.125.312 1.788 1.53 1.413 2.84-.302 1.052-1.21 1.61-2.37 1.61-.835 0-1.656-.292-2.451-.87a.6.6 0 1 1 .705-.97c.593.43 1.171.64 1.746.64.621 0 1.079-.263 1.216-.742.188-.655-.094-1.217-.58-1.352a3.11 3.11 0 0 0-.912-.1.6.6 0 0 1-.616-.6v-.366a.6.6 0 0 1 .125-.366l1.287-1.673h-2.114a.6.6 0 1 1 0-1.2h3.333a.6.6 0 0 1 .475.966z"/></symbol><symbol viewBox="0 0 16 16" id="header-4" xmlns="http://www.w3.org/2000/svg"><path d="M8 7.2V2.6a.6.6 0 1 1 1.2 0v10.8a.6.6 0 0 1-1.2 0v-5H2.2v5a.6.6 0 0 1-1.2 0V2.6a.6.6 0 1 1 1.2 0v4.6H8zm4.767 1.18L11.705 9.99h1.034l.028-1.611zm1.172 1.611h.879a.6.6 0 1 1 0 1.2h-.9l-.039 2.237a.6.6 0 1 1-1.2-.02l.039-2.217H10.59a.6.6 0 0 1-.5-.93l2.685-4.078a.6.6 0 0 1 .562-.267.6.6 0 0 1 .66.607l-.06 3.468z"/></symbol><symbol viewBox="0 0 16 16" id="header-5" xmlns="http://www.w3.org/2000/svg"><path d="M8 7.2V2.6a.6.6 0 1 1 1.2 0v10.8a.6.6 0 0 1-1.2 0v-5H2.2v5a.6.6 0 0 1-1.2 0V2.6a.6.6 0 1 1 1.2 0v4.6H8zm4.01.438l-.091 1.246a4.2 4.2 0 0 1 1.28-.023c1.185.185 2.108 1.18 2.014 2.557-.096 1.406-1.02 2.258-2.345 2.375-.801.07-1.584-.22-2.328-.837a.6.6 0 0 1 .767-.924c.516.429.995.606 1.456.566.76-.067 1.199-.472 1.253-1.261.048-.715-.397-1.196-1.002-1.29-.397-.062-.932-.009-1.597.17a.6.6 0 0 1-.754-.624l.192-2.599a.6.6 0 0 1 .598-.556h3.053a.6.6 0 0 1 0 1.2h-2.495z"/></symbol><symbol viewBox="0 0 16 16" id="header-6" xmlns="http://www.w3.org/2000/svg"><path d="M8 7.2V2.6a.6.6 0 1 1 1.2 0v10.8a.6.6 0 0 1-1.2 0v-5H2.2v5a.6.6 0 0 1-1.2 0V2.6a.6.6 0 1 1 1.2 0v4.6H8zm3.669 2.045c.41-.284.916-.447 1.478-.447a2.6 2.6 0 0 1 2.6 2.6c0 .579-.177 1.099-.481 1.512a.6.6 0 0 1-.084.142c-.91 1.15-2.612 1.217-3.88.073-1.376-1.242-1.31-4.428.141-5.857.958-.942 2.048-1.344 3.226-1.167a.6.6 0 0 1-.178 1.186c-.786-.118-1.506.148-2.206.836-.283.279-.488.678-.616 1.122zm1.559 3.457c.777 0 1.319-.535 1.319-1.304a1.4 1.4 0 0 0-1.4-1.4c-.778 0-1.319.535-1.319 1.304a1.4 1.4 0 0 0 1.4 1.4z"/></symbol><symbol viewBox="0 0 16 16" id="health-check" xmlns="http://www.w3.org/2000/svg"><path d="M12.346 13.225a7.5 7.5 0 1 1 .851-.846l2.61 2.578a.6.6 0 0 1-.842.854l-2.62-2.586zM7.5 13.8a6.3 6.3 0 1 0 0-12.6 6.3 6.3 0 0 0 0 12.6zm1.539-5.166L7.1 7.013 5.825 8.292a.6.6 0 0 1-.425.176H4a.6.6 0 1 1 0-1.2h1.151L6.64 5.776a.6.6 0 0 1 .81-.036l2.054 1.718.888-.454a.6.6 0 0 1 .273-.066h1.013a.6.6 0 0 1 0 1.2h-.868l-1.113.57a.6.6 0 0 1-.658-.074z"/></symbol><symbol viewBox="0 0 16 16" id="horizontal-rule" xmlns="http://www.w3.org/2000/svg"><path d="M2.603 2.21v2.586a.6.6 0 1 1-1.2 0V1.61a.6.6 0 0 1 .6-.6h12a.6.6 0 0 1 .6.6v3.185a.6.6 0 0 1-1.2 0V2.21h-10.8zm10.8 11.582v-2.585a.6.6 0 1 1 1.2 0v3.185a.6.6 0 0 1-.6.6h-12a.6.6 0 0 1-.6-.6v-3.185a.6.6 0 0 1 1.2 0v2.585h10.8zM.5 8.6a.6.6 0 1 1 0-1.2l15-.002a.6.6 0 1 1 0 1.2L.5 8.6z"/></symbol><symbol viewBox="0 0 16 16" id="image" xmlns="http://www.w3.org/2000/svg"><path d="M13.8 10.476V3.2H2.2v5.433l.1-.079C3.13 7.904 4.028 7.5 5 7.5c.823 0 1.552.27 2.342.778.225.145.449.304.735.518.06.046.546.414.69.52 1.634 1.21 2.832 1.6 4.798 1.207l.235-.047zm0 1.374v-.15c-5 1-6.3-3-8.8-3-1.5 0-2.8 1.6-2.8 1.6v3.5h11.6v-1.95zM14 2c.6 0 1 .5 1 1v11c0 .6-.4 1-1 1H2c-.6 0-1-.4-1-1V3c0-.5.4-1 1-1h12zm-3.504 6c-.824 0-1.573-.675-1.498-1.5 0-.825.674-1.5 1.498-1.5.823 0 1.497.675 1.497 1.5S11.32 8 10.496 8z"/></symbol><symbol viewBox="0 0 16 16" id="importance" xmlns="http://www.w3.org/2000/svg"><path d="M5.207 8v6.4a.6.6 0 0 1-1.2 0V8H4V1h5.5a3.5 3.5 0 0 1 0 7H5.207zm0-5.8v4.6H9.5a2.3 2.3 0 0 0 0-4.6H5.207z"/></symbol><symbol viewBox="0 0 16 16" id="importance-bold" xmlns="http://www.w3.org/2000/svg"><path d="M5 1h3.625C11.041 1 13 3.015 13 5.5S11.041 10 8.625 10H5v4.5a1 1 0 0 1-2 0V1h2zm0 2v5h3.625C9.924 8 11 6.893 11 5.5S9.924 3 8.625 3H5z"/></symbol><symbol viewBox="0 0 16 16" id="indent" xmlns="http://www.w3.org/2000/svg"><path d="M4.007 8L.993 10.5v-5L4.007 8zM.593 3.197a.596.596 0 0 1-.593-.6c0-.332.265-.6.593-.6h14.814c.328 0 .593.268.593.6 0 .331-.265.6-.593.6H.593zM.603 14A.601.601 0 0 1 0 13.4c0-.331.27-.6.603-.6h14.794c.333 0 .603.269.603.6 0 .331-.27.6-.603.6H.603zm7.565-5.803a.6.6 0 1 1 0-1.2H15.4a.6.6 0 0 1 0 1.2H8.168z"/></symbol><symbol viewBox="0 0 16 16" id="ios-fill" xmlns="http://www.w3.org/2000/svg"><path d="M13.946 14c-.667.933-1.334 2-2.4 2-1.067 0-1.466-.667-2.667-.667-1.199 0-1.6.667-2.667.667-1.066 0-1.865-1.067-2.532-2-1.333-2-2.4-5.6-1.068-8.133.667-1.2 2-2 3.334-2 1.068 0 2 .666 2.666.666.667 0 1.867-.8 3.068-.666.532 0 2 .266 2.932 1.6-.133 0-1.733.133-1.733 3.066 0 2 2.135 3.2 2.135 3.2 0 .134-.402 1.2-1.068 2.267M12.479 0c0 2.267-1.732 4-4 4 0-2.267 1.733-4 4-4"/></symbol><symbol viewBox="0 0 16 16" id="italic" xmlns="http://www.w3.org/2000/svg"><path d="M5.646 13.8L8.754 2.2H5.5V1H13v1.2H9.996L6.888 13.8H10V15H2.5v-1.2h3.146z"/></symbol><symbol viewBox="0 0 16 16" id="kanban-fill" xmlns="http://www.w3.org/2000/svg"><path d="M0 4.717V0h7.547v4.717H0zm8.492 2.83V0h7.546v7.547H8.492zm0 8.492V8.492h7.546v7.547H8.492zm-8.492 0V5.755h7.547v10.284H0z"/></symbol><symbol viewBox="0 0 16 16" id="link-insert" xmlns="http://www.w3.org/2000/svg"><path d="M13.909 8.228l-.834-.863.72-.695a2.8 2.8 0 0 0-3.89-4.028L7.026 5.42a2.8 2.8 0 0 0-.07 3.96l-.862.833a4 4 0 0 1 .098-5.656L9.071 1.78a4 4 0 0 1 5.557 5.754l-.72.695zM2.597 8.031l.833.863-.72.694a2.8 2.8 0 0 0 3.891 4.029l2.877-2.779a2.8 2.8 0 0 0 .07-3.96l.863-.833a4 4 0 0 1-.099 5.656L7.435 14.48a4 4 0 0 1-5.558-5.755l.72-.694z"/></symbol><symbol viewBox="0 0 16 16" id="list" xmlns="http://www.w3.org/2000/svg"><path d="M.664 3.2a.6.6 0 1 1 0-1.2h1.747a.6.6 0 1 1 0 1.2H.664zm4.999 0a.6.6 0 1 1 0-1.2H15.4a.6.6 0 0 1 0 1.2H5.663zm-4.999 5a.6.6 0 1 1 0-1.2h1.747a.6.6 0 1 1 0 1.2H.664zm4.999 0a.6.6 0 1 1 0-1.2H15.4a.6.6 0 0 1 0 1.2H5.663zM.664 14a.6.6 0 0 1 0-1.2h1.747a.6.6 0 0 1 0 1.2H.664zm4.999 0a.6.6 0 0 1 0-1.2H15.4a.6.6 0 0 1 0 1.2H5.663z"/></symbol><symbol viewBox="0 0 16 16" id="list-bullet" xmlns="http://www.w3.org/2000/svg"><path d="M.664 3.2a.6.6 0 1 1 0-1.2h1.747a.6.6 0 1 1 0 1.2H.664zm4.999 0a.6.6 0 1 1 0-1.2H15.4a.6.6 0 0 1 0 1.2H5.663zm-4.999 5a.6.6 0 1 1 0-1.2h1.747a.6.6 0 1 1 0 1.2H.664zm4.999 0a.6.6 0 1 1 0-1.2H15.4a.6.6 0 0 1 0 1.2H5.663zM.664 14a.6.6 0 0 1 0-1.2h1.747a.6.6 0 0 1 0 1.2H.664zm4.999 0a.6.6 0 0 1 0-1.2H15.4a.6.6 0 0 1 0 1.2H5.663z"/></symbol><symbol viewBox="0 0 16 16" id="list-check" xmlns="http://www.w3.org/2000/svg"><path d="M2 3.151l1.576-1.575.848.848L2 4.85.576 3.424l.848-.848L2 3.15zm0 4.825L3.576 6.4l.848.849L2 9.673.576 8.249l.848-.849.576.576zm0 5L3.576 11.4l.848.849L2 14.673.576 13.249l.848-.849.576.576zM5.663 3.2a.6.6 0 1 1 0-1.2H15.4a.6.6 0 0 1 0 1.2H5.663zm0 5a.6.6 0 1 1 0-1.2H15.4a.6.6 0 0 1 0 1.2H5.663zm0 5.8a.6.6 0 0 1 0-1.2H15.4a.6.6 0 0 1 0 1.2H5.663z"/></symbol><symbol viewBox="0 0 16 16" id="list-ordered" xmlns="http://www.w3.org/2000/svg"><path d="M1.9 2.4l-.5.4-.4-.7 1.1-.7h.7v3.3h-.9V2.4zm-.8 4.5c.2-.4.6-.6 1.1-.6.3 0 .6.1.8.3.2.2.3.4.3.7 0 .2 0 .3-.1.5 0 .2-.2.4-.5.7l-.4.4h1v.8H1.1v-.6l.9-1c.1-.2.2-.3.3-.4.1-.1.1-.2.1-.3 0-.1 0-.1-.1-.2s-.1-.1-.2-.1-.3.1-.4.3l-.6-.5zm1.8 6c.3.1.5.4.5.7 0 .3-.1.5-.3.7-.2.2-.5.3-.8.3-.3 0-.6-.1-.8-.2-.3-.2-.4-.4-.5-.6l.8-.2c.1.2.2.3.4.3.1 0 .1 0 .2-.1.1 0 .1-.1.1-.2s0-.1-.1-.2-.2-.1-.3-.1h-.2v-.7h.3c.1 0 .1-.1.2-.1.1-.1.1-.1.1-.2s0-.2-.1-.2c0-.1-.1-.1-.2-.1-.2 0-.3.1-.4.3l-.7-.4c.1-.2.2-.4.4-.5.2-.1.5-.2.7-.2.3 0 .6 0 .8.2.2.2.3.4.3.7 0 .4-.1.6-.4.8zm2.763-9.7a.6.6 0 1 1 0-1.2H15.4a.6.6 0 0 1 0 1.2H5.663zm0 5a.6.6 0 1 1 0-1.2H15.4a.6.6 0 0 1 0 1.2H5.663zm0 5.8a.6.6 0 0 1 0-1.2H15.4a.6.6 0 0 1 0 1.2H5.663z"/></symbol><symbol viewBox="0 0 16 16" id="list-sample-bold" xmlns="http://www.w3.org/2000/svg"><path d="M6.875 12.344v-3h7.466v3H6.875zm-5.313.063v-3h3.81v3h-3.81zM6.813 6.5v-3h7.465v3H6.813zM1.5 6.563V3.562h3.81v3.001H1.5z"/></symbol><symbol viewBox="0 0 16 16" id="map" xmlns="http://www.w3.org/2000/svg"><path d="M8 10.6a3.6 3.6 0 1 1 0-7.2 3.6 3.6 0 0 1 0 7.2zm0-1.2a2.4 2.4 0 1 0 0-4.8 2.4 2.4 0 0 0 0 4.8zM8 16c-4.667-3.423-7-6.423-7-9a7 7 0 1 1 14 0c0 2.577-2.333 5.577-7 9zm0-1.499c3.905-2.986 5.8-5.532 5.8-7.501A5.8 5.8 0 0 0 2.2 7c0 1.969 1.895 4.515 5.8 7.501z"/></symbol><symbol viewBox="0 0 16 16" id="mention" xmlns="http://www.w3.org/2000/svg"><path d="M14.73 9h-.003a6.795 6.795 0 0 0 .073-1 6.8 6.8 0 1 0-2.725 5.444l.677.992a8 8 0 1 1 3.221-5.778h.003a37.249 37.249 0 0 0-.038.342h-.001l-.006.055c-.154 1.535-.857 2.612-2.169 2.776-1.255.157-2.38-.361-3.04-1.3-.774.916-1.993 1.343-3.169 1.343C5.62 11.874 3.8 10.209 3.8 8c0-2.21 1.967-3.9 3.9-3.9 1.068 0 2.126.44 2.86 1.27.058-.193.121-.385.19-.575l1.128.41a9.567 9.567 0 0 0-.567 3.296c0 1.407 1.026 2.299 2.302 2.14.626-.08 1.004-.64 1.117-1.641zm-4.537-1.873a2.7 2.7 0 0 0-.225-.528C9.513 5.786 8.645 5.3 7.7 5.3 6.32 5.3 5 6.559 5 8c0 1.473 1.209 2.674 2.553 2.674 1.035 0 1.949-.42 2.407-1.125a2.126 2.126 0 0 0 .204-.401 3.882 3.882 0 0 1-.053-.647c0-.466.027-.924.082-1.374z"/></symbol><symbol viewBox="0 0 16 16" id="minus-bold" xmlns="http://www.w3.org/2000/svg"><path d="M1 7h14v2H1z"/></symbol><symbol viewBox="0 0 16 16" id="minus-circle" xmlns="http://www.w3.org/2000/svg"><g fill-rule="nonzero"><path d="M8 16A8 8 0 1 0 8 0a8 8 0 0 0 0 16zm0-1.2A6.8 6.8 0 1 1 8 1.2a6.8 6.8 0 0 1 0 13.6z"/><path d="M4.8 8.6h6.4V7.4H4.8z"/></g></symbol><symbol viewBox="0 0 16 16" id="minus-circle-fill" xmlns="http://www.w3.org/2000/svg"><path d="M0 8c0-4.4 3.6-8 8-8s8 3.6 8 8-3.6 8-8 8-8-3.6-8-8zm11.306-.532H4.76v1.6h6.546v-1.6z"/></symbol><symbol viewBox="0 0 16 16" id="minus-square" xmlns="http://www.w3.org/2000/svg"><path d="M3 1h10a2 2 0 0 1 2 2v10a2 2 0 0 1-2 2H3a2 2 0 0 1-2-2V3a2 2 0 0 1 2-2zm0 1.2a.8.8 0 0 0-.8.8v10a.8.8 0 0 0 .8.8h10a.8.8 0 0 0 .8-.8V3a.8.8 0 0 0-.8-.8H3zm1.8 5.2h6.5v1.2H4.8V7.4z"/></symbol><symbol viewBox="0 0 16 16" id="mobile-mode" xmlns="http://www.w3.org/2000/svg"><path d="M13.636 9.535V2.293a1 1 0 0 0-1-1H4.293a1 1 0 0 0-1 1v7.242h10.343zm0 1.293H3.293v2.88a1 1 0 0 0 1 1h8.343a1 1 0 0 0 1-1v-2.88zM5 0h6.93a3 3 0 0 1 3 3v10a3 3 0 0 1-3 3H5a3 3 0 0 1-3-3V3a3 3 0 0 1 3-3zm3.465 13.414a.646.646 0 1 1 0-1.293.646.646 0 0 1 0 1.293z"/></symbol><symbol viewBox="0 0 16 16" id="more" xmlns="http://www.w3.org/2000/svg"><path d="M12 9.5V7h2.5v2.5H12zm-5 0V7h2.5v2.5H7zm-5 0V7h2.5v2.5H2z"/></symbol><symbol viewBox="0 0 16 16" id="more-bold" xmlns="http://www.w3.org/2000/svg"><path d="M0 9.5v-3h3v3H0zm6.5 0v-3h3v3h-3zm6.503 0v-3h3v3h-3z"/></symbol><symbol viewBox="0 0 16 16" id="more-circle" xmlns="http://www.w3.org/2000/svg"><path d="M8 16A8 8 0 1 1 8 0a8 8 0 0 1 0 16zm0-1.2A6.8 6.8 0 1 0 8 1.2a6.8 6.8 0 0 0 0 13.6zM4.5 7.5H6V9H4.5V7.5zm3 0H9V9H7.5V7.5zm3 0H12V9h-1.5V7.5z"/></symbol><symbol viewBox="0 0 16 16" id="more-circle-fill" xmlns="http://www.w3.org/2000/svg"><path d="M0 8c0-4.4 3.6-8 8-8s8 3.6 8 8-3.6 8-8 8-8-3.6-8-8zm4-.8v1.6h1.6V7.2H4zm3.2 0v1.6h1.6V7.2H7.2zm3.2 0v1.6H12V7.2h-1.6z"/></symbol><symbol viewBox="0 0 16 16" id="move" xmlns="http://www.w3.org/2000/svg"><path d="M2 3.5h12a1 1 0 0 1 1 1v9a1 1 0 0 1-1 1H2a1 1 0 0 1-1-1v-9a1 1 0 0 1 1-1zm.2 9.8h11.6V4.7H2.2v8.6zm.367-11.1a.6.6 0 1 1 0-1.2H13.4a.6.6 0 0 1 0 1.2H2.567zm6.63 6l-.636-.637a.6.6 0 0 1 .848-.848l1.625 1.625a.6.6 0 0 1-.038.883.608.608 0 0 1-.035.037l-1.624 1.625a.6.6 0 0 1-.849-.848l.637-.637H4.8a.6.6 0 1 1 0-1.2h4.397z"/></symbol><symbol viewBox="0 0 16 16" id="move-to-list" xmlns="http://www.w3.org/2000/svg"><path d="M5.926 4.203C3.294 4.28 1.21 6.17 1.201 8.466c-.01 2.348 2.162 4.292 4.881 4.303l.96.004-.007 1.2-.957-.004c-3.353-.013-6.09-2.463-6.077-5.508.01-2.992 2.669-5.387 5.942-5.46l-.835-.684a.6.6 0 1 1 .761-.927l2.078 1.704a.601.601 0 0 1 .002.928L5.93 5.797a.6.6 0 1 1-.793-.9l.788-.694zM9.6 9.086a.6.6 0 1 1 0-1.2h5.8a.6.6 0 0 1 0 1.2H9.6zm0-4.886a.6.6 0 1 1 0-1.2h5.8a.6.6 0 0 1 0 1.2H9.6zm0 9.773a.6.6 0 0 1 0-1.2h5.8a.6.6 0 0 1 0 1.2H9.6z"/></symbol><symbol viewBox="0 0 16 16" id="nodejs-fill" xmlns="http://www.w3.org/2000/svg"><path d="M8.02 6.679L6 8.04v3.938L1 15V6h.084L1 5.914 7.995 1l7.045 4.914-.084.086H15v9l-5-3.02V8.013L8.02 6.68z"/></symbol><symbol viewBox="0 0 16 16" id="number" xmlns="http://www.w3.org/2000/svg"><path d="M0 5.049c.47-.19.926-.432 1.37-.728a5.694 5.694 0 0 0 1.223-1.115h.815v8.93H2.26V4.87c-.099.094-.22.193-.365.296-.144.103-.3.202-.469.296a7.826 7.826 0 0 1-.53.27 5.841 5.841 0 0 1-.538.22L0 5.049zm9.83.438c0 .31-.06.608-.179.896-.12.287-.278.57-.475.85-.198.28-.42.554-.667.825-.247.27-.494.535-.74.792-.14.146-.303.318-.489.516-.185.197-.36.404-.524.618a5.28 5.28 0 0 0-.414.619c-.111.198-.167.37-.167.515h3.94v1.018H4.927a.979.979 0 0 1-.012-.154v-.142c0-.404.063-.78.191-1.128.128-.347.294-.676.5-.985.206-.31.436-.602.692-.877.255-.275.506-.54.753-.799.206-.206.401-.41.586-.612.186-.202.35-.403.494-.605.144-.202.26-.41.346-.625.087-.215.13-.443.13-.683 0-.258-.04-.477-.117-.657a1.223 1.223 0 0 0-.778-.715 1.857 1.857 0 0 0-.562-.084c-.239 0-.457.034-.655.103a3.1 3.1 0 0 0-.53.238c-.157.09-.289.185-.396.284l-.247.225-.568-.85c.074-.086.185-.192.334-.316.148-.125.325-.243.53-.355a3.69 3.69 0 0 1 .692-.283A2.84 2.84 0 0 1 7.138 3c.898 0 1.57.217 2.02.65.448.435.672 1.047.672 1.837zm2.922 5.773c.733 0 1.258-.15 1.575-.45.317-.302.475-.705.475-1.212 0-.327-.066-.602-.197-.825a1.54 1.54 0 0 0-.519-.535 2.207 2.207 0 0 0-.747-.283 4.502 4.502 0 0 0-.87-.084h-.297v-.98h.408c.205 0 .417-.02.635-.064a1.79 1.79 0 0 0 .6-.232c.18-.111.329-.264.444-.457.115-.193.173-.436.173-.728 0-.24-.041-.447-.124-.619a1.228 1.228 0 0 0-.327-.425 1.228 1.228 0 0 0-.47-.238 2.17 2.17 0 0 0-.561-.071c-.395 0-.73.06-1.006.18s-.509.245-.698.374l-.445-.915a3.88 3.88 0 0 1 .89-.451c.189-.069.393-.127.61-.174A3.23 3.23 0 0 1 12.988 3c.453 0 .844.058 1.173.174.33.116.601.28.815.49.214.21.375.46.482.747.107.288.16.6.16.934 0 .464-.127.862-.383 1.192-.255.331-.564.582-.926.754.223.069.437.168.642.297.206.128.385.292.538.49A2.49 2.49 0 0 1 16 9.623c0 .386-.064.745-.191 1.076-.128.33-.326.616-.593.856-.268.241-.603.43-1.007.567-.403.138-.88.207-1.432.207a4.4 4.4 0 0 1-.66-.052 6.89 6.89 0 0 1-1.155-.283 2.626 2.626 0 0 1-.321-.13l.222-1.043c.14.069.373.159.698.27.325.112.722.168 1.191.168zM2.968 14.9h10.976c.323 0 .586-.275.586-.616 0-.341-.263-.616-.586-.616H2.968c-.323 0-.586.275-.586.616 0 .341.263.616.586.616z"/></symbol><symbol viewBox="0 0 16 16" id="outdent" xmlns="http://www.w3.org/2000/svg"><path d="M.993 8l3.014-2.5v5L.993 8zm-.4-4.803a.596.596 0 0 1-.593-.6c0-.332.265-.6.593-.6h14.814c.328 0 .593.268.593.6 0 .331-.265.6-.593.6H.593zM.603 14A.601.601 0 0 1 0 13.4c0-.331.27-.6.603-.6h14.794c.333 0 .603.269.603.6 0 .331-.27.6-.603.6H.603zm7.565-5.803a.6.6 0 1 1 0-1.2H15.4a.6.6 0 0 1 0 1.2H8.168z"/></symbol><symbol viewBox="0 0 16 16" id="pause-circle-fill" xmlns="http://www.w3.org/2000/svg"><path d="M0 8c0-4.4 3.6-8 8-8s8 3.6 8 8-3.6 8-8 8-8-3.6-8-8zm5.6-3.2v6.4h1.6V4.8H5.6zm3.2 0v6.4h1.6V4.8H8.8z"/></symbol><symbol viewBox="0 0 16 16" id="pipeline" xmlns="http://www.w3.org/2000/svg"><path d="M13.24 6.82V4.09a.326.326 0 0 0-.327-.327H6.149v-.01a2.674 2.674 0 0 1-2.437 1.57 2.667 2.667 0 0 1-2.673-2.661A2.667 2.667 0 0 1 3.712 0c1.27 0 2.336.885 2.606 2.071h6.595c1.114 0 2.018.904 2.018 2.018v2.746a2.018 2.018 0 0 1-2.018 2.018H3.018a.326.326 0 0 0-.326.326v2.732c0 .18.146.326.326.326h6.763v.01a2.674 2.674 0 0 1 2.438-1.57 2.667 2.667 0 0 1 2.673 2.661A2.667 2.667 0 0 1 12.219 16a2.671 2.671 0 0 1-2.606-2.071H3.018A2.018 2.018 0 0 1 1 11.91V9.165c0-1.114.904-2.018 2.018-2.018h9.895c.18 0 .326-.146.326-.326zM3.711 3.633c.542 0 .98-.436.98-.97a.976.976 0 0 0-.98-.97.976.976 0 0 0-.981.97c0 .534.438.97.98.97zm8.507 8.736a.976.976 0 0 0-.98.97c0 .535.437.97.98.97.543 0 .981-.435.981-.97a.976.976 0 0 0-.98-.97z"/></symbol><symbol viewBox="0 0 16 16" id="pipeline-add-bold" xmlns="http://www.w3.org/2000/svg"><path d="M6.914 4.311a3.07 3.07 0 0 1-2.8 1.803 3.063 3.063 0 0 1-3.07-3.057A3.063 3.063 0 0 1 4.115 0a3.068 3.068 0 0 1 2.994 2.38h6.574A2.318 2.318 0 0 1 16 4.696V7.85a2.318 2.318 0 0 1-2.318 2.318H2.317a.375.375 0 0 0-.374.375v3.152c0 .207.168.375.375.375h5.596v1.943H2.318A2.318 2.318 0 0 1 0 13.695v-3.152a2.318 2.318 0 0 1 2.318-2.318h11.364a.375.375 0 0 0 .375-.375V4.697a.375.375 0 0 0-.375-.375H6.914v-.01zm4.137 8.243v-1.457h1.943v1.457h1.457v1.943h-1.457v1.457H11.05v-1.457H9.594v-1.943h1.457zM4.114 4.171c.624 0 1.127-.5 1.127-1.114a1.12 1.12 0 0 0-1.127-1.114c-.623 0-1.126.5-1.126 1.114a1.12 1.12 0 0 0 1.126 1.114z"/></symbol><symbol viewBox="0 0 16 16" id="play-circle" xmlns="http://www.w3.org/2000/svg"><path d="M8 16A8 8 0 1 1 8 0a8 8 0 0 1 0 16zm0-1.2A6.8 6.8 0 1 0 8 1.2a6.8 6.8 0 0 0 0 13.6zm.005-3.753a1.1 1.1 0 0 1-1.76-.88v-4a1.1 1.1 0 0 1 1.76-.88l2.667 2a1.1 1.1 0 0 1 0 1.76l-2.667 2zm-.56-4.68v3.6l2.4-1.8-2.4-1.8z"/></symbol><symbol viewBox="0 0 16 16" id="plus" xmlns="http://www.w3.org/2000/svg"><path d="M7.8 7.4V2H9v5.4h5.4v1.2H9V14H7.8V8.6H2.4V7.4h5.4z"/></symbol><symbol viewBox="0 0 16 16" id="plus-bold" xmlns="http://www.w3.org/2000/svg"><path d="M7 7V3h2v4h4v2H9v4H7V9H3V7h4z"/></symbol><symbol viewBox="0 0 16 16" id="plus-square" xmlns="http://www.w3.org/2000/svg"><path d="M3 1h10a2 2 0 0 1 2 2v10a2 2 0 0 1-2 2H3a2 2 0 0 1-2-2V3a2 2 0 0 1 2-2zm0 1.2a.8.8 0 0 0-.8.8v10a.8.8 0 0 0 .8.8h10a.8.8 0 0 0 .8-.8V3a.8.8 0 0 0-.8-.8H3zm4.45 5.2V4.75h1.2V7.4h2.65v1.2H8.65v2.65h-1.2V8.6H4.8V7.4h2.65z"/></symbol><symbol viewBox="0 0 16 16" id="question-circle-fill" xmlns="http://www.w3.org/2000/svg"><path d="M0 8c0-4.4 3.6-8 8-8s8 3.6 8 8-3.6 8-8 8-8-3.6-8-8zm7.44 4.08h1.28V10.8H7.44v1.28zM8.288 4c-.829 0-1.478.235-1.96.706-.493.47-.728 1.12-.728 1.948h1.277c0-.47.09-.84.28-1.097.213-.314.56-.46 1.053-.46.38 0 .683.101.896.314.201.213.313.504.313.874 0 .28-.1.549-.302.795l-.135.157c-.728.65-1.164 1.12-1.31 1.422-.157.303-.224.672-.224 1.098v.157h1.288v-.157c0-.269.056-.504.168-.728.1-.202.246-.392.448-.56.538-.47.862-.773.963-.885.269-.358.415-.818.415-1.378 0-.683-.224-1.22-.672-1.612C9.61 4.19 9.016 4 8.288 4z"/></symbol><symbol viewBox="0 0 16 16" id="records" xmlns="http://www.w3.org/2000/svg"><path d="M5.008 1H14a1 1 0 0 1 1 1v12a1 1 0 0 1-1 1H2a1 1 0 0 1-1-1V5.039L5.008 1zm.5 1.2L2.2 5.533V13.8h11.6V2.2H5.508zm-.908 4a.6.6 0 1 1 0-1.2h.746a.6.6 0 0 1 0 1.2H4.6zm3.999 0a.6.6 0 1 1 0-1.2h2.737a.6.6 0 0 1 0 1.2H8.599zM4.6 9.2a.6.6 0 1 1 0-1.2h.746a.6.6 0 0 1 0 1.2H4.6zm3.999 0a.6.6 0 1 1 0-1.2h2.737a.6.6 0 0 1 0 1.2H8.599zM4.6 12a.6.6 0 0 1 0-1.2h.746a.6.6 0 0 1 0 1.2H4.6zm3.999 0a.6.6 0 0 1 0-1.2h2.737a.6.6 0 0 1 0 1.2H8.599z"/></symbol><symbol viewBox="0 0 16 16" id="redo" xmlns="http://www.w3.org/2000/svg"><path d="M14.183 7H16l-2.5 3.288L10.665 7h2.314a5.9 5.9 0 1 0-5.878 6.4 5.38 5.38 0 0 0 1.064-.105L8.4 14.47c-.428.086-.864.13-1.301.129A7.1 7.1 0 1 1 14.183 7z"/></symbol><symbol viewBox="0 0 16 16" id="repository" xmlns="http://www.w3.org/2000/svg"><path d="M13.8 6.255L7.956 2.23 2.2 6.236v8.245a.6.6 0 0 1-1.2 0v-7.41l-.06.042a.6.6 0 1 1-.685-.985l7.356-5.12a.6.6 0 0 1 .684-.002l7.434 5.12a.6.6 0 1 1-.68.989L15 7.08v7.4a.6.6 0 0 1-1.2 0V6.255zm-8.3 2.36a.6.6 0 1 1 0-1.2h5a.6.6 0 0 1 0 1.2h-5zm0 3a.6.6 0 0 1 0-1.2h5a.6.6 0 0 1 0 1.2h-5zm0 3a.6.6 0 0 1 0-1.2h5a.6.6 0 0 1 0 1.2h-5z"/></symbol><symbol viewBox="0 0 16 16" id="scrum-fill" xmlns="http://www.w3.org/2000/svg"><path d="M7.225 1.472a.956.956 0 0 1 1.65 0l2.719 4.67c.367.63-.093 1.417-.825 1.417H5.33a.944.944 0 0 1-.824-1.416l2.719-4.67zm4.147 7.03a.956.956 0 0 1 1.65 0l2.719 4.67c.367.63-.092 1.416-.825 1.416H9.477a.944.944 0 0 1-.824-1.416l2.719-4.67zm-8.324-.03a.956.956 0 0 1 1.65 0l2.72 4.671c.366.63-.093 1.416-.825 1.416h-5.44a.944.944 0 0 1-.824-1.416l2.72-4.67z"/></symbol><symbol viewBox="0 0 16 16" id="search" xmlns="http://www.w3.org/2000/svg"><path d="M11.507 12.356a7 7 0 1 1 .849-.849l3.568 3.569-.848.848-3.569-3.568zM7 12.8A5.8 5.8 0 1 0 7 1.2a5.8 5.8 0 0 0 0 11.6z"/></symbol><symbol viewBox="0 0 16 16" id="settings" xmlns="http://www.w3.org/2000/svg"><path d="M15.851 7.427a1.2 1.2 0 0 1 0 1.146l-3.297 6.062a1.2 1.2 0 0 1-1.054.627h-7a1.2 1.2 0 0 1-1.054-.627L.149 8.573a1.2 1.2 0 0 1 0-1.146l3.297-6.062A1.2 1.2 0 0 1 4.5.738h7c.44 0 .844.24 1.054.627l3.297 6.062zM14.797 8L11.5 1.938h-7L1.204 8 4.5 14.062h7L14.797 8zM8 11a3 3 0 1 1 0-6 3 3 0 0 1 0 6zm0-1.2a1.8 1.8 0 1 0 0-3.6 1.8 1.8 0 0 0 0 3.6z"/></symbol><symbol viewBox="0 0 16 16" id="settings-fill" xmlns="http://www.w3.org/2000/svg"><path d="M15.851 7.427a1.2 1.2 0 0 1 0 1.146l-3.297 6.062a1.2 1.2 0 0 1-1.054.627h-7a1.2 1.2 0 0 1-1.054-.627L.149 8.573a1.2 1.2 0 0 1 0-1.146l3.297-6.062A1.2 1.2 0 0 1 4.5.738h7c.44 0 .844.24 1.054.627l3.297 6.062zM8 11a3 3 0 1 0 0-6 3 3 0 0 0 0 6z"/></symbol><symbol viewBox="0 0 16 16" id="sitemap" xmlns="http://www.w3.org/2000/svg"><path d="M14.395 11.08h1.479v3.992h-4.158V11.08h1.479V6.944h1.2v4.134zM7.353 6.925V4.992H5.937V1h4.158v3.992H8.553v1.934h5.842v1.2H8.553v2.933h1.542v3.993H5.937v-3.993h1.416V8.126H2.679v2.933h1.479v3.993H0v-3.993h1.479V6.926H7.353zm-.216-4.727v1.594h1.758V2.199H7.137zM1.2 12.26v1.592h1.758v-1.593H1.2zm11.716.02v1.594h1.758V12.28h-1.758zm-5.779-.02v1.592h1.758v-1.593H7.137z"/></symbol><symbol viewBox="0 0 16 16" id="size" xmlns="http://www.w3.org/2000/svg"><path d="M8.029 9.4h-4.81L1.2 15H0L5.024 1.066 5 1h1.248l-.024.066L11.248 15h-1.2l-2.02-5.6zm-.433-1.2L5.624 2.73 3.652 8.2h3.944zM13.5 4L16 7.013h-5L13.5 4zm0 8.013L11 9h5l-2.5 3.013z"/></symbol><symbol viewBox="0 0 16 16" id="size-decrease" xmlns="http://www.w3.org/2000/svg"><path d="M8.029 9.4h-4.81L1.2 15H0L5.024 1.066 5 1h1.248l-.024.066L11.248 15h-1.2l-2.02-5.6zm-.433-1.2L5.624 2.73 3.652 8.2h3.944zM10.6 5h3.8a.6.6 0 0 1 0 1.2h-3.8a.6.6 0 0 1 0-1.2z"/></symbol><symbol viewBox="0 0 16 16" id="size-increase" xmlns="http://www.w3.org/2000/svg"><path d="M11.9 5V3.7a.6.6 0 0 1 1.2 0V5h1.3a.6.6 0 0 1 0 1.2h-1.3v1.3a.6.6 0 0 1-1.2 0V6.2h-1.3a.6.6 0 0 1 0-1.2h1.3zM8.029 9.4h-4.81L1.2 15H0L5.024 1.066 5 1h1.248l-.024.066L11.248 15h-1.2l-2.02-5.6zm-.433-1.2L5.624 2.73 3.652 8.2h3.944z"/></symbol><symbol viewBox="0 0 16 16" id="smile" xmlns="http://www.w3.org/2000/svg"><path d="M8 16A8 8 0 1 1 8 0a8 8 0 0 1 0 16zm0-1.2A6.8 6.8 0 1 0 8 1.2a6.8 6.8 0 0 0 0 13.6zM5 8a1 1 0 1 1 0-2 1 1 0 0 1 0 2zm6.97 1.5a4 4 0 0 1-7.94 0h1.215a2.8 2.8 0 0 0 5.51 0h1.214zM11 8a1 1 0 1 1 0-2 1 1 0 0 1 0 2z"/></symbol><symbol viewBox="0 0 16 16" id="sort" xmlns="http://www.w3.org/2000/svg"><path d="M4.322.927A.6.6 0 0 1 5.1 1.5v12.99a.6.6 0 0 1-1.2 0V3.607L2.466 6.082a.6.6 0 1 1-1.04-.6l2.47-4.262a.599.599 0 0 1 .426-.293zm7.156 14.051a.6.6 0 0 1-.778-.573V1.6a.6.6 0 0 1 1.2 0v10.723l1.523-2.594a.6.6 0 0 1 1.04.6l-2.558 4.357a.599.599 0 0 1-.427.292z"/></symbol><symbol viewBox="0 0 16 16" id="spacing" xmlns="http://www.w3.org/2000/svg"><path d="M1.9 12.5v-2a.6.6 0 0 1 1.2 0v2H5l-2.5 3-2.5-3h1.9zm1.2-9v2a.6.6 0 1 1-1.2 0v-2H0l2.5-3 2.5 3H3.1zm4.495-.303a.596.596 0 0 1-.593-.6c0-.332.266-.6.593-.6h7.812c.328 0 .593.268.593.6 0 .331-.265.6-.593.6H7.595zM7.605 14a.601.601 0 0 1-.603-.6c0-.331.27-.6.603-.6h7.792c.333 0 .603.269.603.6 0 .331-.27.6-.603.6H7.605zm-.003-5.803a.6.6 0 1 1 0-1.2H15.4a.6.6 0 0 1 0 1.2H7.602z"/></symbol><symbol viewBox="0 0 16 16" id="speech" xmlns="http://www.w3.org/2000/svg"><path d="M8.6 13.477V14.8H12a.6.6 0 0 1 0 1.2H4a.6.6 0 0 1 0-1.2h3.4v-1.323C4.106 13.222 1.5 10.887 1.5 8a.5.5 0 0 1 1 0c0 2.463 2.444 4.5 5.5 4.5s5.5-2.037 5.5-4.5a.5.5 0 1 1 1 0c0 2.887-2.606 5.222-5.9 5.477zM8 .4A3.6 3.6 0 0 1 11.6 4v3a3.6 3.6 0 1 1-7.2 0V4A3.6 3.6 0 0 1 8 .4zm0 1.2A2.4 2.4 0 0 0 5.6 4v3a2.4 2.4 0 1 0 4.8 0V4A2.4 2.4 0 0 0 8 1.6z"/></symbol><symbol viewBox="0 0 16 16" id="strike" xmlns="http://www.w3.org/2000/svg"><path d="M6 8.6H.894V7.4H3.5c-.62-.67-1-1.565-1-2.55v-.1A3.75 3.75 0 0 1 6.25 1h3.5a3.75 3.75 0 0 1 3.742 3.5h-1.204A2.55 2.55 0 0 0 9.75 2.2h-3.5A2.55 2.55 0 0 0 3.7 4.75v.1A2.55 2.55 0 0 0 6.25 7.4h8.85v1.2h-2.6a3.75 3.75 0 0 1-2.75 6.3h-3.5A3.75 3.75 0 0 1 2.503 11h1.201a2.55 2.55 0 0 0 2.546 2.7h3.5a2.55 2.55 0 0 0 0-5.1h-3.5a2.58 2.58 0 0 0-.25.012V8.6z"/></symbol><symbol viewBox="0 0 16 16" id="subscript" xmlns="http://www.w3.org/2000/svg"><path d="M5.98 7.944l3.695 4.728a.6.6 0 0 1-.946.74L5.192 8.883l-3.68 4.386a.6.6 0 1 1-.92-.771l3.845-4.582L.849 3.325a.6.6 0 0 1 .945-.74l3.432 4.393L8.82 2.694a.6.6 0 0 1 .92.77l-3.76 4.48zm4.625 4.97c.001-.015.019-.178.03-.254.023-.154.057-.308.108-.468a3.19 3.19 0 0 1 .724-1.226 3.707 3.707 0 0 1 .373-.348 4.73 4.73 0 0 1 .688-.454c.682-.389.913-.555 1.327-1.028.466-.534.291-1.425-.47-1.716-.348-.134-.853-.072-1.274.172-.156.09-.294.222-.417.4a.6.6 0 0 1-.989-.679c.22-.321.49-.576.805-.759.72-.417 1.599-.525 2.305-.255a2.278 2.278 0 0 1 .943 3.627c-.522.598-.846.83-1.635 1.28-.252.144-.389.232-.53.345a2.309 2.309 0 0 0-.248.232c-.297.32-.416.542-.487.877h2.877a.6.6 0 0 1 0 1.2l-3.061-.002c-.642.057-1.165-.27-1.069-.944z"/></symbol><symbol viewBox="0 0 16 16" id="superscript" xmlns="http://www.w3.org/2000/svg"><path d="M5.98 9.944l3.695 4.728a.6.6 0 0 1-.946.74l-3.537-4.528-3.68 4.386a.6.6 0 1 1-.92-.771l3.845-4.582L.849 5.325a.6.6 0 0 1 .945-.74l3.432 4.393L8.82 4.694a.6.6 0 0 1 .92.77l-3.76 4.48zm4.625-2.03c.001-.015.019-.178.03-.254.023-.154.057-.308.108-.468a3.19 3.19 0 0 1 .724-1.226 3.707 3.707 0 0 1 .373-.348 4.73 4.73 0 0 1 .688-.454c.682-.389.913-.555 1.327-1.028.466-.534.291-1.425-.47-1.716-.348-.134-.853-.072-1.274.172-.156.09-.294.222-.417.4a.6.6 0 0 1-.989-.679c.22-.321.49-.576.805-.759.72-.417 1.599-.525 2.305-.255a2.278 2.278 0 0 1 .943 3.627c-.522.598-.846.83-1.635 1.28-.252.144-.389.232-.53.345a2.309 2.309 0 0 0-.248.232c-.297.32-.416.542-.487.877h2.877a.6.6 0 0 1 0 1.2l-3.061-.002c-.642.057-1.165-.27-1.069-.944z"/></symbol><symbol viewBox="0 0 16 16" id="table" xmlns="http://www.w3.org/2000/svg"><path d="M2 1h12a1 1 0 0 1 1 1v12a1 1 0 0 1-1 1H2a1 1 0 0 1-1-1V2a1 1 0 0 1 1-1zm.2 1.2v11.6h11.6V2.2H2.2zM4 4.5h3v1.2H4V4.5zm4 0h4v1.2H8V4.5zm-4 3h3v1.2H4V7.5zm4 0h4v1.2H8V7.5zm-4 3h3v1.2H4v-1.2zm4 0h4v1.2H8v-1.2z"/></symbol><symbol viewBox="0 0 16 16" id="table-border-all" xmlns="http://www.w3.org/2000/svg"><path d="M2.2 7.4h5.2V2.2H2.2v5.2zm0 1.2v5.2h5.2V8.6H2.2zm11.6-1.2V2.2H8.6v5.2h5.2zm0 1.2H8.6v5.2h5.2V8.6zM2 1h12a1 1 0 0 1 1 1v12a1 1 0 0 1-1 1H2a1 1 0 0 1-1-1V2a1 1 0 0 1 1-1z"/></symbol><symbol viewBox="0 0 16 16" id="table-border-bottom" xmlns="http://www.w3.org/2000/svg"><path d="M14 15H1v-1.2h14.2V15H14zm1.2-14v1.2H14V1h1.2zm0 3.25v1.2H14v-1.2h1.2zm0 3.25v1.2H14V7.5h1.2zm0 3.25v1.2H14v-1.2h1.2zM2.2 1v1.2H1V1h1.2zm0 3.25v1.2H1v-1.2h1.2zm0 3.25v1.2H1V7.5h1.2zm0 3.25v1.2H1v-1.2h1.2zM4.25 1h1.2v1.2h-1.2V1zM7.5 1h1.2v1.2H7.5V1zm3.25 0h1.2v1.2h-1.2V1zM7.5 10.75h1.2v1.2H7.5v-1.2zm0-3.25h1.2v1.2H7.5V7.5zm0-3.25h1.2v1.2H7.5v-1.2zM5.2 7.5v1.2H4V7.5h1.2zm6.75 0v1.2h-1.2V7.5h1.2z"/></symbol><symbol viewBox="0 0 16 16" id="table-border-left" xmlns="http://www.w3.org/2000/svg"><path d="M15.2 1v1.2H14V1h1.2zm0 3.25v1.2H14v-1.2h1.2zm0 3.25v1.2H14V7.5h1.2zm0 6.3V15H14v-1.2h1.2zm0-3.05v1.2H14v-1.2h1.2zM2.2 15H1V1h1.2v14zM4.25 1h1.2v1.2h-1.2V1zM7.5 1h1.2v1.2H7.5V1zm3.25 0h1.2v1.2h-1.2V1zm-6.5 12.8h1.2V15h-1.2v-1.2zm3.25 0h1.2V15H7.5v-1.2zm0-3.05h1.2v1.2H7.5v-1.2zm0-3.25h1.2v1.2H7.5V7.5zm0-3.25h1.2v1.2H7.5v-1.2zM5.2 7.5v1.2H4V7.5h1.2zm6.75 0v1.2h-1.2V7.5h1.2zm-1.2 6.3h1.2V15h-1.2v-1.2z"/></symbol><symbol viewBox="0 0 16 16" id="table-border-none" xmlns="http://www.w3.org/2000/svg"><path d="M15.2 1v1.2H14V1h1.2zm0 3.25v1.2H14v-1.2h1.2zm0 3.25v1.2H14V7.5h1.2zm0 6.3V15H14v-1.2h1.2zm0-3.05v1.2H14v-1.2h1.2zM2.2 1v1.2H1V1h1.2zm0 3.25v1.2H1v-1.2h1.2zm0 3.25v1.2H1V7.5h1.2zm0 6.3V15H1v-1.2h1.2zm0-3.05v1.2H1v-1.2h1.2zM4.25 1h1.2v1.2h-1.2V1zM7.5 1h1.2v1.2H7.5V1zm3.25 0h1.2v1.2h-1.2V1zm-6.5 12.8h1.2V15h-1.2v-1.2zm3.25 0h1.2V15H7.5v-1.2zm0-3.05h1.2v1.2H7.5v-1.2zm0-3.25h1.2v1.2H7.5V7.5zm0-3.25h1.2v1.2H7.5v-1.2zM5.2 7.5v1.2H4V7.5h1.2zm6.75 0v1.2h-1.2V7.5h1.2zm-1.2 6.3h1.2V15h-1.2v-1.2z"/></symbol><symbol viewBox="0 0 16 16" id="table-border-outside" xmlns="http://www.w3.org/2000/svg"><path d="M7.5 10.75h1.2v1.2H7.5v-1.2zm0-3.25h1.2v1.2H7.5V7.5zm0-3.25h1.2v1.2H7.5v-1.2zM5.2 7.5v1.2H4V7.5h1.2zm6.75 0v1.2h-1.2V7.5h1.2zM2 1h12a1 1 0 0 1 1 1v12a1 1 0 0 1-1 1H2a1 1 0 0 1-1-1V2a1 1 0 0 1 1-1zm.2 1.2v11.6h11.6V2.2H2.2z"/></symbol><symbol viewBox="0 0 16 16" id="table-border-right" xmlns="http://www.w3.org/2000/svg"><path d="M1 15v-1.2h1.2V15H1zm0-3.25v-1.2h1.2v1.2H1zM1 8.5V7.3h1.2v1.2H1zm0-6.3V1h1.2v1.2H1zm0 3.05v-1.2h1.2v1.2H1zM14 1h1.2v14H14V1zm-2.05 14h-1.2v-1.2h1.2V15zM8.7 15H7.5v-1.2h1.2V15zm-3.25 0h-1.2v-1.2h1.2V15zm6.5-12.8h-1.2V1h1.2v1.2zm-3.25 0H7.5V1h1.2v1.2zm0 3.05H7.5v-1.2h1.2v1.2zm0 3.25H7.5V7.3h1.2v1.2zm0 3.25H7.5v-1.2h1.2v1.2zM11 8.5V7.3h1.2v1.2H11zm-6.75 0V7.3h1.2v1.2h-1.2zm1.2-6.3h-1.2V1h1.2v1.2z"/></symbol><symbol viewBox="0 0 16 16" id="table-border-top" xmlns="http://www.w3.org/2000/svg"><path d="M2.2 1h13v1.2H1V1h1.2zM1 15v-1.2h1.2V15H1zm0-3.25v-1.2h1.2v1.2H1zM1 8.5V7.3h1.2v1.2H1zm0-3.25v-1.2h1.2v1.2H1zM14 15v-1.2h1.2V15H14zm0-3.25v-1.2h1.2v1.2H14zm0-3.25V7.3h1.2v1.2H14zm0-3.25v-1.2h1.2v1.2H14zM11.95 15h-1.2v-1.2h1.2V15zM8.7 15H7.5v-1.2h1.2V15zm-3.25 0h-1.2v-1.2h1.2V15zM8.7 5.25H7.5v-1.2h1.2v1.2zm0 3.25H7.5V7.3h1.2v1.2zm0 3.25H7.5v-1.2h1.2v1.2zM11 8.5V7.3h1.2v1.2H11zm-6.75 0V7.3h1.2v1.2h-1.2z"/></symbol><symbol viewBox="0 0 16 16" id="table-delete-cells" xmlns="http://www.w3.org/2000/svg"><g fill-rule="nonzero"><path d="M13.707 8l1.146-1.146a.5.5 0 1 0-.707-.707L13 7.293l-1.146-1.147a.5.5 0 0 0-.707.707L12.293 8l-1.147 1.146a.5.5 0 1 0 .707.707L13 8.707l1.146 1.146a.5.5 0 1 0 .707-.707L13.707 8zM6 10v3H2.179C1.393 12.872 1 12.472 1 11.8V10a1 1 0 0 1-1-1V6a1 1 0 0 1 1-1V3a1 1 0 0 1 1-1h4v2H4.8v-.8H2.2v3h-1v2.6h1v3h2.6V10H6z"/><path d="M9.8 10v3h-5v-3a1 1 0 0 1-1-1V6a1 1 0 0 1 1-1V3a1 1 0 0 1 1-1h4v2H8.6v-.8H6v3H5v2.6h1v3h2.6V10h1.2z"/><path d="M9.802 13H8.6v-3a1 1 0 0 1-1-1V6a1 1 0 0 1 1-1V3a1 1 0 0 1 1-1h.17m.03 1.2v1.832a1.19 1.19 0 0 1-.297.765c-.19.223-.425.357-.703.403v2.6c.36.028.627.131.8.311.173.18.24.445.2.794V11.8M1.6 15h2.81a.6.6 0 0 0 0-1.2H1.6a.6.6 0 0 0 0 1.2zM6.606 15h2.826a.6.6 0 0 0 0-1.2H6.606a.6.6 0 0 0 0 1.2z"/></g></symbol><symbol viewBox="0 0 16 16" id="table-delete-columns" xmlns="http://www.w3.org/2000/svg"><path d="M1.99 4.99h2a1 1 0 0 1 1 1v8a1 1 0 0 1-1 1h-2a1 1 0 0 1-1-1v-8a1 1 0 0 1 1-1zm.2 1.2v7.6h1.6v-7.6h-1.6zm9.8-1.2h2a1 1 0 0 1 1 1v8a1 1 0 0 1-1 1h-2a1 1 0 0 1-1-1v-8a1 1 0 0 1 1-1zm.2 8.8h1.6v-7.6h-1.6v7.6zM6.99.99h2a1 1 0 0 1 1 1v6a1 1 0 0 1-1 1h-2a1 1 0 0 1-1-1v-6a1 1 0 0 1 1-1zm.2 1.2v5.6h1.6v-5.6h-1.6zm1.557 10.603l1.218 1.345a.494.494 0 0 1-.09.742l-.042.028a.6.6 0 0 1-.78-.095l-1.095-1.21-1.133 1.166a.6.6 0 0 1-.782.068l-.04-.028a.49.49 0 0 1-.063-.74l1.263-1.3-1.112-1.228a.494.494 0 0 1 .09-.742l.042-.028a.6.6 0 0 1 .78.095l.989 1.092 1.047-1.077a.6.6 0 0 1 .782-.068l.04.029a.49.49 0 0 1 .064.74l-1.178 1.21z"/></symbol><symbol viewBox="0 0 16 16" id="table-delete-rows" xmlns="http://www.w3.org/2000/svg"><path d="M11 2v2a1 1 0 0 1-1 1H2a1 1 0 0 1-1-1V2a1 1 0 0 1 1-1h8a1 1 0 0 1 1 1zm-1.2.2H2.2v1.6h7.6V2.2zM11 12v2a1 1 0 0 1-1 1H2a1 1 0 0 1-1-1v-2a1 1 0 0 1 1-1h8a1 1 0 0 1 1 1zm-8.8.2v1.6h7.6v-1.6H2.2zM15 7v2a1 1 0 0 1-1 1H8a1 1 0 0 1-1-1V7a1 1 0 0 1 1-1h6a1 1 0 0 1 1 1zm-1.2.2H8.2v1.6h5.6V7.2zM3.197 8.757L1.85 9.975a.494.494 0 0 1-.741-.09l-.028-.041a.6.6 0 0 1 .094-.78l1.21-1.095L1.22 6.836a.6.6 0 0 1-.068-.782l.029-.04a.49.49 0 0 1 .74-.064L3.22 7.214 4.449 6.1a.494.494 0 0 1 .741.09l.028.042a.6.6 0 0 1-.094.78l-1.093.99L5.108 9.05a.6.6 0 0 1 .068.782l-.028.04a.49.49 0 0 1-.74.063L3.197 8.757z"/></symbol><symbol viewBox="0 0 16 16" id="table-insert-cells" xmlns="http://www.w3.org/2000/svg"><g fill-rule="nonzero"><path d="M3 6.9h2a.6.6 0 1 1 0 1.2H3V10L0 7.5 3 5v1.9zM13.405 15h-2.81a.6.6 0 0 1 0-1.2h2.81a.6.6 0 1 1 0 1.2zM8.4 15H5.574a.6.6 0 0 1 0-1.2H8.4a.6.6 0 0 1 0 1.2zM9 5V2h3.821c.786.128 1.179.528 1.179 1.2V5a1 1 0 0 1 1 1v3a1 1 0 0 1-1 1v2a1 1 0 0 1-1 1H9v-2h1.2v.8h2.6v-3h1V6.2h-1v-3h-2.6V5H9z"/><path d="M5.2 5V2h5v3a1 1 0 0 1 1 1v3a1 1 0 0 1-1 1v2a1 1 0 0 1-1 1h-4v-2h1.2v.8H9v-3h1V6.2H9v-3H6.4V5H5.2z"/><path d="M5.198 2H6.4v3a1 1 0 0 1 1 1v3a1 1 0 0 1-1 1v2a1 1 0 0 1-1 1h-.17m-.03-1.2V9.968a1.19 1.19 0 0 1 .297-.765c.19-.223.425-.357.703-.403V6.2c-.36-.028-.627-.131-.8-.311-.173-.18-.24-.445-.2-.794V3.2"/></g></symbol><symbol viewBox="0 0 16 16" id="table-insert-columns" xmlns="http://www.w3.org/2000/svg"><path d="M14 11h-2a1 1 0 0 1-1-1V2a1 1 0 0 1 1-1h2a1 1 0 0 1 1 1v8a1 1 0 0 1-1 1zm-.2-1.2V2.2h-1.6v7.6h1.6zM4 11H2a1 1 0 0 1-1-1V2a1 1 0 0 1 1-1h2a1 1 0 0 1 1 1v8a1 1 0 0 1-1 1zm-.2-8.8H2.2v7.6h1.6V2.2zM9 15H7a1 1 0 0 1-1-1V8a1 1 0 0 1 1-1h2a1 1 0 0 1 1 1v6a1 1 0 0 1-1 1zm-.2-1.2V8.2H7.2v5.6h1.6zM8.6 4v2a.6.6 0 1 1-1.2 0V4H5.5L8 1l2.5 3H8.6z"/></symbol><symbol viewBox="0 0 16 16" id="table-insert-rows" xmlns="http://www.w3.org/2000/svg"><g fill-rule="nonzero"><path d="M11 2v2a1 1 0 0 1-1 1H2a1 1 0 0 1-1-1V2a1 1 0 0 1 1-1h8a1 1 0 0 1 1 1zm-1.2.2H2.2v1.6h7.6V2.2zM11 12v2a1 1 0 0 1-1 1H2a1 1 0 0 1-1-1v-2a1 1 0 0 1 1-1h8a1 1 0 0 1 1 1zm-8.8.2v1.6h7.6v-1.6H2.2zM15 7v2a1 1 0 0 1-1 1H8a1 1 0 0 1-1-1V7a1 1 0 0 1 1-1h6a1 1 0 0 1 1 1zm-1.2.2H8.2v1.6h5.6V7.2zM.993 8l3.014-2.5v5z"/></g></symbol><symbol viewBox="0 0 16 16" id="table-merge-cells" xmlns="http://www.w3.org/2000/svg"><path d="M8.6 2.2v3.2h5.2V2.2H8.6zm-1.2 0H2.2v3.2h5.2V2.2zm1.2 11.6h5.2v-3.2H8.6v3.2zm-1.2 0v-3.2H2.2v3.2h5.2zm0-7.2H2.2v2.8h5.2V6.6zm1.2 0v2.8h5.2V6.6H8.6zM2 1h12a1 1 0 0 1 1 1v12a1 1 0 0 1-1 1H2a1 1 0 0 1-1-1V2a1 1 0 0 1 1-1z"/></symbol><symbol viewBox="0 0 16 16" id="table-unmerge-cells" xmlns="http://www.w3.org/2000/svg"><path d="M5.4 6.6v2.8h2V6.6h-2zm-1.2 0h-2v2.8h2V6.6zm6.4 0h-2v2.8h2V6.6zm1.2 0v2.8h2V6.6h-2zM8.6 2.2v3.2h5.2V2.2H8.6zm-1.2 0H2.2v3.2h5.2V2.2zm1.2 11.6h5.2v-3.2H8.6v3.2zm-1.2 0v-3.2H2.2v3.2h5.2zM2 1h12a1 1 0 0 1 1 1v12a1 1 0 0 1-1 1H2a1 1 0 0 1-1-1V2a1 1 0 0 1 1-1z"/></symbol><symbol viewBox="0 0 16 16" id="tag" xmlns="http://www.w3.org/2000/svg"><path d="M1.089 6.86L2.664.115l6.754 1.54a2 2 0 0 1 1.25.89l4.08 6.528a2 2 0 0 1-.637 2.756l-5.936 3.709a2 2 0 0 1-2.756-.636L1.34 8.375A2 2 0 0 1 1.09 6.86zm1.168.273a.8.8 0 0 0 .1.606l4.08 6.527a.8.8 0 0 0 1.102.254l5.936-3.709a.8.8 0 0 0 .255-1.102L9.65 3.18a.8.8 0 0 0-.5-.356L3.56 1.55 2.257 7.133zm4.232-.898a1 1 0 1 1-1.06-1.696 1 1 0 0 1 1.06 1.696z"/></symbol><symbol viewBox="0 0 16 16" id="tag-fill" xmlns="http://www.w3.org/2000/svg"><path d="M1.089 6.86L2.664.115l6.754 1.54a2 2 0 0 1 1.25.89l4.08 6.528a2 2 0 0 1-.637 2.756l-5.936 3.709a2 2 0 0 1-2.756-.636L1.34 8.375A2 2 0 0 1 1.09 6.86zm6.141.634a2 2 0 1 0-2.12-3.392 2 2 0 0 0 2.12 3.392z"/></symbol><symbol viewBox="0 0 16 16" id="task" xmlns="http://www.w3.org/2000/svg"><path d="M7.3 10.401a.598.598 0 0 1-.508-.212L5.135 8.065a.6.6 0 1 1 .92-.77l1.273 1.632L10.3 6.204a.599.599 0 1 1 .788.904l-3.432 3.148a.6.6 0 0 1-.356.145zm7.68 1.302l-3.79 3.26h-.245l-7.65-.003c-1.242 0-2.285-1.054-2.285-2.3l-.005-9.458C1.182 1.937 2.118.992 3.41.992l9.274.004c1.241 0 2.286 1.053 2.286 2.3l.01 8.407zm-1.331-8.407c0-.52-.456-.98-.967-.98L3.41 2.313c-.587 0-1.005.422-1.09.98l.01 9.367c0 .52.456.98.966.98l7.405.003 2.96-2.545-.011-7.802z"/></symbol><symbol viewBox="0 0 16 16" id="task-fill" xmlns="http://www.w3.org/2000/svg"><path d="M12.128 10.453V5.107c0-.56-.479-1.037-1.038-1.037H4.947c-.639 0-1.038.478-1.117 1.037v6.144c0 .558.478 1.037 1.037 1.037h5.107l2.154-1.835zM12.766 0a3.2 3.2 0 0 1 3.192 3.192v9.574a3.202 3.202 0 0 1-3.192 3.193H3.191a3.202 3.202 0 0 1-3.19-3.193V3.192A3.2 3.2 0 0 1 3.19 0h9.575zm-2.553 7.022c.16.16.08.399-.08.638L7.98 9.495c-.08.08-.16.08-.24.08-.159 0-.239-.08-.319-.16L6.144 7.9a.386.386 0 0 1 0-.56.386.386 0 0 1 .558 0L7.74 8.539l1.915-1.596c.16-.08.4-.08.56.08z"/></symbol><symbol viewBox="0 0 16 16" id="test" xmlns="http://www.w3.org/2000/svg"><path d="M9.756 7.72a2.5 2.5 0 1 1-1.034-.615l3.396-4.945a.6.6 0 1 1 .99.68L9.755 7.72zm4.711 6.039a.6.6 0 1 1-.966-.712 6.778 6.778 0 0 0 1.323-4.035c0-.992-.212-1.953-.616-2.834a.6.6 0 1 1 1.091-.5 7.984 7.984 0 0 1 .725 3.334 7.978 7.978 0 0 1-1.557 4.747zM9.494 1.137a.6.6 0 1 1-.22 1.18 6.853 6.853 0 0 0-4.604.758A6.809 6.809 0 0 0 1.2 9.012c0 1.437.446 2.806 1.262 3.951a.6.6 0 1 1-.976.697A7.977 7.977 0 0 1 0 9.012a8.008 8.008 0 0 1 9.494-7.875zM8 10.8a1.3 1.3 0 1 0 0-2.6 1.3 1.3 0 0 0 0 2.6z"/></symbol><symbol viewBox="0 0 16 16" id="test-case" xmlns="http://www.w3.org/2000/svg"><path d="M3 0h6.957v5H15v9a2 2 0 0 1-2 2H3a2 2 0 0 1-2-2V2a2 2 0 0 1 2-2zm7.6 11.48h-4a.4.4 0 0 1-.4-.4V8.4c0-.22.18-.4.4-.4h4V6.8h-4A1.6 1.6 0 0 0 5 8.4v2.68a1.6 1.6 0 0 0 1.6 1.6h4v-1.2zM11.2 0L15 3.8h-3.8V0z"/></symbol><symbol viewBox="0 0 16 16" id="test-case-fill" xmlns="http://www.w3.org/2000/svg"><path d="M12.767 0a3.202 3.202 0 0 1 3.192 3.192v9.575a3.201 3.201 0 0 1-3.192 3.19H3.192A3.2 3.2 0 0 1 0 12.768V3.192A3.202 3.202 0 0 1 3.192 0h9.575zM5.14 3C4.51 3 4 3.51 4 4.14v7.72c0 .63.51 1.14 1.14 1.14h5.72c.63 0 1.14-.51 1.14-1.14V6.125H9.119V3H5.14zm4.346 7.175v.75H7.2c-.505 0-.914-.447-.914-1V8.25c0-.552.41-1 .914-1h2.286V8H7.2c-.126 0-.229.112-.229.25v1.675c0 .138.103.25.229.25h2.286zM9.829 3v2.375H12L9.829 3z"/></symbol><symbol viewBox="0 0 16 16" id="test-case-type-bold" xmlns="http://www.w3.org/2000/svg"><path d="M10.607 6.063V3.5L8.143 2.077 5.678 3.5v2.77l2.286 1.319 2.643-1.526zM9 9.583v2.562l2.464 1.423 2.464-1.423V9.3l-2.22-1.281L9 9.582zm3.607-3.355l2.571 1.484a1.5 1.5 0 0 1 .75 1.3v3.422a1.5 1.5 0 0 1-.75 1.299l-2.964 1.711a1.5 1.5 0 0 1-1.5 0l-2.75-1.587-2.75 1.587a1.5 1.5 0 0 1-1.5 0L.75 13.733A1.5 1.5 0 0 1 0 12.434V9.011a1.5 1.5 0 0 1 .75-1.299l2.928-1.69v-2.81a1.5 1.5 0 0 1 .75-1.3L7.393.201a1.5 1.5 0 0 1 1.5 0l2.964 1.711a1.5 1.5 0 0 1 .75 1.3v3.016zM6.928 9.376l-2.5-1.443a1.506 1.506 0 0 1-.03-.018L2 9.3v2.845l2.464 1.423 2.464-1.423V9.376z"/></symbol><symbol viewBox="0 0 16 16" id="test-lib" xmlns="http://www.w3.org/2000/svg"><g fill-rule="evenodd"><path d="M1.55 3.71L7.05.74a2 2 0 0 1 1.9 0l5.5 2.97a2 2 0 0 1 1.05 1.76v7.038a3 3 0 0 1-3 3h-9a3 3 0 0 1-3-3V5.47a2 2 0 0 1 1.05-1.76zm2.788 4.898h7.476v-1.2H4.338v1.2zm0 3h7.476v-1.2H4.338v1.2z"/></g></symbol><symbol viewBox="0 0 16 16" id="test-lib-add-bold" xmlns="http://www.w3.org/2000/svg"><path d="M16 8.532h-2v-3.35L8 2 2 5.182v7.804c0 .488.498 1 1 1h5v2H3c-1.66 0-3-1.463-3-3V5.182a2 2 0 0 1 1.074-1.773l6-3.181a2 2 0 0 1 1.852 0l6 3.181A2 2 0 0 1 16 5.182v3.35zm-3.5 3.97v-1.5h2v1.5H16v2h-1.5v1.5h-2v-1.5H11v-2h1.5zm-8.125-3.97v-2H11v2H4.375zm0 3.555v-2h3.38v2h-3.38z"/></symbol><symbol viewBox="0 0 16 16" id="thumb-up" xmlns="http://www.w3.org/2000/svg"><path d="M15.982 8.824l-.001.006-1.195 4.579c-.259 1.165-1.294 1.97-2.487 1.97H5.1v-9l.022-.162 1.182-4.206C6.45.711 7.841-.097 9.222.321 9.98.622 10.5 1.465 10.5 2.378v3.3c0 .068.032.1.1.1h3a2.44 2.44 0 0 1 2.382 3.046zM13.6 6.978h-3c-.73 0-1.299-.57-1.299-1.3v-3.3c0-.44-.24-.83-.473-.925-.644-.194-1.272.17-1.349.786L6.3 6.46v7.717h6c.637 0 1.18-.421 1.32-1.051l1.199-4.597a1.241 1.241 0 0 0-1.22-1.552zm-13.629.8c0-1.131.869-2 2-2h2v9.6h-2c-1.131 0-2-.869-2-2v-5.6zm2.8 6.4v-7.2h-.8c-.469 0-.8.331-.8.8v5.6c0 .469.331.8.8.8h.8z"/></symbol><symbol viewBox="0 0 16 16" id="trash" xmlns="http://www.w3.org/2000/svg"><path d="M4.002 3.403V1a1 1 0 0 1 1-1h6.003a1 1 0 0 1 1 1v2.403h3.396a.6.6 0 1 1 0 1.2h-1.395V15a1 1 0 0 1-1 1H3a1 1 0 0 1-1-1V4.603H.6a.6.6 0 1 1 0-1.2h3.4zm8.804 1.205H3.2V14.8h9.605V4.608zM5.202 1.2v2.155h5.603V1.2H5.202zm.6 6.417a.6.6 0 0 1 1.201 0v4.758a.6.6 0 0 1-1.2 0V7.617zm3.202 0a.6.6 0 0 1 1.2 0v4.758a.6.6 0 0 1-1.2 0V7.617z"/></symbol><symbol viewBox="0 0 16 16" id="trend" xmlns="http://www.w3.org/2000/svg"><path d="M1.9 10.5a.6.6 0 0 1 1.2 0v4a.6.6 0 0 1-1.2 0v-4zm4-3.5a.6.6 0 1 1 1.2 0v7.5a.6.6 0 0 1-1.2 0V7zm8 0a.6.6 0 0 1 1.2 0v7.5a.6.6 0 0 1-1.2 0V7zm-4 3.5a.6.6 0 0 1 1.2 0v4a.6.6 0 0 1-1.2 0v-4zM5.568 2.55l-3.58 3.858a.6.6 0 1 1-.88-.816l3.997-4.308a.6.6 0 0 1 .857-.023l4.03 3.896 4.082-4.117a.6.6 0 1 1 .852.845l-4.5 4.537a.6.6 0 0 1-.843.01L5.568 2.55z"/></symbol><symbol viewBox="0 0 16 16" id="underline" xmlns="http://www.w3.org/2000/svg"><path d="M13 1v7A5 5 0 0 1 3 8V1h1.2v7a3.8 3.8 0 0 0 7.6 0V1H13zM3 13.8h10V15H3v-1.2z"/></symbol><symbol viewBox="0 0 16 16" id="undo" xmlns="http://www.w3.org/2000/svg"><path d="M1.817 7H0l2.5 3.288L5.335 7H3.02a5.9 5.9 0 1 1 5.878 6.4 5.38 5.38 0 0 1-1.064-.105L7.6 14.47c.428.086.864.13 1.301.129A7.1 7.1 0 1 0 1.817 7z"/></symbol><symbol viewBox="0 0 16 16" id="upload" xmlns="http://www.w3.org/2000/svg"><path d="M16 8.99v6a1 1 0 0 1-1 1H1a1 1 0 0 1-1-1v-6h1.2v5.8h13.6v-5.8H16zM8.614 3.36v8.934h-1.2v-9.06L4.697 5.95l-.88.817L3 5.95 7.95 1l4.95 4.95-.847.846-1.16-1.164-.005.004L8.614 3.36z"/></symbol><symbol viewBox="0 0 16 16" id="user-add" xmlns="http://www.w3.org/2000/svg"><path d="M13.1 11.9h1.4a.6.6 0 0 1 0 1.2h-1.4v1.4a.6.6 0 0 1-1.2 0v-1.4h-1.4a.6.6 0 0 1 0-1.2h1.4v-1.4a.6.6 0 0 1 1.2 0v1.4zM8.294 9.023A.597.597 0 0 1 8 9.1a5.4 5.4 0 0 0-5.4 5.4.6.6 0 0 1-1.2 0 6.601 6.601 0 0 1 3.914-6.03 4.1 4.1 0 1 1 2.98.554zM7.5 7.9a2.9 2.9 0 1 0 0-5.8 2.9 2.9 0 0 0 0 5.8z"/></symbol><symbol viewBox="0 0 16 16" id="user-add-bold" xmlns="http://www.w3.org/2000/svg"><path d="M8.427 8.904A.996.996 0 0 1 8 9a6 6 0 0 0-6 6 1 1 0 0 1-2 0 8 8 0 0 1 4.464-7.178 4.5 4.5 0 1 1 3.963 1.083zM7.5 7a2.5 2.5 0 1 0 0-5 2.5 2.5 0 0 0 0 5zm3.996 4.996V11a1 1 0 0 1 2 0v.996h.996a1 1 0 1 1 0 2h-.996v.996a1 1 0 1 1-2 0v-.996H10.5a1 1 0 1 1 0-2h.996z"/></symbol><symbol viewBox="0 0 16 16" id="user-check-fill" xmlns="http://www.w3.org/2000/svg"><path d="M10.629 5c0 1.486-.572 2.857-1.372 3.543-.228.343-.343.8-.343 1.257 0 .343.343.8 1.029 1.143V15.4H.57C.23 15.4 0 15.17 0 14.829c0-.8.114-1.372.343-1.6.686-.686 1.943-1.258 3.2-1.715 1.257-.457 1.943-1.143 1.943-1.6 0-.343-.115-.914-.343-1.371-.8-.8-1.257-2.057-1.257-3.543 0-2.629 1.143-4 3.314-4 2.171 0 3.429 1.371 3.429 4zm4.457 5.943l.914.8v.343l-2.4 2.4-.914.914h-.114l-.914-.914-1.029-1.029v-.114l.914-.914h.115l.914.914 2.4-2.4h.114z"/></symbol><symbol viewBox="0 0 16 16" id="user-group" xmlns="http://www.w3.org/2000/svg"><path d="M8.2 8.85a5.602 5.602 0 0 1 3.399 5.04.6.6 0 1 1-1.19.11H10.4a4.4 4.4 0 0 0-8.8-.06l.003.06a.6.6 0 0 1-1.2 0H.4c0-2.311 1.4-4.296 3.4-5.15a3.6 3.6 0 1 1 4.402 0zM6 8.4a2.4 2.4 0 1 0 0-4.8 2.4 2.4 0 0 0 0 4.8zm4.5 1.2V8.4a1.9 1.9 0 0 0 0-3.8V3.4a3.1 3.1 0 0 1 2.048 5.428A5.104 5.104 0 0 1 15.576 13h-.016a.6.6 0 1 1-1.198-.048A3.9 3.9 0 0 0 10.5 9.6zM6.632 13H5.424h1.208z"/></symbol><symbol viewBox="0 0 16 16" id="user-group-fill" xmlns="http://www.w3.org/2000/svg"><path d="M15.7 12.3c.2.2.3.6.3 1.2 0 .3-.2.5-.5.5h-1.6v-.3c0-.7-.2-1.1-.4-1.3-.5-.5-1.4-1-2.4-1.3-1-.4-1.5-.9-1.5-1.2 0-.3.1-.7.3-1 .4-.7.9-1.6.9-2.7 0-1.5-.3-2.6-1.3-2.9.3-.2.4-.2.9-.2 1.7 0 2.6 1 2.6 3 0 1.1-.3 2.1-.9 2.7-.2.3-.3.8-.3 1 0 .3.5.9 1.5 1.2 1 .3 1.9.8 2.4 1.3zm-6.2-.4c1.1.4 2.3 1 2.7 1.5.2.3.3.9.3 1.4 0 .3-.2.5-.5.5H.5c-.3 0-.5-.2-.5-.5 0-.7.1-1.2.4-1.4.5-.6 1.6-1.1 2.7-1.5 1.1-.3 1.7-1 1.7-1.3 0-.3-.2-.8-.3-1.1-.7-.7-1.1-1.8-1.1-3.1C3.4 4.2 4.5 3 6.3 3c1.8 0 2.9 1.1 2.9 3.4 0 1.3-.4 2.4-1.1 3.1-.2.3-.3.7-.3 1.1 0 .3.6.9 1.7 1.3z"/></symbol><symbol viewBox="0 0 16 16" id="user-lock-fill" xmlns="http://www.w3.org/2000/svg"><path d="M10.547 10.731v-.574c0-1.073.87-1.943 1.942-1.943h.778c1.072 0 1.942.87 1.942 1.943v.574h.502c.165 0 .289.124.289.33v3.466c0 .206-.165.33-.33.33H10.1a.325.325 0 0 1-.33-.33V11.06c0-.206.165-.33.33-.33h.447zm.777 0h3.108v-.574c0-.644-.522-1.166-1.165-1.166h-.778c-.643 0-1.165.522-1.165 1.166v.574zM9.387 5.533c0 1.312-.505 2.523-1.211 3.129-.202.303-.303.706-.303 1.11 0 .303.303.707.908 1.01v3.936H.505c-.303 0-.505-.202-.505-.505 0-.706.1-1.21.303-1.413.605-.605 1.716-1.11 2.826-1.514 1.11-.404 1.716-1.01 1.716-1.413 0-.303-.101-.807-.303-1.211-.706-.707-1.11-1.817-1.11-3.13C3.432 3.213 4.442 2 6.359 2c1.918 0 3.028 1.211 3.028 3.533z"/></symbol><symbol viewBox="0 0 16 16" id="user-participate-fill" xmlns="http://www.w3.org/2000/svg"><path d="M10 1.004c2.042.083 3.114 1.45 3.114 3.996 0 1.486-.457 2.743-1.257 3.543-.228.457-.343 1.028-.343 1.371 0 .457.686 1.143 1.943 1.6 1.257.457 1.514 1.029 2.2 1.715.229.228.343.8.343 1.6 0 .342-.229.57-.571.57H4.37c-.342 0-.571-.228-.571-.57 0-.8.114-1.372.343-1.6.686-.686.943-1.258 2.2-1.715 1.257-.457 1.943-1.143 1.943-1.6 0-.343-.115-.914-.343-1.371-.8-.8-1.257-2.057-1.257-3.543 0-2.547 1.072-3.913 3.114-3.996V1l.1.001L10 1v.004zM2.305 9.307H0v-1.2h2.663L.68 6.124l.848-.848 3.253 3.252-3.253 3.253-.848-.848 1.625-1.626z"/></symbol><symbol viewBox="0 0 16 16" id="user-readonly-fill" xmlns="http://www.w3.org/2000/svg"><path d="M12.035 14.542c-1.46 0-2.782-.815-3.965-2.446 1.183-1.631 2.505-2.447 3.965-2.447s2.782.816 3.965 2.447c-1.183 1.631-2.505 2.446-3.965 2.446zm0-1.18a1.265 1.265 0 1 0 0-2.532 1.265 1.265 0 0 0 0 2.531zm-4.23-7.425c0 1.091-.42 2.098-1.007 2.602-.168.252-.252.587-.252.923 0 .252.252.587.755.84v3.272H.42c-.252 0-.42-.168-.42-.42 0-.587.084-1.007.252-1.174.503-.504 1.426-.924 2.35-1.26.923-.335 1.426-.839 1.426-1.174 0-.252-.084-.672-.252-1.007-.587-.588-.923-1.51-.923-2.602 0-1.93.84-2.937 2.434-2.937 1.594 0 2.518 1.007 2.518 2.937z"/></symbol><symbol viewBox="0 0 16 16" id="user-story" xmlns="http://www.w3.org/2000/svg"><path d="M8.082 10.508l5.636 4.518V3.078c0-1.098-.914-1.978-2.031-1.978H4.53c-1.115 0-2.023.88-2.023 1.978v11.958l5.575-4.528zm4.436 2.018l-4.441-3.56-4.37 3.55V3.077c0-.426.362-.778.823-.778h7.157c.464 0 .83.354.83.778v9.448z"/></symbol><symbol viewBox="0 0 16 16" id="user-story-fill" xmlns="http://www.w3.org/2000/svg"><path d="M4.645 4.64a.95.95 0 0 1 .949-.954h4.77c.528 0 .955.427.955.954v7.633L7.959 9.25l-3.32 3.023.006-7.633zm11.314 8.127V3.192A3.202 3.202 0 0 0 12.767 0H3.192A3.202 3.202 0 0 0 0 3.192v9.575a3.2 3.2 0 0 0 3.192 3.19h9.575a3.2 3.2 0 0 0 3.192-3.19z"/></symbol><symbol viewBox="0 0 16 16" id="version" xmlns="http://www.w3.org/2000/svg"><path d="M14.576 11.15l-6.54 3.13-6.622-3.13a.58.58 0 0 0-.802.204c-.16.284-.08.65.2.813l6.942 3.252c.08.04.16.081.241.081h.16c.08 0 .201-.04.281-.081l6.782-3.252c.28-.163.36-.529.2-.854-.16-.244-.521-.325-.842-.163zM.813 8.55L7.754 11.8c.08.04.16.081.241.081h.16c.08 0 .201-.04.281-.081l6.782-3.252c.28-.163.36-.529.2-.854-.16-.284-.521-.406-.802-.244l-6.54 3.13-6.662-3.09a.58.58 0 0 0-.802.204.6.6 0 0 0 .2.854zm0-3.659l6.941 3.252c.08.04.16.082.241.082h.16c.08 0 .201-.041.281-.082l6.661-3.17c.16-.041.281-.122.361-.285.04-.04.04-.122.04-.163V4.28c0-.04-.04-.121-.04-.162a.512.512 0 0 0-.36-.285L8.435.581A.574.574 0 0 0 8.156.5h-.161c-.08 0-.16.04-.2.081L1.052 3.752c-.2 0-.36.122-.481.285a.647.647 0 0 0 .24.853zm7.302-3.13l5.377 2.602-5.417 2.601-5.457-2.56L8.115 1.76z"/></symbol><symbol viewBox="0 0 16 16" id="version-bold" xmlns="http://www.w3.org/2000/svg"><path d="M2.373 7.547l5.628 2.32 5.65-2.32a1 1 0 1 1 .76 1.85L8.38 11.873a1 1 0 0 1-.761 0L1.611 9.396a1 1 0 0 1 .762-1.85zm5.628 6.31l5.631-2.45a1 1 0 1 1 .798 1.833L8.4 15.865a1 1 0 0 1-.8 0L1.593 13.24a1 1 0 0 1 .8-1.833l5.609 2.45zM.836 4.982c-.28-.147-.43-.405-.27-.7.12-.147.27-.22.51-.33l6.592-2.867c.072-.018.124-.058.2-.073a.438.438 0 0 1 .2 0c.082.015.16.036.24.073l6.758 2.94c.14.08.308.184.36.257.05.08.074.185.074.314a.601.601 0 0 1-.074.202c-.1.114-.175.147-.36.257L8.347 7.926a.79.79 0 0 1-.28.074h-.16c-.08 0-.16-.037-.24-.074L.838 4.982zM8 3.13L4.764 4.5l3.275 1.398 3.16-1.384L8 3.131z"/></symbol><symbol viewBox="0 0 16 16" id="version-circle" xmlns="http://www.w3.org/2000/svg"><path d="M8 15.488c-2.072 0-3.86-.736-5.312-2.188C1.215 11.827.5 10.09.5 7.988c0-2.104.715-3.841 2.188-5.313C3.821 1.482 5.32.742 7.012.547 7.747.485 8.082.484 8.908.545c.114 0 1.083.142 1.888.439a.577.577 0 0 1-.396 1.084 7.946 7.946 0 0 0-1.569-.37c-.776-.056-1.047-.055-1.705 0-1.401.162-2.657.779-3.61 1.784C2.258 4.74 1.654 6.21 1.654 7.99c0 1.78.606 3.25 1.85 4.496C4.75 13.731 6.22 14.335 8 14.335c1.725 0 3.2-.607 4.505-1.859 1.233-1.288 1.842-2.761 1.842-4.488 0-.694-.121-1.416-.363-2.148-.047-.1-.086-.197-.124-.293a1.408 1.408 0 0 0-.11-.24c-.013-.02-.024-.041-.036-.063 0 0-.294-.478-1.049-.487h-.01c-.679 0-.888.323-.968.444a.431.431 0 0 0-.015.022l-2.631 5.55c-.266.576-.62.877-1.049.891-.43.002-.818-.278-1.135-.865L4.246 5.17a.576.576 0 1 1 1.045-.486l2.598 5.597c.021.038.04.07.058.098.017-.032.034-.064.048-.097l2.657-5.603a.61.61 0 0 1 .064-.106c.535-.812 1.387-.969 1.96-.973 1.166.015 1.84.7 2.052 1.093.09.143.148.288.205.429.03.077.061.158.101.238.012.025.023.05.032.076.288.862.434 1.72.434 2.55 0 2.009-.733 3.793-2.18 5.303-1.524 1.465-3.31 2.198-5.32 2.198z"/></symbol><symbol viewBox="0 0 16 16" id="vertical-line" xmlns="http://www.w3.org/2000/svg"><path d="M7.4 0v16.003h1.2V-.001z"/></symbol><symbol viewBox="0 0 16 16" id="vertical-view-lines" xmlns="http://www.w3.org/2000/svg"><path d="M8.2 7h1v1.2h-1V15H7V8.2H6V7h1V1h1.2v6zm6-4.2h1V4h-1v11H13V4h-1V2.8h1V1h1.2v1.8zm-11 9h1V13h-1v2H2v-2H1v-1.2h1V1h1.2v10.8z"/></symbol><symbol viewBox="0 0 16 16" id="view-board" xmlns="http://www.w3.org/2000/svg"><path d="M1 5.091V1h6.546V5.09H1zm1.2-1.2h4.146V2.2H2.2V3.89zm6.163 3.654V1h6.546v6.545H8.363zm1.2-5.345v4.145h4.146V2.2H9.563zm-1.2 12.709V8.363h6.546v6.546H8.363zm1.2-1.2h4.146V9.563H9.563v4.146zM1 14.909V5.99h6.546v8.918H1zm1.2-1.2h4.146V7.19H2.2v6.518z"/></symbol><symbol viewBox="0 0 16 16" id="view-tile" xmlns="http://www.w3.org/2000/svg"><path d="M1 2h5.5v5.5H1V2zm1.2 1.2v3.1h3.1V3.2H2.2zM1 9h5.5v5.5H1V9zm1.2 1.2v3.1h3.1v-3.1H2.2zm6.2-7.7h6a.6.6 0 0 1 0 1.2h-6a.6.6 0 1 1 0-1.2zm0 7h6a.6.6 0 0 1 0 1.2h-6a.6.6 0 0 1 0-1.2zm0 3.3h6a.6.6 0 0 1 0 1.2h-6a.6.6 0 0 1 0-1.2zm0-6.8h6a.6.6 0 0 1 0 1.2h-6a.6.6 0 1 1 0-1.2z"/></symbol><symbol viewBox="0 0 16 16" id="waring-fill" xmlns="http://www.w3.org/2000/svg"><path d="M9.718 2.496l5.588 9.387a2 2 0 0 1-1.718 3.023H2.412a2 2 0 0 1-1.718-3.023L6.28 2.496a2 2 0 0 1 3.437 0zm-2.447 9.496v1.457h1.457v-1.457H7.271zm-.363-5.84l.363 4.384h1.457l.376-4.385H6.908z"/></symbol></svg>