<?xml version="1.0" standalone="no"?>
<!DOCTYPE svg PUBLIC "-//W3C//DTD SVG 1.1//EN" "http://www.w3.org/Graphics/SVG/1.1/DTD/svg11.dtd" >
<!--
2013-9-30: Created.
-->
<svg>
<metadata>
Created by iconfont
</metadata>
<defs>

<font id="wtf" horiz-adv-x="1024" >
  <font-face
    font-family="wtf"
    font-weight="500"
    font-stretch="normal"
    units-per-em="1024"
    ascent="896"
    descent="-128"
  />
    <missing-glyph />
    
    <glyph glyph-name="plus" unicode="&#58932;" d="M882.789 316.318h-324.44v-324.44H465.65v324.44H141.21v92.698h324.44v324.44h92.697v-324.44h324.44v-92.698z"  horiz-adv-x="1024" />

    
    <glyph glyph-name="close" unicode="&#59059;" d="M907.5104000000001 67.59466666666663l-79.10186666666667-79.10186666666667-316.4053333333333 316.4053333333333-316.4053333333333-316.4053333333333-79.10399999999998 79.10186666666667 316.4053333333333 316.4053333333333-316.4053333333333 316.4053333333333 79.10399999999998 79.09866666666667 316.4053333333333-316.4053333333333 316.4053333333333 316.4053333333333 79.09866666666667-79.09866666666667-316.4053333333333-316.4053333333333 316.4053333333333-316.4053333333333z"  horiz-adv-x="1025" />

    
    <glyph glyph-name="service-o" unicode="&#58917;" d="M705.054 760.761c19.898 0 34.192-4.044 49.898-6.896-27.116-26.424-54.237-52.858-81.353-79.286-8.635-8.269-26.414-18.414-22.014-37.442 2.624-11.347 24.994-30.9 33.561-37.988 8.304-6.87 14.317-17.746 24.973-22.026 3.624-1.456 6.954-2.083 10.033-2.083 14.752 0 23.752 14.423 32.116 21.355 28.996 27.617 57.999 55.244 86.994 82.864 1.965-4.865 3.935-9.729 5.906-14.591 3.213-8.571 4.93-18.266 6.71-28.082 5.137-28.309-1.76-58.644-9.664-78.457-21.396-53.628-74.153-101.586-137.468-112.322-4.606-0.781-9.344-1.124-14.106-1.124-19.367 0-39.161 5.663-52.479 10.484-5.462 2.11-10.919 4.22-16.379 6.329-9.727-8.665-19.309-17.638-29.264-25.878-6.801-6.788-13.602-13.583-20.407-20.37-6.71-6.608-13.422-13.215-20.135-19.823 13.959-13.762 27.925-27.531 41.884-41.294 0.36 0.37 0.718 0.734 1.075 1.103 10.919 5.505 17.98 24.92 36.064 24.92 1.504 0 3.082-0.134 4.747-0.422 14.034-2.422 18.11-10.651 26.851-17.894 12.171-12.112 24.344-24.226 36.514-36.338 46.625-46.523 93.259-93.055 139.883-139.578 13.065-13.029 26.136-26.061 39.201-39.093 6.803-5.632 19.751-17.55 24.164-25.052 5.343-9.077 2.063-25.688-2.683-31.93-23.358-21.566-46.723-43.136-70.077-64.694-6.942-5.733-13.529-15.581-26.522-15.581-1.538 0-3.163 0.138-4.892 0.436-15.44 2.673-20.311 13.114-30.07 21.2-12.976 12.753-25.956 25.514-38.932 38.268-46.176 45.51-92.368 91.037-138.543 136.548-13.598 13.395-27.207 26.797-40.808 40.194-6.658 5.513-14.916 12.439-18.254 21.196-9.652 25.298 19.754 39.931 27.922 53.959-9.845 9.727-19.692 19.456-29.533 29.183-2.344 2.381-6.192 7.833-9.188 7.833-0.451 0-0.882-0.123-1.286-0.399-29.619-35.787-59.25-71.581-88.868-107.368-33.561-41.654-67.126-83.326-100.685-124.984-9.664-12.112-19.331-24.226-28.996-36.341-11.954-15.735-24.377-31.012-39.47-43.495-5.995-5.966-11.993-11.932-17.989-17.894-10.146-8.272-21.603-14.706-36.247-18.447-5.99-1.529-12.101-2.22-18.162-2.22-25.961 0-51.012 12.675-61.849 26.445-2.775 3.58-5.549 7.158-8.324 10.738-9.907 15.046-12.871 36.932-10.024 60.598 2.46 12.987 4.627 18.006 10.024 26.393 1.7 2.113 3.4 4.223 5.104 6.333 8.491 11.033 19.836 21.264 30.07 30.559 30.127 27.374 59.745 55.945 91.287 81.766 16.105 14.313 32.22 28.629 48.327 42.945 21.389 19.175 42.782 38.359 64.171 57.536 30.156 26.795 60.322 53.592 90.481 80.387-3.666 9.428-13.429 17.402-20.676 23.4-12.171 12.019-24.344 24.042-36.514 36.063-53.965 53.403-107.941 106.822-161.903 160.224-4.425-1.909-9.488-2.715-14.685-2.715-12.078 0-24.87 4.355-32.032 9.323-6.355 6.057-12.707 12.115-19.063 18.169-5.549 5.048-11.1 10.097-16.644 15.141 0.537 0.734 1.072 1.47 1.612 2.204 21.923 21.288 43.852 42.577 65.779 63.869 6.263-5.873 12.532-11.748 18.795-17.622 15.125-12.492 35.335-29.274 23.895-60.013 73.471-72.213 146.962-144.446 220.43-216.659 1.612 0 3.224 0 4.832 0 6.444 6.333 12.888 12.665 19.331 18.994 5.726 5.873 11.456 11.748 17.182 17.618 10.428 10.617 20.813 20.92 30.608 32.211-2.415 5.507-4.831 11.014-7.25 16.517-5.399 13.104-9.356 26.811-12.079 42.673-4.203 24.475 3.626 48.429 12.079 63.319 24.361 42.89 59.439 77.449 107.129 96.354 10.864 4.305 22.847 6.667 35.439 9.084 6.175 0.55 12.351 1.102 18.526 1.652 0.647 0.008 1.289 0.013 1.924 0.013M213.887 793.915l-85.853-83.362-1.325-1.799c-0.361-0.491-0.721-0.983-1.079-1.475l-0.581-0.796-14.327-19.574 34.358-31.253c4.192-3.993 8.384-7.989 12.576-11.985l7.773-7.41 1.72-1.192c12.567-8.72 30.734-14.137 47.413-14.137 2.066 0 4.095 0.082 6.085 0.246l189.912-187.705-8.224-7.305c-20.802-18.481-41.604-36.963-62.403-55.442l-22.472-20.15c-13.923-12.483-27.847-24.968-41.768-37.448l-47.857-42.526c-23.526-19.288-46.046-40.086-67.828-60.202-7.897-7.292-16.062-14.833-24.083-22.122l-0.624-0.568c-10.661-9.681-22.734-20.643-32.483-33.245-1.65-2.044-3.296-4.087-4.942-6.134l-0.896-1.115-0.773-1.202c-7.636-11.87-10.87-20.273-13.843-35.97l-0.169-0.894-0.109-0.904c-3.79-31.517 1.147-58.717 14.277-78.657l0.571-0.867 9.084-11.719c8.154-10.364 20.721-19.706 35.381-26.305 15.167-6.828 31.652-10.437 47.672-10.437 8.529 0 16.885 1.029 24.836 3.059 17.228 4.402 32.477 12.146 46.622 23.678l1.033 0.842 1.675 1.667c5.473 5.442 10.948 10.888 16.42 16.334 16.761 14.075 30.363 30.825 42.571 46.882 8.537 10.702 17.078 21.404 25.614 32.103l3.137 3.931 37.042 45.982c21.165 26.274 42.333 52.55 63.496 78.818 14.771 17.847 29.546 35.697 44.319 53.547 4.681 5.656 9.363 11.312 14.044 16.967-0.072-0.128-0.144-0.259-0.216-0.388-8.031-14.633-9.173-30.499-3.305-45.883 5.699-14.948 17.273-24.907 25.355-31.613 13.327-13.125 26.66-26.255 39.983-39.38l179.198-176.37c1.568-1.298 3.25-3.059 5.199-5.098 7.037-7.359 17.67-18.48 37.481-21.91 3.195-0.552 6.388-0.832 9.495-0.832 21.067 0 33.847 12.339 40.713 18.969 1.124 1.086 2.287 2.208 2.989 2.788l0.575 0.473 0.548 0.505c23.355 21.561 46.721 43.131 70.079 64.697l1.741 1.609 1.434 1.887c7.259 9.547 9.649 21.606 10.427 27.943 1.106 9.007 0.968 22.216-5.97 34.004-7.239 12.307-23.915 26.857-29.204 31.309-8.365 8.344-16.732 16.686-25.098 25.029l-191.498 190.808c-1.34 1.11-2.738 2.508-4.358 4.126-6.515 6.509-16.359 16.345-35.122 19.582-3.128 0.541-6.268 0.814-9.333 0.814-10.789 0-20.891-3.303-30.03-9.816-2.513-1.791-4.769-3.69-6.813-5.59l-3.735 3.683c0.206 0.203 0.414 0.409 0.623 0.612l0.063 0.062 0.062 0.062c4.044 4.035 8.088 8.071 12.129 12.107l7.412 7.4c5.773 4.815 11.369 9.793 16.813 14.7l1.188-0.458 0.273-0.098c15.246-5.517 38.318-12.094 61.661-12.094 6.472 0 12.735 0.506 18.618 1.504 34.955 5.928 68.611 21.848 97.327 46.044 27.221 22.936 48.208 51.596 60.689 82.882 5.802 14.544 18.505 52.748 11.152 93.273l-0.123 0.682c-1.906 10.527-3.879 21.413-7.87 32.058l-0.126 0.337-0.134 0.333c-1.967 4.851-3.931 9.703-5.893 14.557l-14.874 36.817-38.772-36.932c-25.464-24.256-50.932-48.515-76.395-72.767-2.9-2.486-5.422-5.097-7.869-7.627-1.863-1.927-4.744-4.905-6.656-6.375-1.543 1.166-4.282 4.205-6.169 6.298-3.143 3.487-6.704 7.439-11.198 11.157-12.001 9.931-20.16 18.499-23.606 23.054 1.813 2.005 5.079 4.75 7.041 6.4 2.137 1.795 4.346 3.652 6.483 5.699l0.086 0.083 0.085 0.083 3.585 3.494c25.922 25.263 51.848 50.532 77.768 75.791l37.48 36.525-51.492 9.346c-3.221 0.584-6.419 1.232-9.803 1.918-12.531 2.538-26.733 5.412-44.911 5.412l-0.001 0c-0.751 0-1.51-0.006-2.273-0.015l-1.026-0.013-20.903-1.863-1.337-0.257c-12.548-2.409-26.769-5.14-40.293-10.497-26.106-10.349-49.873-25.292-70.647-44.416-19.226-17.699-36.05-39.129-50.003-63.697-4.239-7.469-10.043-19.666-13.629-35.39-3.577-15.681-4.108-31.098-1.581-45.822 2.983-17.386 7.474-33.214 13.724-48.384l0.119-0.289 0.125-0.285c0.065-0.148 0.129-0.296 0.195-0.444-4.362-4.583-8.861-9.147-13.494-13.848-1.534-1.554-3.069-3.113-4.605-4.677l-0.033-0.033-0.032-0.033-0.375-0.385c-5.535-5.675-11.074-11.353-16.61-17.032-0.877-0.861-1.751-1.721-2.628-2.581-64.355 63.255-128.726 126.526-193.083 189.78 1.826 14.689-0.975 28.863-8.354 41.711-7.774 13.538-19.032 23.015-27.471 29.989l-36.956 34.65z"  horiz-adv-x="1024" />

    
    <glyph glyph-name="user-add" unicode="&#58977;" d="M754.86433 46.197414 754.86433 368.458025c0 9.038864 7.329942 16.368806 16.368806 16.368806 9.041934 0 16.368806-7.329942 16.368806-16.368806l0-322.260611c0-9.038864-7.326872-16.368806-16.368806-16.368806C762.193249 29.828608 754.86433 37.158551 754.86433 46.197414zM610.102319 223.696014l322.260611 0c9.038864 0 16.368806-7.329942 16.368806-16.368806 0-9.041934-7.329942-16.368806-16.368806-16.368806L610.102319 190.958402c-9.038864 0-16.368806 7.326872-16.368806 16.368806C593.733513 216.366072 601.063455 223.696014 610.102319 223.696014zM434.69638 800.241053c-108.479667 0-196.420555-87.940888-196.420555-196.420555s87.940888-196.420555 196.420555-196.420555 196.420555 87.940888 196.420555 196.420555S543.176047 800.241053 434.69638 800.241053zM434.69638 440.136531c-90.399893 0-163.683966 73.284073-163.683966 163.683966s73.284073 163.683966 163.683966 163.683966 163.683966-73.284073 163.683966-163.683966S525.095249 440.136531 434.69638 440.136531zM653.121088 366.347968c-60.584843 46.289256-136.293129 73.788563-218.424708 73.788563-198.87956 0-360.104521-161.225985-360.104521-360.104521 0-4.191462 0.077771-8.364505 0.220011-12.521175l0.283456 0c-0.316202-1.276063-0.503467-2.604314-0.503467-3.978614 0-9.112542 7.387247-16.498766 16.498766-16.498766s16.498766 7.387247 16.498766 16.498766c0 1.3743-0.186242 2.701528-0.503467 3.978614l0.503467 0c-0.156566 4.15667-0.261966 8.326643-0.261966 12.521175 0 180.801832 146.5661 327.367933 327.367933 327.367933 67.071581 0 129.421628-20.184715 181.335998-54.790884C627.880217 358.197334 640.276549 362.811422 653.121088 366.347968z"  horiz-adv-x="1024" />

    
    <glyph glyph-name="view-list-o" unicode="&#59003;" d="M531.843 705.005c0-12.981 0-25.971 0-38.956 127.822 0 255.684 0 383.508 0 0 12.985 0 25.974 0 38.956-127.822 0-255.684 0-383.508 0zM531.843 475.138c127.822 0 255.684 0 383.508 0 0 12.962 0 25.928 0 38.887-127.734 0-255.504 0-383.235 0-0.088-12.958-0.18-25.924-0.273-38.887zM531.843 244.735c127.822 0 255.684 0 383.508 0 0 12.997 0 25.998 0 38.99-127.822 0-255.684 0-383.508 0 0-12.994 0-25.993 0-38.99zM531.843 53.504c127.822 0 255.684 0 383.508 0 0 12.992 0 25.991 0 38.987-127.822 0-255.684 0-383.508 0 0-12.996 0-25.995 0-38.987zM357.492 742.635h-190.428c-31.79 0-57.561-25.771-57.561-57.561v-190.429c0-31.79 25.771-57.561 57.561-57.561h190.428c31.79 0 57.561 25.771 57.561 57.561v190.429c0 31.79-25.771 57.561-57.561 57.561zM376.679 508.968c0-23.805-9.704-33.509-33.509-33.509h-161.783c-23.805 0-33.509 9.705-33.509 33.509v161.783c0 23.805 9.705 33.509 33.509 33.509h161.783c23.805 0 33.509-9.705 33.509-33.509v-161.783zM357.492 322.322h-190.428c-31.79 0-57.561-25.771-57.561-57.561v-190.429c0-31.79 25.771-57.561 57.561-57.561h190.428c31.79 0 57.561 25.771 57.561 57.561v190.429c0 31.79-25.771 57.561-57.561 57.561zM376.679 88.655c0-23.805-9.704-33.509-33.509-33.509h-161.783c-23.805 0-33.509 9.705-33.509 33.509v161.783c0 23.805 9.705 33.509 33.509 33.509h161.783c23.805 0 33.509-9.705 33.509-33.509v-161.783z"  horiz-adv-x="1024" />

    
    <glyph glyph-name="check-square" unicode="&#59035;" d="M851.2 870.4h-672c-83.2 0-147.2-64-147.2-147.2v-678.4c0-83.2 64-147.2 147.2-147.2h672c83.2 0 147.2 64 147.2 147.2V723.2c0 83.2-64 147.2-147.2 147.2z m83.2-825.6c0-44.8-38.4-83.2-83.2-83.2h-672c-44.8 0-83.2 38.4-83.2 83.2V723.2c0 44.8 38.4 83.2 83.2 83.2h672c44.8 0 83.2-38.4 83.2-83.2v-678.4z"  horiz-adv-x="1024" />

    
    <glyph glyph-name="dashboard-o" unicode="&#59110;" d="M774.625 709.163c0 0-203.817-452.972-220.538-487.254-16.725-34.282-57.822-48.394-91.797-31.529-33.98 16.869-47.969 58.336-31.244 92.618 16.718 34.283 343.579 426.165 343.579 426.165zM556.745 679.072c-14.713 1.494-29.641 2.259-44.747 2.259-241.745 0-437.712-195.968-437.712-437.712 0-62.252 12.997-121.47 36.423-175.086l215.262 0c6.041 0 10.943 4.898 10.943 10.943l0 21.885c0 6.045-4.902 10.943-10.943 10.943l-185.489 0c-14.517 41.073-22.427 85.27-22.427 131.315 0 217.565 176.372 393.94 393.94 393.94 15.315 0 30.427-0.875 45.286-2.575-0.993 8.015-1.51 16.177-1.51 24.461 0.001 6.624 0.334 13.17 0.973 19.627zM867.346 499.239c-11.909-8.534-24.809-15.775-38.494-21.514 48.438-65.45 77.087-146.433 77.087-234.108 0-46.045-7.908-90.241-22.427-131.315l-174.545 0c-12.085 0-21.885-9.801-21.885-21.885 0-12.085 9.801-21.885 21.885-21.885l204.32 0c23.426 53.617 36.423 112.833 36.423 175.086-0.001 95.418-30.539 183.7-82.365 255.62z"  horiz-adv-x="1024" />

    
    <glyph glyph-name="configuration-o" unicode="&#59242;" d="M398.409 788.783c160.819 0 291.654-130.836 291.654-291.654 0-33.578-5.697-66.508-16.932-97.875l-9.326-26.039 220.514-220.5c38.996-39.015 39.011-102.484 0.046-141.471-18.908-18.905-44.029-29.315-70.77-29.315-26.706 0-51.828 10.411-70.735 29.315l-220.513 220.48-26.028-9.311c-31.424-11.239-64.365-16.938-97.911-16.938-160.819 0-291.654 130.836-291.654 291.654 0 34.183 5.884 67.566 17.513 99.481l190.714-190.731 174.682 174.655-190.74 190.74c31.913 11.627 65.3 17.509 99.488 17.509M398.409 832.444c-46.028 0-90.814-9.278-133.072-27.57l-19.988-8.655c-0.035-0.031 0.124-0.047 0.059-0.078-1.902-0.829-3.68-2.029-5.236-3.586-6.612-6.625-6.612-17.401 0.031-24.047 0.093-0.095-0.095-0.141-0.031-0.231l187.743-187.743-112.929-112.913-183.969 183.985c-0.069-0.01-0.14-0.015-0.212-0.015-0.214 0-0.442 0.063-0.722 0.343-3.899 3.897-9.006 5.846-14.112 5.846s-10.212-1.949-14.109-5.846c-2.124-2.141-3.684-4.619-4.647-7.269-0.049-0.129-0.107-0.157-0.17-0.157-0.049 0-0.1 0.017-0.153 0.017-0.007 0-0.016 0-0.025-0.001l-6.203-14.343c-18.274-42.211-27.57-86.993-27.57-133.055 0-184.873 150.414-335.316 335.316-335.316 38.673 0 76.437 6.549 112.615 19.489l200.964-200.935c27.135-27.13 63.215-42.1 101.605-42.1l0.035 0c38.356 0 74.469 14.971 101.605 42.1 55.979 56.01 55.979 147.168-0.035 203.212l-200.963 200.953c12.94 36.126 19.489 73.895 19.489 112.598 0 184.891-150.409 335.316-335.316 335.316l0 0z"  horiz-adv-x="1024" />

    
    <glyph glyph-name="exchange-o" unicode="&#59243;" d="M890.892 651.438c-1.002 1.002-2.082 1.876-3.215 2.643l-142.852 142.852c-8.557 8.557-22.428 8.557-30.985 0s-8.557-22.428 0-30.985l108.095-108.095-697.667 0c-0.048 0-0.095-0.006-0.143-0.007-0.048 0-0.095 0.007-0.143 0.007-12.099 0-21.909-9.809-21.909-21.909l0-206.569c0-12.099 9.809-21.909 21.909-21.909s21.909 9.809 21.909 21.909l0 184.089 676.043 0-108.095-108.095c-8.557-8.557-8.557-22.428 0-30.985s22.428-8.557 30.985 0l142.852 142.852c1.131 0.767 2.211 1.642 3.215 2.643 4.351 4.351 6.477 10.076 6.404 15.777 0.075 5.703-2.053 11.427-6.403 15.778zM898.321 371.107c-12.099 0-21.909-9.809-21.909-21.909l0-184.09-674.949 0 108.095 108.095c8.557 8.557 8.557 22.428 0 30.985s-22.428 8.557-30.985 0l-142.853-142.852c-1.131-0.767-2.211-1.642-3.215-2.643-4.315-4.315-6.448-9.983-6.411-15.638 0-0.047-0.006-0.092-0.006-0.139s0.006-0.092 0.006-0.139c-0.037-5.657 2.095-11.324 6.411-15.638 1.002-1.002 2.082-1.876 3.215-2.643l142.852-142.853c8.557-8.557 22.428-8.557 30.985 0s8.557 22.428 0 30.985l-108.095 108.095 696.575 0c0.048 0 0.095 0.006 0.143 0.007 0.048 0 0.095-0.007 0.143-0.007 12.099 0 21.909 9.809 21.909 21.909l0 206.57c-0.001 12.099-9.809 21.909-21.91 21.909z"  horiz-adv-x="1024" />

    
    <glyph glyph-name="exit-o" unicode="&#59244;" d="M933.065 400.8l-317.558 317.558c-9.862 9.862-25.851 9.862-35.713 0s-9.862-25.851 0-35.713l274.45-274.45-532.529 0c-13.947 0-25.252-11.306-25.252-25.252s11.306-25.252 25.252-25.252l532.529 0-274.45-274.45c-9.862-9.862-9.862-25.851 0-35.713s25.851-9.862 35.713 0l317.558 317.558c9.862 9.862 9.862 25.851 0 35.713zM361.314 75.939l0 0.15-191.669 0c-37.878 0-33.946 5.693-33.946 36.118 0 21.113 0 519.741 0 549.548s5.38 28.149 38.292 28.149c16.747 0 110.989 0 187.323 0l0 0.171c13.841 0.055 25.046 11.289 25.046 25.143s-11.203 25.087-25.046 25.143l0 0.004-219.398 0c-30.864 0-55.887-25.021-55.887-55.887l0-603.077c0-30.864 25.021-55.887 55.887-55.887l219.397 0.131c13.841 0.055 25.046 11.289 25.046 25.143s-11.203 25.087-25.046 25.142z"  horiz-adv-x="1024" />

    
    <glyph glyph-name="department-o" unicode="&#59165;" d="M290.36825 619.264235l98.983385 0 0-98.983385-98.983385 0L290.36825 619.264235zM438.84384 619.264235l98.983385 0 0-98.983385-98.983385 0L438.84384 619.264235zM290.36825 421.297464l98.983385 0 0-98.983385-98.983385 0L290.36825 421.297464zM438.84384 421.297464l98.983385 0 0-98.983385-98.983385 0L438.84384 421.297464zM290.36825 223.330694l98.983385 0 0-98.983385-98.983385 0L290.36825 223.330694zM438.84384 223.330694l98.983385 0 0-98.983385-98.983385 0L438.84384 223.330694zM686.302815 371.806283 686.302815 767.739824l-544.409131 0 0-791.868105 504.127705 0 40.282448 0 207.176526 0L893.480364 371.806283 686.302815 371.806283zM645.370567 16.803967l-462.544635 0L182.825932 726.807576l462.544635 0L645.370567 16.803967zM850.500481 18.850579 688.999227 18.850579 688.999227 328.827423l161.501254 0L850.500481 18.850579z"  horiz-adv-x="1024" />

    
    <glyph glyph-name="move" unicode="&#59060;" d="M391.168 817.664c-33.792 0-61.44-27.648-61.44-61.44s27.648-61.44 61.44-61.44c33.792 0 61.44 27.648 61.44 61.44s-27.136 61.44-61.44 61.44zM637.952 694.784c33.792 0 61.44 27.648 61.44 61.44s-27.648 61.44-61.44 61.44c-33.792 0-61.44-27.648-61.44-61.44s27.136-61.44 61.44-61.44zM391.168 571.392c-33.792 0-61.44-27.648-61.44-61.44s27.648-61.44 61.44-61.44c33.792 0 61.44 27.648 61.44 61.44s-27.136 61.44-61.44 61.44zM637.952 571.392c-33.792 0-61.44-27.648-61.44-61.44s27.648-61.44 61.44-61.44c33.792 0 61.44 27.648 61.44 61.44s-27.648 61.44-61.44 61.44zM391.168 325.12c-33.792 0-61.44-27.648-61.44-61.44s27.648-61.44 61.44-61.44c33.792 0 61.44 27.648 61.44 61.44s-27.136 61.44-61.44 61.44zM637.952 325.12c-33.792 0-61.44-27.648-61.44-61.44s27.648-61.44 61.44-61.44c33.792 0 61.44 27.648 61.44 61.44s-27.648 61.44-61.44 61.44zM391.168 78.336c-33.792 0-61.44-27.648-61.44-61.44s27.648-61.44 61.44-61.44c33.792 0 61.44 27.648 61.44 61.44s-27.136 61.44-61.44 61.44zM637.952 78.336c-33.792 0-61.44-27.648-61.44-61.44s27.648-61.44 61.44-61.44c33.792 0 61.44 27.648 61.44 61.44s-27.648 61.44-61.44 61.44z"  horiz-adv-x="1024" />

    
    <glyph glyph-name="due-date" unicode="&#59096;" d="M810.189 532.548h-593.101c-14.746 0-26.761 6.554-26.761 20.753s12.015 20.753 26.761 20.753h592.555c14.746 0 26.761-6.554 26.761-20.753 0.546-14.746-11.469-20.753-26.214-20.753zM468.855 152.439c-6.554 0-12.561 2.185-17.476 6.007l-133.257 109.773c-11.469 9.284-12.561 25.668-2.731 36.591s26.761 12.015 38.229 2.731l113.050-92.843 205.346 229.376c9.83 10.923 26.761 12.015 38.229 2.731 11.469-9.284 12.561-25.668 2.731-36.591l-222.276-249.037c-4.369-5.461-11.469-8.192-18.569-8.738h-3.277zM337.237 642.321c-14.746 0-21.845 11.469-21.845 25.668v134.349c0 14.199 7.1 25.668 21.845 25.668s21.845-11.469 21.845-25.668v-134.349c0-14.199-7.1-25.668-21.845-25.668zM690.039 642.321c-14.746 0-21.845 11.469-21.845 25.668v134.349c0 14.199 7.1 25.668 21.845 25.668s21.845-11.469 21.845-25.668v-134.349c0-14.199-7.1-25.668-21.845-25.668zM582.451 714.411h-137.626c-14.746 0-26.761 6.554-26.761 20.753s12.015 20.753 26.761 20.753h137.079c14.746 0 26.761-6.554 26.761-20.753 0.546-14.199-11.469-20.753-26.214-20.753zM834.219 8.806h-641.161c-59.529 0-108.134 46.421-108.134 103.765v545.041c0 56.798 48.606 103.765 108.134 103.765h35.499c14.746 0 26.761-6.554 26.761-20.753s-12.015-20.753-26.761-20.753h-35.499c-30.037 0-64.444-33.314-64.444-62.259v-545.587c0-28.399 34.406-62.259 64.444-62.259h641.161c30.037 0 64.444 33.314 64.444 62.259v545.587c0 28.399-34.406 62.259-64.444 62.259h-37.137c-14.746 0-26.761 6.554-26.761 20.753s12.015 20.753 26.761 20.753h37.137c59.529 0 108.134-46.421 108.134-103.765v-545.587c0-56.798-48.606-103.219-108.134-103.219z"  horiz-adv-x="1024" />

    
    <glyph glyph-name="begin-date" unicode="&#59097;" d="M808.55 532.548h-592.555c-14.746 0-26.761 6.554-26.761 20.753s12.015 20.753 26.761 20.753h592.555c14.746 0 26.761-6.554 26.761-20.753 0.546-14.199-11.469-20.753-26.761-20.753zM336.145 642.321c-14.746 0-21.845 11.469-21.845 25.668v134.349c0 14.199 7.1 25.668 21.845 25.668s21.845-11.469 21.845-25.668v-134.349c0-14.199-7.1-25.668-21.845-25.668zM688.947 642.321c-14.746 0-21.845 11.469-21.845 25.668v134.349c0 14.199 7.1 25.668 21.845 25.668s21.845-11.469 21.845-25.668v-134.349c0-14.199-7.1-25.668-21.845-25.668zM580.813 714.411h-136.533c-14.746 0-26.761 6.554-26.761 20.753s12.015 20.753 26.761 20.753h137.079c14.746 0 26.761-6.554 26.761-20.753s-12.015-20.753-27.307-20.753zM833.126 8.806h-641.161c-59.529 0-108.134 46.421-108.134 103.765v545.041c0 56.798 48.606 103.765 108.134 103.765h35.499c14.746 0 26.761-6.554 26.761-20.753s-12.015-20.753-26.761-20.753h-35.499c-30.037 0-64.444-33.314-64.444-62.259v-545.587c0-28.399 34.406-62.259 64.444-62.259h641.161c30.037 0 64.444 33.314 64.444 62.259v545.587c0 28.399-34.406 62.259-64.444 62.259h-37.137c-14.746 0-26.761 6.554-26.761 20.753s12.015 20.753 26.761 20.753h37.137c59.529 0 108.134-46.421 108.134-103.765v-545.587c0-56.798-48.606-103.219-108.134-103.219z"  horiz-adv-x="1024" />

    
    <glyph glyph-name="caret-down" unicode="&#59154;" d="M249.6 128L768 640v-512H249.6z"  horiz-adv-x="1024" />

    
    <glyph glyph-name="appraisal" unicode="&#58881;" d="M815.261538 852.676923h-582.892307c-78.769231 0-149.661538-66.953846-149.661539-153.6v-641.969231c0-86.646154 70.892308-153.6 153.6-153.6h578.953846c86.646154 0 153.6 66.953846 153.6 153.6V699.076923c-11.815385 82.707692-70.892308 153.6-153.6 153.6z m-417.476923-228.430769l126.03077-126.030769 122.092307 126.030769h-106.338461l3.938461 66.953846h248.123077v-240.246154h-78.769231v110.276923l-141.784615-141.784615-39.384615-43.323077-129.969231 129.969231-98.461539-102.4-55.138461 63.015384 149.661538 157.538462z m287.507693-543.507692h-441.107693v78.76923h441.107693v-78.76923z m114.215384 157.538461h-555.323077v82.707692h555.323077v-82.707692z"  horiz-adv-x="1024" />

    
    <glyph glyph-name="approval-o" unicode="&#58882;" d="M539.569231 817.230769c47.261538 0 90.584615-15.753846 126.030769-43.323077 74.830769-63.015385 94.523077-173.292308 43.323077-256 0-3.938462-3.938462-3.938462-3.938462-7.876923-3.938462-7.876923-15.753846-19.692308-23.630769-31.507692-3.938462-3.938462-7.876923-11.815385-11.815384-15.753846-47.261538-55.138462-7.876923-122.092308 11.815384-153.6 3.938462-3.938462 7.876923-11.815385 11.815385-19.692308 0-15.753846 7.876923-27.569231 15.753846-39.384615 15.753846-19.692308 39.384615-31.507692 63.015385-31.507693h137.846153v-39.384615H169.353846v39.384615h137.846154c23.630769 0 47.261538 11.815385 59.076923 27.569231 7.876923 11.815385 15.753846 23.630769 15.753846 35.446154 3.938462 3.938462 7.876923 11.815385 7.876923 15.753846 23.630769 39.384615 63.015385 106.338462 15.753846 165.415385C338.707692 545.4769229999999 315.076923 675.446154 393.846154 758.1538459999999c43.323077 39.384615 94.523077 59.076923 145.723077 59.076923m0 78.769231c-70.892308 0-141.784615-27.569231-196.923077-78.769231-106.338462-106.338462-90.584615-283.569231 7.876923-401.723077 19.692308-23.630769-47.261538-98.461538-43.323077-118.153846H169.353846c-55.138462 0-78.769231-23.630769-78.769231-78.769231v-118.153846h897.969231v114.215385c-3.938462 51.2-31.507692 82.707692-86.646154 82.707692h-129.96923c7.876923 23.630769-63.015385 94.523077-43.323077 114.215385 15.753846 19.692308 35.446154 39.384615 47.261538 63.015384 74.830769 118.153846 47.261538 271.753846-59.076923 358.4C665.6 876.307692 602.584615 896 539.569231 896zM145.723077-49.23076900000001h795.569231v78.769231H145.723077v-78.769231z"  horiz-adv-x="1024" />

    
    <glyph glyph-name="meeting-o" unicode="&#58883;" d="M657.723077 699.076923c7.876923 0 11.815385-3.938462 15.753846-3.938461 3.938462-3.938462 3.938462-3.938462 0-3.938462v-531.692308c0-7.876923-7.876923-15.753846-15.753846-15.753846H133.907692c-7.876923 0-15.753846 7.876923-15.753846 15.753846V683.323077c0 7.876923 7.876923 15.753846 15.753846 15.753846h523.815385m0 78.769231H133.907692C82.707692 777.846154 39.384615 734.5230770000001 39.384615 683.323077v-523.815385c0-51.2 43.323077-94.523077 94.523077-94.523077h523.815385c51.2 0 94.523077 43.323077 94.523077 94.523077V683.323077c3.938462 51.2-39.384615 94.523077-94.523077 94.523077zM307.2 269.78461500000003v315.076923l271.753846-157.538461zM905.846154 624.2461539999999v-393.846154l-82.707692 47.261538c-15.753846 7.876923-43.323077 47.261538-43.323077 70.892308V502.153846c0 23.630769 19.692308 63.015385 39.384615 70.892308L905.846154 624.2461539999999m31.507692 98.461538c-11.815385 0-23.630769-3.938462-35.446154-11.815384l-118.153846-66.953846c-47.261538-23.630769-82.707692-90.584615-82.707692-141.784616v-153.6c0-51.2 39.384615-118.153846 82.707692-141.784615l118.153846-66.953846c11.815385-7.876923 27.569231-11.815385 35.446154-11.815385 27.569231 0 47.261538 23.630769 47.261539 59.076923V663.630769c0 35.446154-19.692308 59.076923-47.261539 59.076923z"  horiz-adv-x="1024" />

    
    <glyph glyph-name="contacts" unicode="&#58884;" d="M42.666667 597.333333h170.666666v-85.333333H42.666667zM42.666667 426.666667h170.666666v-85.333334H42.666667zM42.666667 256h170.666666v-85.333333H42.666667zM618.666667 401.066667c46.933333 0 85.333333 38.4 85.333333 85.333333s-38.4 85.333333-85.333333 85.333333-85.333333-38.4-85.333334-85.333333 38.4-85.333333 85.333334-85.333333zM896 836.266667H260.266667c-46.933333 0-85.333333-38.4-85.333334-85.333334V682.666667h115.2v-593.066667H174.933333V0c0-46.933333 38.4-85.333333 85.333334-85.333333H896c46.933333 0 85.333333 38.4 85.333333 85.333333V750.933333c0 46.933333-38.4 85.333333-85.333333 85.333334zM789.333333 128c-12.8 85.333333-81.066667 132.266667-157.866666 132.266667-76.8 0-145.066667-46.933333-157.866667-132.266667h-85.333333c12.8 98.133333 76.8 174.933333 162.133333 204.8-59.733333 25.6-102.4 85.333333-102.4 153.6 0 93.866667 76.8 170.666667 170.666667 170.666667 98.133333 0 170.666667-76.8 170.666666-170.666667 0-64-38.4-123.733333-93.866666-149.333333 93.866667-25.6 162.133333-102.4 179.2-209.066667h-85.333334z"  horiz-adv-x="1024" />

    
    <glyph glyph-name="crm-o" unicode="&#58885;" d="M886.153846 360.369231v-362.338462c-11.815385-3.938462-23.630769-7.876923-39.384615-7.876923-11.815385 0-23.630769 0-31.507693 3.938462V324.92307700000003l70.892308 35.446154m78.769231 133.907692l-228.430769-118.153846v-405.661539c0-31.507692 51.2-55.138462 110.276923-55.138461s114.215385 31.507692 114.215384 66.953846l3.938462 512zM551.384615 155.56923099999995V-9.846153999999956c-7.876923-3.938462-19.692308-7.876923-35.446153-7.876923-11.815385 0-23.630769 0-31.507693 3.938462v133.907692l66.953846 35.446154m78.769231 133.907692l-228.430769-118.153846v-208.738462c0-31.507692 51.2-55.138462 110.276923-55.138461s114.215385 31.507692 114.215385 66.953846l3.938461 315.076923zM228.430769 242.21538499999997v-244.184616c-7.876923-3.938462-19.692308-7.876923-35.446154-7.876923-11.815385 0-23.630769 0-31.507692 3.938462v212.676923l66.953846 35.446154m78.769231 133.907692l-228.430769-118.153846v-287.507693c0-35.446154 51.2-55.138462 114.215384-55.138461s114.215385 31.507692 114.215385 66.953846V320.98461499999996 376.12307699999997zM496.246154 458.830769c-3.938462-3.938462-39.384615 0-47.261539 3.938462L275.692308 541.538462 59.076923 431.261538V545.4769229999999l185.107692 102.4 3.938462 3.938462c19.692308 3.938462 31.507692 7.876923 47.261538 0l169.353847-82.707693 315.076923 185.107693L669.538462 860.553846h283.56923v-287.507692L842.830769 683.323077l-346.584615-224.492308z"  horiz-adv-x="1024" />

    
    <glyph glyph-name="portal-o" unicode="&#58886;" d="M866.461538 817.230769h-708.923076c-43.323077 0-78.769231-35.446154-78.769231-78.769231v-708.923076c0-43.323077 35.446154-78.769231 78.769231-78.769231h708.923076c43.323077 0 78.769231 35.446154 78.769231 78.769231v708.923076c0 43.323077-35.446154 78.769231-78.769231 78.769231z m0-78.769231v-90.584615h-708.923076V738.461538h708.923076z m-393.846153-378.092307h-315.076923v208.738461h315.076923v-208.738461z m-315.076923-78.769231h315.076923v-252.061538h-315.076923v252.061538z m393.846153-252.061538v539.56923h315.076923V29.53846199999998h-315.076923z"  horiz-adv-x="1024" />

    
    <glyph glyph-name="leave-o" unicode="&#58887;" d="M512 750.276923c161.476923 0 299.323077-133.907692 299.323077-291.446154 0-149.661538-185.107692-330.830769-299.323077-421.415384-114.215385 90.584615-299.323077 275.692308-299.323077 421.415384 0 161.476923 133.907692 291.446154 299.323077 291.446154m0 78.769231c-208.738462 0-378.092308-165.415385-378.092308-370.215385 0-244.184615 378.092308-519.876923 378.092308-519.876923s378.092308 267.815385 378.092308 519.876923c0 200.861538-169.353846 370.215385-378.092308 370.215385zM626.215385 380.06153800000004h-165.415385V600.6153850000001h63.015385v-157.538462h102.4z"  horiz-adv-x="1024" />

    
    <glyph glyph-name="leave" unicode="&#58888;" d="M512 852.676923c-208.738462 0-378.092308-165.415385-378.092308-370.215385 0-244.184615 378.092308-519.876923 378.092308-519.876923s378.092308 267.815385 378.092308 519.876923c0 200.861538-169.353846 370.215385-378.092308 370.215385z m114.215385-448.984615h-165.415385V624.2461539999999h63.015385v-157.538462h102.4v-63.015384z"  horiz-adv-x="1024" />

    
    <glyph glyph-name="appraisal-o" unicode="&#58889;" d="M799.507692 767.6717953333333c39.384615 0 70.892308-35.446154 74.83077-78.769231V50.87179533333335c0-43.323077-31.507692-74.830769-74.83077-74.83077h-582.892307c-39.384615 0-74.830769 35.446154-74.83077 74.83077v641.96923c3.938462 47.261538 39.384615 74.830769 74.83077 74.83077h582.892307m0 78.76923h-582.892307c-78.769231 0-149.661538-66.953846-149.661539-153.6V50.87179533333335c0-86.646154 70.892308-153.6 153.6-153.6h578.953846c86.646154 0 153.6 66.953846 153.6 153.6v641.96923c-11.815385 82.707692-70.892308 153.6-153.6 153.6zM382.030769 621.9487183333333l126.030769-126.03077 122.092308 126.03077h-106.338461l3.938461 66.953846h248.123077v-240.246154h-78.769231v110.276923l-141.784615-141.784615-39.384615-43.323077-129.969231 129.96923-98.461539-102.4-55.138461 63.015385zM224.492308 157.2102563333334h441.107692v-78.769231h-441.107692zM779.815385 235.9794873333334h-555.323077v82.707692h555.323077z"  horiz-adv-x="1024" />

    
    <glyph glyph-name="okr" unicode="&#58890;" d="M1024 659.692308L846.769231 671.507692l11.815384 181.169231-63.015384-51.2L657.723077 679.3846149999999 641.969231 541.538462l-189.046154-161.476924 55.138461-59.076923 185.107693 169.353847 145.723077-3.938462 137.846154 129.969231L1024 659.692308zM515.938462 513.969231c-66.953846 0-126.030769-55.138462-126.03077-126.030769s55.138462-122.092308 126.03077-122.092308c66.953846 0 122.092308 55.138462 122.092307 122.092308h-122.092307l23.630769 122.092307c-7.876923 3.938462-15.753846 3.938462-23.630769 3.938462zM724.676923 391.876923c0-114.215385-94.523077-208.738462-208.738461-208.738461s-208.738462 94.523077-208.738462 208.738461 94.523077 208.738462 208.738462 208.738462c15.753846 0 27.569231 0 43.323076-3.938462l43.323077 208.738462c-27.569231 3.938462-55.138462 7.876923-86.646153 7.876923-232.369231 0-421.415385-189.046154-421.415385-421.415385s189.046154-421.415385 421.415385-421.415385c228.430769 0 413.538462 181.169231 421.415384 405.661539v11.815385l-212.676923 3.938461z"  horiz-adv-x="1024" />

    
    <glyph glyph-name="bulletin-o" unicode="&#58891;" d="M531.692308 703.015385v-638.03077l-252.061539 204.8V502.153846l252.061539 200.861539m19.692307 86.646153c-19.692308 0-39.384615-7.876923-63.015384-23.630769l-287.507693-228.430769v-307.2l283.569231-232.369231c23.630769-15.753846 43.323077-23.630769 59.076923-23.630769 39.384615 0 66.953846 31.507692 66.953846 82.707692V710.892308c0 51.2-23.630769 78.769231-59.076923 78.76923zM55.138462 557.292308h86.646153v-342.646154H55.138462zM941.961846 700.1796919999999l35.249231-70.498461-126.818462-63.409231-35.209846 70.498462zM857.836308 211.652923l118.19323-70.892308-40.526769-67.584-118.153846 70.892308zM858.584615 423.384615h141.784616v-78.76923h-141.784616zM673.476923 588.8v-94.523077c27.569231-23.630769 43.323077-66.953846 43.323077-110.276923s-15.753846-82.707692-47.261538-114.215385v-94.523077c70.892308 43.323077 122.092308 118.153846 122.092307 204.8 3.938462 94.523077-47.261538 169.353846-118.153846 208.738462z"  horiz-adv-x="1024" />

    
    <glyph glyph-name="report-o" unicode="&#58892;" d="M745.440613 356.29118733333337c98.084291 0 184.398467-86.314176 184.398467-184.398467 0-102.007663-82.390805-184.398467-184.398467-184.398467s-184.398467 82.390805-184.398467 184.398467c-3.923372 98.084291 82.390805 184.398467 184.398467 184.398467m0 86.314177c-149.088123 0-274.636015-121.624521-274.636015-274.636016s121.624521-274.636015 274.636015-274.636015 274.636015 121.624521 274.636015 274.636015-129.471264 274.636015-274.636015 274.636016zM788.597701 132.65900333333332h-90.237548v137.318008H784.67433V132.65900333333332zM784.67433 222.89655133333338h74.544061V132.65900333333332H784.67433zM741.517241 650.5440613333334v-70.62069H251.095785v78.467433h490.421456zM400.183908 26.727969333333363H235.402299c-35.310345 0-62.773946 27.463602-62.773947 62.773946V744.7049813333333c0 19.616858 7.846743 35.310345 15.693487 47.080459 15.693487 7.846743 31.386973 15.693487 47.08046 15.693487h549.272031c35.310345 0 62.773946-31.386973 62.773946-62.773946v-231.478928h82.390804V740.7816093333333c0 82.390805-62.773946 141.241379-141.241379 141.241379H243.249042c-3.923372 3.923372-149.088123 0-145.164751-137.318007v-655.203066c0-82.390805 62.773946-141.241379 141.241379-141.241379h160.858238v78.467433zM423.724138 477.9157083333333v-74.544061h-172.628353v78.467433h172.628353z"  horiz-adv-x="1024" />

    
    <glyph glyph-name="report" unicode="&#58893;" d="M716.8 352.492308c-129.969231 0-240.246154-106.338462-240.246154-240.246154s106.338462-240.246154 240.246154-240.246154c133.907692 0 240.246154 106.338462 240.246154 240.246154s-114.215385 240.246154-240.246154 240.246154z m35.446154-275.692308H669.538462v165.415385h78.76923l3.938462-165.415385z m0 0v78.769231h110.276923v-78.769231h-110.276923zM744.369231 860.553846H212.676923c-82.707692 0-141.784615-59.076923-141.784615-137.846154l-3.938462-661.661538c0-78.769231 59.076923-137.846154 137.846154-137.846154H433.230769c-35.446154 47.261538-55.138462 118.153846-55.138461 185.107692 0 189.046154 153.6 342.646154 342.646154 342.646154 55.138462 0 106.338462-15.753846 153.6-39.384615l3.938461 311.138461c3.938462 78.769231-55.138462 137.846154-133.907692 137.846154z m-366.276923-370.215384v-74.83077H228.430769v78.769231h149.661539v-3.938461z m342.646154 177.230769v-70.892308H228.430769v78.769231h492.307693v-7.876923z"  horiz-adv-x="1024" />

    
    <glyph glyph-name="bulletin" unicode="&#58894;" d="M476.553846 766.030769L189.046154 537.6v-307.2l283.569231-232.369231c66.953846-47.261538 126.030769-15.753846 126.030769 59.076923V710.892308c0 74.830769-55.138462 102.4-122.092308 55.138461zM43.323077 557.292308h86.646154v-342.646154H43.323077zM930.619077 699.864615l35.209846-70.419692-126.818461-63.409231-35.209847 70.459077zM844.327385 208.18707700000004l118.153846-70.931692-40.526769-67.544616-118.153847 70.971077zM846.769231 423.384615h141.784615v-78.76923h-141.784615zM661.661538 588.8v-94.523077c27.569231-23.630769 43.323077-66.953846 43.323077-110.276923s-15.753846-82.707692-47.261538-114.215385v-94.523077c70.892308 43.323077 122.092308 118.153846 122.092308 204.8 3.938462 94.523077-47.261538 169.353846-118.153847 208.738462z"  horiz-adv-x="1024" />

    
    <glyph glyph-name="crm" unicode="&#58895;" d="M964.923077 494.276923l-228.430769-118.153846v-405.661539c0-31.507692 51.2-55.138462 110.276923-55.138461s114.215385 31.507692 114.215384 66.953846l3.938462 512zM630.153846 289.47692300000006l-228.430769-118.153846v-208.738462c0-31.507692 51.2-55.138462 110.276923-55.138461s114.215385 31.507692 114.215385 66.953846l3.938461 315.076923zM307.2 376.12307699999997l-228.430769-118.153846v-287.507693c0-35.446154 51.2-55.138462 114.215384-55.138461s114.215385 31.507692 114.215385 66.953846v338.707692 55.138462zM500.184615 458.830769c-3.938462-3.938462-39.384615 0-47.261538 3.938462l-173.292308 78.769231-216.615384-110.276924V545.4769229999999l185.107692 102.4 3.938461 3.938462c19.692308 3.938462 31.507692 7.876923 47.261539 0l169.353846-82.707693 315.076923 185.107693L669.538462 860.553846h283.56923v-287.507692l-110.276923 110.276923-342.646154-224.492308z"  horiz-adv-x="1024" />

    
    <glyph glyph-name="portal" unicode="&#58896;" d="M948.880309 650.8725870000001V741.80695c0 43.490347-35.583012 79.073359-79.073359 79.073359h-711.660232c-43.490347 0-79.073359-35.583012-79.073359-79.073359v-90.934363h869.80695zM79.073359 571.7992280000001h395.366795v-209.544402h-395.366795zM79.073359 26.19304999999997c0-43.490347 35.583012-79.073359 79.073359-79.073359h316.293436v332.108108h-395.366795v-253.034749zM553.513514 571.7992280000001V-48.92664100000002h316.293436c43.490347 0 79.073359 35.583012 79.073359 79.073359v541.65251h-395.366795z"  horiz-adv-x="1024" />

    
    <glyph glyph-name="approval" unicode="&#58897;" d="M512 856.6153850000001c-70.892308 0-141.784615-27.569231-196.923077-78.769231-106.338462-106.338462-90.584615-283.569231 7.876923-401.723077 19.692308-23.630769-47.261538-98.461538-43.323077-118.153846H141.784615c-55.138462 0-78.769231-23.630769-78.76923-78.769231v-118.153846h897.96923v114.215384c-3.938462 51.2-31.507692 82.707692-86.646153 82.707693h-129.969231c7.876923 23.630769-63.015385 94.523077-43.323077 114.215384 15.753846 19.692308 35.446154 39.384615 47.261538 63.015385 74.830769 118.153846 47.261538 271.753846-59.076923 358.4C638.030769 836.923077 575.015385 856.6153850000001 512 856.6153850000001zM118.153846-88.61538499999995h795.569231v78.769231H118.153846v-78.769231z"  horiz-adv-x="1024" />

    
    <glyph glyph-name="meeting" unicode="&#58898;" d="M657.723077 710.892308H133.907692C82.707692 710.892308 39.384615 667.569231 39.384615 616.369231v-523.815385c0-51.2 43.323077-94.523077 94.523077-94.523077h523.815385c51.2 0 94.523077 43.323077 94.523077 94.523077V616.369231c3.938462 51.2-39.384615 94.523077-94.523077 94.523077zM307.2 202.83076900000003v315.076923l271.753846-157.538461-271.753846-157.538462zM783.753846 576.9846150000001c-47.261538-23.630769-82.707692-90.584615-82.707692-141.784615v-153.6c0-51.2 39.384615-118.153846 82.707692-141.784615l118.153846-66.953847c47.261538-27.569231 82.707692-3.938462 82.707693 47.261539V596.676923c0 51.2-39.384615 74.830769-82.707693 47.261539l-118.153846-66.953847z"  horiz-adv-x="1024" />

    
    <glyph glyph-name="okr-o" unicode="&#58899;" d="M988.553846 679.3846149999999h-177.230769v181.169231l-59.076923-55.138461-129.969231-129.969231-7.876923-137.846154-177.230769-173.292308 59.076923-55.138461 173.292308 177.230769 145.723076 7.876923 129.969231 137.846154 43.323077 47.261538z m-212.676923-129.96923h-82.707692v86.646153l66.953846 66.953847v-82.707693h82.707692l-66.953846-70.892307zM456.861538-88.61538499999995c-232.369231 0-421.415385 189.046154-421.415384 421.415385 0 232.369231 189.046154 421.415385 421.415384 421.415385 31.507692 0 63.015385-3.938462 94.523077-11.815385l-19.692307-74.830769c-23.630769 3.938462-51.2 7.876923-78.769231 7.876923-189.046154 0-342.646154-153.6-342.646154-342.646154 0-189.046154 153.6-342.646154 342.646154-342.646154 189.046154 0 342.646154 153.6 342.646154 342.646154v23.630769l78.769231 3.938462v-31.507693c3.938462-228.430769-185.107692-417.476923-417.476924-417.476923zM456.861538 92.55384600000002c-129.969231 0-236.307692 106.338462-236.307692 236.307692s106.338462 236.307692 236.307692 236.307693c19.692308 0 35.446154-3.938462 55.138462-7.876923l-19.692308-74.83077c-11.815385 3.938462-23.630769 3.938462-35.446154 3.938462-86.646154 0-157.538462-70.892308-157.538461-157.538462s70.892308-157.538462 157.538461-157.538461 157.538462 70.892308 157.538462 157.538461v11.815385l78.769231 3.938462v-15.753847c-3.938462-126.030769-106.338462-236.307692-236.307693-236.307692z"  horiz-adv-x="1024" />

    
    <glyph glyph-name="task-o" unicode="&#58900;" d="M524.8 226.46153800000002l-165.415385 157.538462 55.138462 55.138462 106.338461-98.461539 212.676924 224.492308 59.076923-55.138462zM832.0000000000001 699.076923c63.015385 0 114.215385-51.2 114.215385-114.215385v-346.584615l-153.6-173.292308h-472.615385c-63.015385 0-114.215385 51.2-114.215385 114.215385v405.661538c0 63.015385 51.2 114.215385 114.215385 114.215385h512m0 78.769231h-508.061538c-106.338462 0-192.984615-86.646154-192.984616-192.984616v-405.661538c0-106.338462 86.646154-192.984615 192.984616-192.984615h508.061538l192.984615 224.492307v374.153846c0 110.276923-86.646154 192.984615-192.984615 192.984616z"  horiz-adv-x="1171" />

    
    <glyph glyph-name="calendar" unicode="&#58901;" d="M39.385 368.246v-259.938c0-86.646 70.892-157.539 157.538-157.539h630.154c86.646 0 157.538 70.893 157.538 157.539V368.246H39.385z m945.23 78.77V580.922c0 86.646-70.892 157.539-157.538 157.539H819.2v-216.616H575.015V738.462H460.8v-216.616H216.615V738.462h-19.692c-86.646 0-157.538-70.893-157.538-157.539v-133.908h945.23zM295.385 821.17h78.769v-228.432h-78.77zM653.785 821.17h78.769v-228.432h-78.77z"  horiz-adv-x="1024" />

    
    <glyph glyph-name="drive-o" unicode="&#58902;" d="M803.446154 703.015385h-307.2c-7.876922999999998 7.876922999999998-11.815385 15.753845999999996-19.692307999999993 23.630769-47.261538 63.015385-98.461538 122.092308-181.169231 122.092308h-70.892307c-102.4 0-181.169231-78.769231-181.169231-181.169231v-543.507693c0-102.4 78.769231-181.169231 181.169231-181.16923h578.953846c102.4 0 181.169231 82.707692 181.169231 181.16923v397.784616c0 102.4-82.707692 181.169231-181.169231 181.169231z m-582.892308 66.953846h70.892308c39.384615 0 70.892308-31.50769199999999 118.153846-90.58461599999997l7.876922999999998-7.876922999999998s0-3.938462 3.938462-3.9384609999999998c3.938462-3.938462 7.876922999999998-11.815385 15.753845999999996-19.692307999999993 15.753845999999996-15.753845999999996 35.446154-23.630769 55.138461-23.630769h307.2c59.076923 0 102.4-43.323077 102.4-102.4v-19.692307999999993H118.15384599999999v165.415385c0 59.076923 47.261538 102.4 102.4 102.4z m582.892308-748.307693h-578.953846c-59.076923 0-102.4 43.323077-102.4 102.4V423.384615h783.753846v-299.323077c0-55.138462-47.261538-102.4-102.4-102.4z"  horiz-adv-x="1105" />

    
    <glyph glyph-name="contacts-o" unicode="&#58903;" d="M838.25-66H279.5000002929687c-63.74999970703124 0-112.5 48.75000029296875-112.5 112.5v60.00000029296874h74.99999970703125V46.5c0-22.5 15.00000029296875-37.50000029296875 37.50000029296875-37.50000029296875h558.7499997070313c22.5 0 37.50000029296875 15.00000029296875 37.50000029296875 37.50000029296875V706.4999997070313c0 22.5-15.00000029296875 37.50000029296875-37.50000029296875 37.50000029296875H279.5000002929687c-22.5 0-37.50000029296875-15.00000029296875-37.50000029296875-37.50000029296875v-45h-74.99999970703125V706.4999997070313c0 63.74999970703124 48.75000029296875 112.5 112.5 112.5h558.7499997070313c63.74999970703124 0 112.5-48.75000029296875 112.5-112.5V46.5c0-63.74999970703124-48.75000029296875-112.5-112.5-112.5zM99.50000029296876 571.4999997070313h149.9999994140625v-74.99999970703125H99.50000029296876zM99.50000029296876 421.50000029296876h149.9999994140625v-75.0000005859375H99.50000029296876zM99.50000029296876 271.5h149.9999994140625v-74.99999970703125H99.50000029296876zM557 548.9999997070313c41.24999970703125 0 74.99999970703125-33.75 74.99999970703125-74.99999970703125s-33.75-74.99999970703125-74.99999970703125-74.99999970703125-74.99999970703125 33.75-74.99999970703125 74.99999970703125 33.75 74.99999970703125 74.99999970703125 74.99999970703125m0 75.0000005859375c-82.50000029296875 0-150.00000029296874-67.5-150.00000029296874-150.00000029296874s67.5-150.00000029296874 150.00000029296874-150.00000029296874 150.00000029296874 67.5 150.00000029296874 150.00000029296874-63.74999970703124 150.00000029296874-150.00000029296874 150.00000029296874zM429.4999997070313 159c11.25 74.99999970703125 71.25000029296874 116.25000029296875 138.75000029296874 116.25000029296875s127.50000029296874-41.24999970703125 138.75000029296874-116.25000029296875h74.99999970703125c-15.00000029296875 112.5-105.00000029296875 191.25-213.75 191.25S369.5000002929687 271.5 354.5 159h74.99999970703125z"  horiz-adv-x="1024" />

    
    <glyph glyph-name="message-o" unicode="&#58904;" d="M906.8307690000001-29.53846199999998l-192.984615 137.846154h-256c-189.046154 0-342.646154 153.6-342.646154 342.646154 0 189.046154 153.6 342.646154 342.646154 342.646154h236.307692c189.046154 0 342.646154-153.6 342.646154-342.646154 0-98.461538-43.323077-192.984615-122.092308-259.938461l-7.876923-3.938462s-3.938462 0-3.938461-3.938461l3.938461-212.676924z m-161.476923 212.676924l82.707692-59.076924v98.461539l19.692308 11.815385c7.876923 3.938462 7.876923 3.938462 11.815385 7.876923l7.876923 7.876923c59.076923 51.2 94.523077 122.092308 94.523077 200.861538 0 145.723077-118.153846 263.876923-263.876923 263.876923h-236.307693a263.876923 263.876923 0 0 1 0-527.753846l283.569231-3.938461z"  horiz-adv-x="1177" />

    
    <glyph glyph-name="calendar-o" unicode="&#58905;" d="M869.7435896666667 738.461538h-118.153846v78.769231h-78.769231v-78.769231h-275.692308v78.769231h-78.76923v-78.769231h-78.769231c-86.646154 0-157.538462-70.892308-157.538462-157.538461v-472.615385c0-86.646154 70.892308-157.538462 157.538462-157.538461h630.153846c86.646154 0 157.538462 70.892308 157.538462 157.538461v472.615385c0 86.646154-70.892308 157.538462-157.538462 157.538461z m78.769231-630.153846c0-43.323077-35.446154-78.769231-78.769231-78.76923h-630.153846c-43.323077 0-78.769231 35.446154-78.769231 78.76923v315.076923h787.692308v-315.076923z m-787.692308 393.846154v78.769231c0 43.323077 35.446154 78.769231 78.769231 78.769231h78.769231v-39.384616h78.76923v39.384616h275.692308v-39.384616h78.769231v39.384616h118.153846c43.323077 0 78.769231-35.446154 78.769231-78.769231v-78.769231h-787.692308z"  horiz-adv-x="1109" />

    
    <glyph glyph-name="task" unicode="&#58906;" d="M832.0000000000001 777.846154h-508.061538c-106.338462 0-192.984615-86.646154-192.984616-192.984616v-405.661538c0-106.338462 86.646154-192.984615 192.984616-192.984615h508.061538l192.984615 224.492307v374.153846c0 114.215385-86.646154 192.984615-192.984615 192.984616z m-307.2-551.384616l-165.415385 157.538462 55.138462 55.138462 106.338461-98.461539 212.676924 224.492308 59.076923-55.138462-267.815385-283.569231z"  horiz-adv-x="1177" />

    
    <glyph glyph-name="apps-o" unicode="&#58907;" d="M860.918519 672.237037l-261.688889 144.118519c-26.548148 15.17037-56.888889 22.755556-87.22963 22.755555s-60.681481-7.585185-87.22963-22.755555l-261.688889-147.911112c-53.096296-30.340741-87.22963-83.437037-87.229629-144.118518v-284.444445c0-60.681481 34.133333-113.777778 87.229629-147.911111l261.688889-144.118518c26.548148-15.17037 56.888889-18.962963 87.22963-18.962963s60.681481 7.585185 87.22963 15.17037l261.688889 144.118519c53.096296 30.340741 87.22963 87.22963 87.229629 147.911111v288.237037c0 60.681481-34.133333 113.777778-87.229629 147.911111z m-402.014815 79.644444c15.17037 7.585185 34.133333 11.377778 49.303703 11.377778s34.133333-3.792593 49.303704-15.17037l261.688889-144.118519 11.377778-11.377777-314.785185-163.081482-310.992593 178.251852 254.103704 144.118518z m-261.688889-595.437037c-30.340741 18.962963-49.303704 49.303704-49.303704 83.437037v284.444445c0 11.377778 3.792593 18.962963 7.585185 30.340741l329.955556-185.837037v-360.296297c-7.585185 3.792593-15.17037 3.792593-22.755556 7.585186l-265.481481 140.325925z m675.081481 79.644445c0-34.133333-18.962963-64.474074-49.303703-83.437037l-257.896297-140.325926c-3.792593 0-7.585185 0-7.585185-3.792593V365.03703700000005l314.785185 159.288889v-288.237037z"  horiz-adv-x="1024" />

    
    <glyph glyph-name="drive" unicode="&#58908;" d="M984.6153850000001 490.338462v19.692306999999996c0 102.4-78.769231 181.169231-181.169231 181.169231h-307.2c-7.876922999999999 7.876922999999999-11.815385 15.753845999999998-19.692307999999997 23.630769-47.261538 63.015385-98.461538 122.092308-181.169231 122.092308h-70.892307c-102.4 0-181.169231-78.769231-181.169231-181.169231v-165.415384h941.292308zM39.384615 411.56923099999995v-299.323077c0-102.4 78.769231-181.169231 181.169231-181.169231h578.953846c102.4 0 181.169231 82.707692 181.169231 181.169231v299.323077H39.384615z"  horiz-adv-x="1068" />

    
    <glyph glyph-name="apps" unicode="&#58909;" d="M102.4 620.307692l409.6 236.307693 413.538462-236.307693-417.476924-236.307692-405.661538 236.307692zM531.692308 305.230769l433.230769 236.307693v-393.846154l-433.230769-236.307693v393.846154zM468.676923 305.230769l-409.6 236.307693v-393.846154l409.6-236.307693v393.846154z"  horiz-adv-x="1024" />

    
    <glyph glyph-name="message" unicode="&#58910;" d="M916.3487183333335-29.53846199999998l-192.984616 137.846154h-256c-189.046154 0-342.646154 153.6-342.646154 342.646154 0 189.046154 153.6 342.646154 342.646154 342.646154h236.307693c189.046154 0 342.646154-153.6 342.646153-342.646154 0-98.461538-43.323077-192.984615-122.092307-259.938461l-7.876923-3.938462s-3.938462 0-3.938462-3.938461l3.938462-212.676924z"  horiz-adv-x="1177" />

    
    <glyph glyph-name="portal-department-o" unicode="&#58911;" d="M953.6 832h-883.2v-889.6h889.6l-6.4 889.6z m-697.6-64h64v-128h-64v128z m-128 0h64v-128h-64v128z m0-192h755.2v-121.6H128V576z m435.2-576h-435.2v384h435.2v-384z m326.4 0h-256v384h256v-384z m0 640h-499.2v128h499.2v-128z"  horiz-adv-x="1024" />

    
    <glyph glyph-name="portal-personal-o" unicode="&#58912;" d="M947.2 825.6H64V-64h889.6l-6.4 889.6z m-64-64v-134.4h-499.2v134.4h499.2z m-563.2 0v-134.4h-64v134.4h64z m-192 0h64v-134.4h-64v134.4z m64-198.4h307.2v-256h-371.2v256h64z m-64-320h371.2v-243.2h-371.2v243.2z m435.2-243.2v563.2h320v-563.2h-320z"  horiz-adv-x="1024" />

    
    <glyph glyph-name="portal-custom-o" unicode="&#58913;" d="M64 832v-889.6h889.6V832H64z m832-243.2h-441.6V768h441.6v-179.2z m-601.6 0V768h89.6v-172.8h-89.6z m38.4-64v-358.4h-204.8v358.4h204.8z m64 0h211.2v-358.4h-211.2v358.4z m275.2 0h217.6v-358.4h-217.6v358.4z m-441.6 243.2v-172.8h-102.4V768h102.4z m-102.4-768v108.8h761.6v-102.4H128v-6.4z"  horiz-adv-x="1024" />

    
    <glyph glyph-name="portal-team-o" unicode="&#58914;" d="M947.2 819.2H64v-889.6h889.6l-6.4 889.6z m-64-64v-128h-499.2v128h499.2z m-384-556.8h-371.2v140.8h371.2v-140.8z m64 364.8h320v-364.8h-320v364.8z m-243.2 192v-128h-64v128h64z m-192 0h64v-128h-64v128z m64-192h307.2v-160h-371.2v160h64z m-64-428.8h371.2v-140.8h-371.2v140.8z m435.2-140.8v140.8h320v-140.8h-320z"  horiz-adv-x="1024" />

    
    <glyph glyph-name="more" unicode="&#58915;" d="M744.727273 314.181818c-37.236364 0-69.818182 32.581818-69.818182 69.818182s32.581818 69.818182 69.818182 69.818182 69.818182-32.581818 69.818182-69.818182-32.581818-69.818182-69.818182-69.818182z m-232.727273 0c-37.236364 0-69.818182 32.581818-69.818182 69.818182s32.581818 69.818182 69.818182 69.818182 69.818182-32.581818 69.818182-69.818182-32.581818-69.818182-69.818182-69.818182z m-232.727273 0c-37.236364 0-69.818182 32.581818-69.818182 69.818182S242.036364 453.818182 279.272727 453.818182s69.818182-32.581818 69.818182-69.818182-32.581818-69.818182-69.818182-69.818182z"  horiz-adv-x="1024" />

    
    <glyph glyph-name="folder" unicode="&#58916;" d="M1000.727273 570.181818v-512c0-51.2-41.890909-93.090909-93.090909-93.090909h-791.272728c-51.2 0-93.090909 41.890909-93.090909 93.090909V709.818182c0 51.2 41.890909 93.090909 93.090909 93.090909h325.818182c83.781818 0 60.509091-139.636364 139.636364-139.636364h321.163636c55.854545 0 97.745455-37.236364 97.745455-93.090909z"  horiz-adv-x="1024" />

    
    <glyph glyph-name="download" unicode="&#58918;" d="M768-6.399999999999977H128v256h128v-128h512v128h128v-256H768z m-320 390.4V742.4h128v-358.4l147.2 147.2 89.6-89.6-256-256H467.2l-256 256 89.6 89.6L448 384z"  horiz-adv-x="1024" />

    
    <glyph glyph-name="upload" unicode="&#58919;" d="M768 6.399999999999977H128v256h128v-128h512v128h128v-256h-128zM576 563.2v-358.4H448V563.2l-147.2-147.2-89.6 89.6 256 256h89.6l256-256-89.6-89.6L576 563.2z"  horiz-adv-x="1024" />

    
    <glyph glyph-name="full-screen" unicode="&#58921;" d="M847.127273-81.45454500000005H176.872727C107.054545-81.45454500000005 46.545455-20.945455000000038 46.545455 48.872727000000054V719.1272730000001C46.545455 788.945455 107.054545 849.454545 176.872727 849.454545h670.254546C916.945455 849.454545 977.454545 788.945455 977.454545 719.1272730000001v-670.254546c0-69.818182-60.509091-130.327273-130.327272-130.327272zM176.872727 756.363636c-18.618182 0-37.236364-18.618182-37.236363-37.236363v-670.254546c0-18.618182 18.618182-37.236364 37.236363-37.236363h670.254546c18.618182 0 37.236364 18.618182 37.236363 37.236363V719.1272730000001c0 18.618182-18.618182 37.236364-37.236363 37.236363H176.872727zM763.345455 384h-83.781819V495.709091l-97.745454-97.745455-60.509091 60.509091 97.745454 97.745455H512V635.345455h251.345455V384z m-83.781819 167.563636zM512 216.43636400000003v-83.781819H260.654545V384h83.781819v-107.054545l97.745454 97.745454 60.509091-60.509091-97.745454-97.745454H512z m-167.563636 0z"  horiz-adv-x="1024" />

    
    <glyph glyph-name="view-history" unicode="&#58922;" d="M486.4-57.60000000000002H179.2c-51.2 0-96 44.8-96 96V716.8c0 51.2 44.8 96 96 96h620.8c51.2 0 96-44.8 96-96v-281.6h-64V716.8c0 19.2-19.2 32-32 32H179.2c-19.2 0-32-19.2-32-32v-678.4c0-19.2 19.2-32 32-32h307.2v-64zM716.8-6.399999999999977c-96 0-172.8 76.8-172.8 172.8s76.8 172.8 172.8 172.8c96 0 172.8-76.8 172.8-172.8s-76.8-172.8-172.8-172.8z m0 281.6c-57.6 0-108.8-51.2-108.8-108.8s51.2-108.8 108.8-108.8c57.6 0 108.8 51.2 108.8 108.8s-51.2 108.8-108.8 108.8zM842.88 96.63999999999999l128-96-38.4-51.2-128 96zM268.8 627.2h473.6v-64H268.8zM275.2 448h313.6v-64H275.2zM281.6 243.20000000000005h204.8v-64H281.6z"  horiz-adv-x="1024" />

    
    <glyph glyph-name="download-20" unicode="&#58920;" d="M948.3636359375 26.181818437499942c0-43.6363640625-30.545454375-78.545454375-91.636363125-78.545454375H154.1818184375c-43.6363640625 0-78.545454375 34.90909125-78.545454375 78.545454375V305.4545456249999C75.63636406249998 344.7272728125 106.1818184375 384 158.54545437499996 384H206.54545437500002c21.8181815625 0 43.6363640625-17.454545625 43.6363640625-43.6363640625 0-21.8181815625-17.454545625-43.6363640625-43.6363640625-43.636363125s-43.6363640625-21.8181815625-43.636363125-43.6363640625v-174.545454375c0-21.8181815625 17.454545625-43.6363640625 43.636363125-43.636363125h610.90909125c21.8181815625 0 43.6363640625 17.454545625 43.636363125 43.636363125V253.09090875000004c0 21.8181815625-17.454545625 43.6363640625-43.636363125 43.6363640625-21.8181815625 0-43.6363640625 17.454545625-43.6363640625 43.636363125 0 21.8181815625 17.454545625 43.6363640625 43.6363640625 43.6363640625h52.3636359375c43.6363640625 0 78.545454375-34.90909125 78.545454375-78.545454375v-279.27272718750004z m-248.727271875 414.545454375c-17.454545625 17.454545625-43.6363640625 17.454545625-61.090909687499995 4.3636359375l-43.636363125-43.636363125c-17.454545625-13.090908749999999-39.2727271875-4.3636359375-39.2727271875 17.454545625V776.7272728125c0 26.1818184375-17.454545625 43.6363640625-43.6363640625 43.636363125s-43.6363640625-17.454545625-43.6363640625-43.636363125v-357.8181815625c0-17.454545625-21.8181815625-30.545454375-34.9090903125-17.454545625l-43.6363640625 39.2727271875c-17.454545625 17.454545625-43.6363640625 17.454545625-61.09090875 0-17.454545625-17.454545625-17.454545625-43.6363640625 0-61.09090875l122.1818184375-117.8181825c34.90909125-30.545454375 87.2727271875-30.545454375 122.1818175 0l122.1818184375 117.8181825c17.454545625 17.454545625 17.454545625 43.6363640625 4.363636875 61.09090875z"  horiz-adv-x="1024" />

    
    <glyph glyph-name="heart" unicode="&#58923;" d="M730.763636 747.054545c-93.090909 0-176.872727-55.854545-218.763636-134.981818-41.890909 79.127273-125.672727 134.981818-218.763636 134.981818C158.254545 747.054545 46.545455 630.6909089999999 46.545455 491.054545c0-37.236364 9.309091-74.472727 27.927272-102.4 88.436364-139.636364 437.527273-432.872727 437.527273-432.872727s349.090909 293.236364 437.527273 432.872727c18.618182 27.927273 27.927273 65.163636 27.927272 102.4 0 139.636364-111.709091 256-246.690909 256z"  horiz-adv-x="1024" />

    
    <glyph glyph-name="edit-square-lg" unicode="&#58927;" d="M977.454545-76.79999999999995h-926.254545V849.454545h484.072727v-93.09090899999998h-390.981818v-740.072727h740.072727v381.672727h93.09090899999998zM297.89090899999997 128v214.109091l446.836364 456.145454 186.18181799999996-186.18181799999996-442.181818-451.490909-190.836364-32.58181799999999z m93.09090899999998 176.872727v-65.16363599999998l51.2 9.309091 358.4 367.70909099999994-55.854545 51.2-353.74545499999994-363.054546z"  horiz-adv-x="1024" />

    
    <glyph glyph-name="heart-o" unicode="&#58924;" d="M846.147368 734.315789C943.157895 734.315789 1024 648.084211 1024 545.684211c0-21.557895-5.389474-48.505263-16.168421-64.673685-64.673684-97.010526-280.252632-296.421053-414.989474-414.989473-134.736842 118.568421-350.315789 317.978947-414.989473 414.989473-10.778947 21.557895-16.168421 43.115789-16.168421 64.673685C161.684211 648.084211 242.526316 734.315789 339.536842 734.315789c64.673684 0 123.957895-37.726316 156.294737-97.010526 16.168421-37.726316 53.894737-59.284211 97.010526-59.28421s75.452632 21.557895 97.010527 59.28421c32.336842 59.284211 91.621053 97.010526 156.294736 97.010526m0 107.789474c-107.789474 0-204.8-64.673684-253.305263-156.294737C544.336842 777.431579 447.326316 842.105263 339.536842 842.105263 183.242105 842.105263 53.894737 712.757895 53.894737 545.684211c0-43.115789 10.778947-86.231579 32.336842-118.568422C188.631579 270.821053 592.842105-74.10526300000004 592.842105-74.10526300000004s404.210526 344.926316 506.610527 501.221052c21.557895 32.336842 32.336842 75.452632 32.336842 118.568422C1131.789474 712.757895 1002.442105 842.105263 846.147368 842.105263z"  horiz-adv-x="1185" />

    
    <glyph glyph-name="attachment-lg" unicode="&#58928;" d="M747.6363640625 645.8181815625001c21.8181815625 0 43.6363640625-21.8181815625 43.636363125-43.636363125l-4.3636359375-567.2727271875c0-48-39.2727271875-87.2727271875-87.2727271875-87.2727271875H267.6363640625c-48 0-87.2727271875 39.2727271875-87.272728125 87.2727271875l4.363636875 698.1818175c0 48 39.2727271875 87.2727271875 87.2727271875 87.2727271875h261.8181815625c48 0 87.2727271875-39.2727271875 87.2727271875-87.2727271875l-4.3636359375-523.636363125c0-48-39.2727271875-87.2727271875-87.2727271875-87.2727271875h-87.2727271875c-48 0-87.2727271875 39.2727271875-87.2727271875 87.2727271875l4.3636359375 392.7272728125c0 26.1818184375 17.454545625 43.6363640625 43.6363640625 43.636363125 21.8181815625 0 43.6363640625-21.8181815625 43.636363125-43.636363125l-4.3636359375-349.09090968749996c0-26.1818184375 17.454545625-43.6363640625 43.636363125-43.636363125 21.8181815625 0 43.6363640625 17.454545625 43.6363640625 43.636363125l4.3636359375 436.363636875c0 26.1818184375-17.454545625 43.6363640625-43.636363125 43.636363125h-174.545454375c-21.8181815625 0-43.6363640625-17.454545625-43.6363640625-43.636363125l-4.3636359375-610.90909125c0-26.1818184375 17.454545625-43.6363640625 43.636363125-43.636363125h344.7272728125c26.1818184375 0 43.6363640625 17.454545625 43.6363640625 43.636363125l4.3636359375 523.6363640625c0 21.8181815625 21.8181815625 43.6363640625 43.6363640625 43.636363125z"  horiz-adv-x="1024" />

    
    <glyph glyph-name="send-square-lg" unicode="&#58929;" d="M948.3636359375-52.36363593750002h-872.727271875v872.727271875h414.545454375v-87.2727271875h-327.2727271875v-698.1818175h698.1818175v314.1818175h87.2727271875zM858.4727271875 799.025454375l61.7018184375-61.7018184375-361.003636875-361.0036359375-61.745454375 61.7018184375zM664.7272728125 820.3636359375h283.636363125v-87.2727271875h-283.636363125zM861.09090875 820.3636359375h87.2727271875v-283.636363125h-87.2727271875z"  horiz-adv-x="1024" />

    
    <glyph glyph-name="angle-left" unicode="&#58930;" d="M627.2 102.39999999999998L326.4 384l300.8 281.6 44.8-51.2L422.4 384l249.6-230.4z"  horiz-adv-x="1024" />

    
    <glyph glyph-name="list-ul" unicode="&#58940;" d="M256 115.20000000000005v64h704v-64h-704z m0 320h704v-64h-704v64z m0 256h704v-64h-704v64z m-192-512h64v-64h-64v64z m0 256h64v-64h-64v64z m0 256h64v-64h-64v64zM256 115.20000000000005v64h704v-64h-704z m0 320h704v-64h-704v64z m0 256h704v-64h-704v64z m-192-512h64v-64h-64v64z m0 256h64v-64h-64v64z m0 256h64v-64h-64v64z"  horiz-adv-x="1024" />

    
    <glyph glyph-name="circle-plus" unicode="&#58933;" d="M794.44471332 317.36201417999996h-226.96450168v-226.96450275h-110.96042328v226.96450275H229.55528668V428.32243746h226.96450168V655.2869391300001h110.96042328v-226.96450167h226.96450168v-110.96042328zM512 892.33875211C234.5989418 892.33875211 7.63444013 665.37425043 7.63444013 387.97319224s226.96450167-504.36555987 504.36555987-504.36555987 504.36555987 226.96450167 504.36555987 504.36555987S789.4010582 892.33875211 512 892.33875211z"  horiz-adv-x="1024" />

    
    <glyph glyph-name="arrow-up" unicode="&#58925;" d="M558.545455 160.581818h-93.09091v325.818182h93.09091v-325.818182zM665.6 318.836364L512 463.127273l-153.6-144.290909L293.236364 384 512 593.454545l218.763636-209.454545z"  horiz-adv-x="1024" />

    
    <glyph glyph-name="arrow-down" unicode="&#58926;" d="M451.490909 640h93.090909v-325.818182h-93.090909v325.818182zM344.436364 481.745455l153.6-144.29091 153.6 144.29091 65.163636-65.163637-218.763636-209.454545-218.763637 209.454545z"  horiz-adv-x="1024" />

    
    <glyph glyph-name="commenting-o" unicode="&#58934;" d="M512 768c211.2 0 384-147.2 384-326.4s-172.8-326.4-384-326.4c-44.8 0-57.6 6.4-96 12.8-6.4-6.4-19.2 0-32 0h-25.6c-32 0-70.4-12.8-115.2-32-12.8-6.4-32-12.8-51.2-12.8 0 6.4 0 12.8 6.4 19.2 12.8 64 19.2 115.2-6.4 153.6-44.8 57.6-64 121.6-64 185.6 0 179.2 172.8 326.4 384 326.4m0 64c-249.6 0-448-179.2-448-390.4 0-83.2 25.6-153.6 76.8-217.6 19.2-32-25.6-172.8-12.8-198.4 6.4-6.4 12.8-12.8 25.6-12.8 51.2 0 160 51.2 204.8 51.2h6.4c64-12.8 83.2-19.2 147.2-19.2 249.6 0 448 179.2 448 390.4s-198.4 396.8-448 396.8zM326.4 505.6h134.4v-134.4h-134.4zM569.6 512h134.4v-134.4h-134.4z"  horiz-adv-x="1024" />

    
    <glyph glyph-name="search-o" unicode="&#58935;" d="M953.6 0l-256 217.6c57.6 64 89.6 147.2 89.6 236.8 0 198.4-160 358.4-358.4 358.4s-358.4-160-358.4-358.4 160-358.4 358.4-358.4c83.2 0 160 32 224 76.8l262.4-224 38.4 51.2z m-819.2 454.4c0 160 128 294.4 294.4 294.4s294.4-134.4 294.4-294.4c0-166.4-134.4-294.4-294.4-294.4s-294.4 128-294.4 294.4z"  horiz-adv-x="1024" />

    
    <glyph glyph-name="th-plus" unicode="&#58936;" d="M960 448H576V832H448v-384H64v-128h384v-384h128V320h384z"  horiz-adv-x="1024" />

    
    <glyph glyph-name="trash-o" unicode="&#58937;" d="M675.84 770.8444444444444v-129.70666666666665H348.15999999999997V770.8444444444444h327.68m68.26666666666667 68.26666666666667H279.8933333333333v-266.24h464.2133333333333V839.1111111111111zM40.95999999999998 641.1377777777777h935.2533333333332v-68.26666666666667H40.95999999999998zM839.6800000000001-55.182222222222435H184.32V641.1377777777777h655.36v-696.3199999999999z m-587.0933333333332 68.26666666666667h518.8266666666666V572.8711111111112H252.5866666666667v-559.7866666666666zM375.4666666666667 456.8177777777779h68.26666666666667v-382.2933333333333H375.4666666666667zM573.44 456.8177777777779h68.26666666666667v-375.46666666666664h-68.26666666666667z"  horiz-adv-x="1024" />

    
    <glyph glyph-name="label-lg-o" unicode="&#58938;" d="M316.509091 742.4c237.381818-51.2 297.890909-83.781818 316.509091-97.745455l256-423.563636c4.654545-9.309091 9.309091-23.272727 4.654545-41.890909v-9.309091c-4.654545-9.309091-13.963636-23.272727-27.927272-27.927273l-279.272728-153.6-9.309091-4.654545-4.654545-4.654546c-4.654545 0-4.654545-4.654545-13.963636-4.654545-13.963636 0-37.236364 9.309091-46.545455 32.581818v9.309091l-260.654545 414.254546c0 18.618182 4.654545 93.090909 65.163636 311.854545m-60.509091 107.054545l-13.963636-41.890909c-111.709091-363.054545-83.781818-414.254545-69.818182-428.218181l260.654545-414.254546c27.927273-51.2 79.127273-79.127273 130.327273-79.127273 23.272727 0 46.545455 4.654545 69.818182 23.272728l279.272727 153.6c37.236364 18.618182 65.163636 51.2 74.472727 88.436363 13.963636 41.890909 4.654545 83.781818-13.963636 116.363637l-260.654545 428.218181c-32.581818 55.854545-242.036364 107.054545-414.254546 144.29091l-41.890909 9.30909zM432.872727 570.181818m-60.509091 0a60.509091 60.509091 0 1 1 121.018182 0 60.509091 60.509091 0 1 1-121.018182 0Z"  horiz-adv-x="1024" />

    
    <glyph glyph-name="angle-double-down" unicode="&#58939;" d="M512 358.4L230.4 659.2l51.2 38.4L512 454.4l230.4 243.2 51.2-38.4zM512 32l-281.6 294.4 51.2 44.8 230.4-256 230.4 256 51.2-44.8z"  horiz-adv-x="1024" />

    
    <glyph glyph-name="th-large" unicode="&#58941;" d="M558.545455-128V337.45454500000005h465.454545v-465.454545H558.545455zM558.545455 896h465.454545v-465.454545H558.545455V896z m-558.545455-558.545455h465.454545v-465.454545h-465.454545V337.45454500000005z m0 558.545455h465.454545v-465.454545h-465.454545V896z"  horiz-adv-x="1024" />

    
    <glyph glyph-name="filter-line" unicode="&#58942;" d="M228.072727 197.81818199999998h93.090909v-93.090909h-93.090909v-186.181818h-93.090909v186.181818h-93.090909v93.090909h93.090909V849.454545h93.090909v-651.636363z m325.818182 646.981818h-93.090909v-418.909091h-93.090909v-93.090909h93.090909v-418.909091h93.090909v418.909091h93.090909v93.090909h-93.090909v418.909091z m325.818182-181.527273V849.454545h-93.090909v-186.181818h-93.090909v-93.090909h93.090909v-651.636363h93.090909V570.181818h93.090909V663.272727h-93.090909z"  horiz-adv-x="1024" />

    
    <glyph glyph-name="project-add-o" unicode="&#58880;" d="M795.927273 826.181818l-577.163637-4.654545-176.872727-353.745455v-395.636363c0-69.818182 60.509091-130.327273 130.327273-130.327273h451.490909v93.090909h-451.490909c-18.618182 0-37.236364 18.618182-37.236364 37.236364v302.545454h158.254546v-130.327273h432.872727v130.327273h158.254545v-125.672727h93.090909v218.763636l-181.527272 358.4z m-167.563637-353.745454v-130.327273h-246.690909v130.327273h-232.727272l125.672727 265.309091h465.454545l125.672728-265.309091h-237.381819zM712.145455 114.03636400000005h246.690909v-93.090909h-246.690909zM791.272727 188.509091h93.090909v-242.036364h-93.090909z"  horiz-adv-x="1024" />

    
    <glyph glyph-name="portal-add-o" unicode="&#58945;" d="M530.618182-58.18181800000002h-502.690909v930.909091h930.909091v-521.309091h-93.090909v428.218182h-744.727273v-744.727273h409.6zM83.781818 667.927273h819.2v-93.090909h-819.2zM446.836364 621.3818180000001h93.090909v-679.563636h-93.090909zM69.818182 374.69090900000003h423.563636v-93.090909h-423.563636zM688.872727 128h265.309091v-93.090909h-265.309091zM777.309091 216.43636400000003h93.090909v-265.309091h-93.090909z"  horiz-adv-x="1024" />

    
    <glyph glyph-name="user-o" unicode="&#58946;" d="M934.4-51.200000000000045h-64v19.2c0 166.4-153.6 307.2-345.6 307.2-185.6 0-345.6-140.8-345.6-307.2v-19.2h-64v19.2c0 198.4 185.6 371.2 409.6 371.2s409.6-166.4 409.6-371.2v-19.2zM524.8 307.20000000000005c-147.2 0-268.8 121.6-268.8 268.8 0 147.2 121.6 268.8 268.8 268.8 147.2 0 268.8-121.6 268.8-268.8 0-153.6-121.6-268.8-268.8-268.8z m0 467.2c-115.2 0-204.8-89.6-204.8-204.8 0-115.2 89.6-204.8 204.8-204.8 115.2 0 204.8 89.6 204.8 204.8 0 121.6-89.6 204.8-204.8 204.8z"  horiz-adv-x="1024" />

    
    <glyph glyph-name="grade-o" unicode="&#58947;" d="M910.5714283203125 666.8571424804688h-96.42857080078126v122.14285751953125c0 19.28571416015625-12.85714248046875 32.142857519531255-32.142857519531255 32.142857519531255h-540c-19.28571416015625 0-32.142857519531255-12.85714248046875-32.142857519531255-32.142857519531255v-122.14285751953125h-96.42857080078126c-19.28571416015625 0-32.142857519531255-12.85714248046875-32.142857519531255-32.142856640625v-96.42857167968751c0-12.85714248046875 6.428571679687501-19.28571416015625 12.857143359375002-25.71428583984375l122.14285664062501-83.57142832031249c19.28571416015625-135 128.57142832031252-244.28571416015626 263.5714283203125-257.1428575195313v-128.57142832031252h-128.57142832031252c-19.28571416015625 0-32.142857519531255-12.85714248046875-32.142856640625-32.142856640625s12.85714248046875-32.142857519531255 32.142856640625-32.142857519531255h321.4285716796875c19.28571416015625 0 32.142857519531255 12.85714248046875 32.142856640625 32.142857519531255s-12.85714248046875 32.142857519531255-32.142856640625 32.142856640625h-128.57142832031252v128.57142832031252c141.42857167968748 12.85714248046875 250.71428583984374 122.14285751953125 263.5714283203125 257.1428575195313l122.14285664062501 83.57142832031249c6.428571679687501 6.428571679687501 12.85714248046875 12.85714248046875 12.857143359375002 25.71428583984375v96.42857167968751c0 19.28571416015625-12.85714248046875 32.142857519531255-32.142857519531255 32.142856640625z m-765-64.28571416015626h64.28571416015626V512.5714283203125l-64.28571416015626 45v45z m366.4285716796875-372.8571424804688c-128.57142832031252 0-237.85714248046875 109.28571416015625-237.85714248046875 237.85714248046875v289.28571416015626h475.7142849609375v-289.28571416015626c0-128.57142832031252-109.28571416015625-237.85714248046875-237.85714248046875-237.85714248046875z m366.4285716796875 327.8571424804688l-64.28571416015626-45v90h64.28571416015626v-45z"  horiz-adv-x="1024" />

    
    <glyph glyph-name="okr-sm-o" unicode="&#58949;" d="M966.4 652.8h-172.8V832l-51.2-51.2-128-128v-140.8l-179.2-172.8 38.4-38.4 179.2 179.2h140.8l128 128 44.8 44.8z m-192-128h-108.8V640l83.2 83.2v-108.8h108.8l-83.2-89.6zM460.8 140.79999999999995c-108.8 0-198.4 89.6-198.4 192 0 108.8 89.6 198.4 198.4 198.4 12.8 0 32 0 44.8-6.4l-12.8-64c-6.4 0-19.2 6.4-32 6.4-70.4 0-134.4-57.6-134.4-134.4 0-70.4 57.6-128 134.4-128 70.4 0 128 51.2 128 121.6l64-6.4c-6.4-96-89.6-179.2-192-179.2zM460.8-70.39999999999998c-224 0-409.6 185.6-409.6 409.6s185.6 409.6 409.6 409.6c19.2 0 38.4 0 57.6-6.4l-6.4-64c-19.2 0-32 6.4-51.2 6.4-192 0-345.6-153.6-345.6-345.6 0-192 153.6-345.6 345.6-345.6 179.2 0 326.4 134.4 339.2 313.6l64-6.4c-19.2-211.2-192-371.2-403.2-371.2z"  horiz-adv-x="1024" />

    
    <glyph glyph-name="edit-o" unicode="&#58950;" d="M742.4 748.8l134.4-140.8-384-396.8h-147.2v153.6l396.8 384m0 89.6l-454.4-441.6v-243.2h236.8l441.6 460.8-224 224zM64 12.799999999999955h883.2v-64H64z"  horiz-adv-x="1024" />

    
    <glyph glyph-name="user-group" unicode="&#59159;" d="M977.454545 183.85454500000003l-32.581818-4.654545h-79.127272c-37.236364 88.436364-97.745455 158.254545-181.527273 209.454545 32.581818 46.545455 46.545455 102.4 46.545454 162.909091 0 51.2-13.963636 97.745455-37.236363 139.636364h18.618182c83.781818 0 148.945455-65.163636 148.945454-148.945455 0-55.854545-32.581818-102.4-79.127273-130.327272 107.054545-18.618182 190.836364-111.709091 195.490909-228.072728z m-269.963636 79.127273c13.963636-13.963636 27.927273-32.581818 37.236364-46.545454 0 0 0-4.654545 4.654545-4.654546 4.654545-9.309091 13.963636-18.618182 18.618182-32.581818 23.272727-46.545455 41.890909-97.745455 41.890909-153.6l-46.545454-4.654545H97.745455l-46.545455 4.654545c9.309091 162.909091 125.672727 297.890909 279.272727 339.781818-69.818182 37.236364-111.709091 102.4-111.709091 186.181818 0 121.018182 93.090909 214.109091 214.109091 214.109091 79.127273 0 148.945455-41.890909 186.181818-102.4 9.309091-13.963636 13.963636-27.927273 18.618182-41.890909 0-4.654545 4.654545-9.309091 4.654546-18.618182 0-4.654545 0-9.309091 4.654545-13.963636 0-13.963636 4.654545-23.272727 4.654546-37.236364V514.327273c0-9.309091-4.654545-18.618182-4.654546-27.927273-4.654545-18.618182-13.963636-37.236364-23.272727-51.2-18.618182-27.927273-46.545455-55.854545-79.127273-69.818182h4.654546l41.890909-13.963636c9.309091-4.654545 13.963636-4.654545 18.618182-9.309091 9.309091-4.654545 13.963636-9.309091 23.272727-13.963636s23.272727-13.963636 32.581818-23.272728c4.654545-4.654545 13.963636-9.309091 18.618182-13.963636 9.309091-4.654545 13.963636-13.963636 23.272727-18.618182-4.654545 0 0-4.654545 0-9.309091z"  horiz-adv-x="1024" />

    
    <glyph glyph-name="contact-send" unicode="&#59160;" d="M864 115.20000000000005l96-166.4H518.4c-249.6 0-448 198.4-448 448s198.4 448 448 448 448-198.4 448-448c-6.4-115.2-44.8-204.8-102.4-281.6zM320 454.4c-38.4 0-64-25.6-64-64s25.6-64 64-64 64 25.6 64 64-25.6 64-64 64z m192 0c-38.4 0-64-25.6-64-64s25.6-64 64-64 64 25.6 64 64-25.6 64-64 64z m192 0c-38.4 0-64-25.6-64-64s25.6-64 64-64 64 25.6 64 64-25.6 64-64 64z"  horiz-adv-x="1024" />

    
    <glyph glyph-name="phone" unicode="&#59161;" d="M460.8 328.14545499999997C386.327273 402.618182 316.509091 486.4 349.090909 523.636364c51.2 51.2 93.090909 79.127273 4.654546 186.181818-83.781818 107.054545-144.290909 23.272727-190.836364-23.272727-55.854545-55.854545-4.654545-260.654545 200.145454-460.8 200.145455-200.145455 404.945455-256 460.8-200.145455 46.545455 46.545455 130.327273 107.054545 23.272728 190.836364-107.054545 88.436364-139.636364 41.890909-186.181818-4.654546-37.236364-32.581818-125.672727 37.236364-200.145455 116.363637z"  horiz-adv-x="1024" />

    
    <glyph glyph-name="organization" unicode="&#59162;" d="M400.290909 798.254545h200.145455v-190.836363H400.290909zM102.4 174.54545499999995h200.145455v-190.836364H102.4zM404.945455 174.54545499999995H605.090909v-190.836364H404.945455zM712.145455 174.54545499999995h200.145454v-190.836364h-200.145454zM479.418182 607.418182h46.545454v-251.345455h-46.545454zM786.618182 421.236364h46.545454v-260.654546h-46.545454zM479.418182 411.927273h46.545454v-251.345455h-46.545454zM172.218182 421.236364h46.545454v-251.345455h-46.545454zM195.490909 421.236364h619.054546v-46.545455H195.490909z"  horiz-adv-x="1024" />

    
    <glyph glyph-name="email" unicode="&#59163;" d="M507.345455 332.79999999999995l456.145454 321.163636c4.654545 0 4.654545 0 9.309091 4.654546-13.963636 32.581818-46.545455 60.509091-88.436364 60.509091H139.636364c-51.2 0-93.090909-41.890909-93.090909-93.090909v-4.654546l460.8-288.581818zM535.272727 239.70909099999994s-4.654545 0 0 0c-4.654545-4.654545-9.309091-4.654545-9.309091-4.654546h-18.618181c-4.654545 0-13.963636 0-18.618182 4.654546h-4.654546L46.545455 509.672727v-395.636363c0-51.2 41.890909-93.090909 93.090909-93.090909h740.072727c51.2 0 93.090909 41.890909 93.090909 93.090909V551.563636l-437.527273-311.854545z"  horiz-adv-x="1024" />

    
    <glyph glyph-name="add-member" unicode="&#59167;" d="M893.672727 137.30909099999997h-83.781818v88.436364h-93.090909v-88.436364h-88.436364v-93.090909h88.436364v-83.781818h93.090909v83.781818h83.781818zM712.145455 332.79999999999995c-18.618182 13.963636-41.890909 23.272727-60.509091 27.927273 60.509091 46.545455 97.745455 116.363636 97.745454 195.490909 0 134.981818-111.709091 246.690909-246.690909 246.690909s-246.690909-111.709091-246.690909-246.690909c0-79.127273 37.236364-148.945455 97.745455-195.490909-148.945455-60.509091-256-204.8-256-377.018182h93.090909c0 172.218182 139.636364 311.854545 311.854545 311.854545 55.854545 0 111.709091-13.963636 162.909091-46.545454l46.545455 83.781818z m-209.454546 381.672727c83.781818 0 153.6-69.818182 153.6-153.6s-69.818182-153.6-153.6-153.6-153.6 69.818182-153.6 153.6 69.818182 153.6 153.6 153.6z"  horiz-adv-x="1024" />

    
    <glyph glyph-name="message-add" unicode="&#58951;" d="M563.2 326.4h108.8v108.8h262.4v19.2c0 160-134.4 300.8-300.8 300.8h-268.8c-166.4 0-307.2-134.4-307.2-300.8v-38.4c0-96 38.4-172.8 102.4-230.4v-192l204.8 121.6h198.4c-44.8 0-76.8 0 0 0v211.2zM652.8 249.60000000000002h307.2v-70.4h-307.2zM774.4 364.79999999999995h70.4v-307.2h-70.4z"  horiz-adv-x="1108" />

    
    <glyph glyph-name="task-add" unicode="&#58952;" d="M768 793.6h-524.8c-64 0-121.6-57.6-121.6-134.4v-505.6c0-70.4 57.6-134.4 121.6-134.4h268.8V256h115.2v96h268.8v300.8c-6.4 83.2-64 140.8-128 140.8z m-313.6-460.8l-134.4 160 44.8 38.4 96-115.2 185.6 166.4 38.4-38.4-230.4-211.2zM588.8 166.39999999999998h313.6v-70.4h-313.6zM710.4 288h70.4v-313.6h-70.4z"  horiz-adv-x="1024" />

    
    <glyph glyph-name="calendar-add" unicode="&#58953;" d="M300.8 800h76.8v-211.2h-76.8v211.2zM633.6 800h76.8v-211.2h-76.8v211.2zM64 140.79999999999995c0-83.2 70.4-140.8 140.8-140.8h384v224h89.6v102.4h268.8v64H64v-249.6zM793.6 716.8l-6.4-198.4h-224v198.4h-108.8v-198.4h-230.4v198.4h-19.2c-83.2 0-140.8-70.4-140.8-140.8v-128h876.8v128c0 76.8-70.4 140.8-147.2 140.8zM659.2 153.60000000000002h307.2v-70.4h-307.2zM774.4 268.79999999999995h70.4v-307.2h-70.4z"  horiz-adv-x="1024" />

    
    <glyph glyph-name="drive-upload" unicode="&#58954;" d="M960 518.4c0 83.2-64 147.2-147.2 147.2h-332.8c-57.6 70.4-102.4 147.2-185.6 147.2h-76.8c-83.2 0-147.2-64-147.2-147.2v-563.2c0-83.2 64-147.2 147.2-147.2h595.2c83.2 0 147.2 64 147.2 147.2v416z m-320-262.4l-89.6 89.6v-211.2h-76.8v211.2l-89.6-89.6-57.6 57.6 128 128 51.2 51.2 6.4 6.4 179.2-179.2-51.2-64z"  horiz-adv-x="1024" />

    
    <glyph glyph-name="contract-o" unicode="&#58955;" d="M345.6 494.9333333333333h332.8v-64H345.6zM345.6 322.13333333333344h332.8v-64H345.6zM390.4 866.1333333333333h243.2V725.3333333333334H390.4zM896 72.53333333333353H128V853.3333333333333h160v-64H192v-652.8h640V789.3333333333334h-108.8V853.3333333333333H896z"  horiz-adv-x="1024" />

    
    <glyph glyph-name="contract-status-o" unicode="&#58956;" d="M792.0484853333332-64.31030293333345h-546.1333333333333c-69.5078784 0-124.12121173333333 54.61333333333334-124.1212128 124.12121173333333v645.4303029333333C121.79393920000003 774.7490912 176.40727253333336 829.3624245333333 245.915152 829.3624245333333h412.0824234666666L916.1696970666666 571.1903029333333v-511.37939413333334c0-69.5078784-54.61333333333334-124.12121173333333-124.12121173333333-124.12121173333333z m-546.1333333333333 844.0242421333334c-39.71878826666667 0-74.47272746666665-34.7539392-74.47272746666665-74.47272746666665v-645.4303029333333c0-39.71878826666667 34.7539392-74.47272746666665 74.47272746666665-74.47272746666665h546.1333333333333c39.71878826666667 0 74.47272746666665 34.7539392 74.4727264 74.47272746666665V551.3309088000001l-228.3830304 228.3830304H245.915152zM638.1381813333333 784.6787882666666h49.648485333333326v-233.34787946666665h-49.648485333333326zM662.9624245333333 600.9793941333334H866.5212117333333v-49.648485333333326h-203.5587872zM459.4036362666667 536.4363637333333h49.648485333333326v-218.45333333333335h-49.648485333333326zM459.4036362666667 342.8072725333333h248.24242453333332v-49.648484266666664h-248.24242453333332z"  horiz-adv-x="1024" />

    
    <glyph glyph-name="contract-lg-o" unicode="&#58957;" d="M348.31515133333335 415.0303026666667h381.672727v-93.090909H348.31515133333335zM348.31515133333335 205.5757576666665h381.672727v-93.090909H348.31515133333335zM394.86060633333335 796.7030306666667h283.927272v-167.563637h-283.927272zM162.13333333333333-101.62424233333354h-93.090909V801.3575756666667h228.072727v-93.090909H162.13333333333333zM981.3333333333333-101.62424233333354H96.96969733333333v93.090909h791.272727V708.2666666666667h-116.363636v93.090909H981.3333333333333z"  horiz-adv-x="1024" />

    
    <glyph glyph-name="billing-o" unicode="&#58958;" d="M838.4 646.4v-531.2H422.4c-19.2 32-57.6 51.2-96 51.2s-76.8-19.2-96-51.2h-44.8V646.4h44.8c19.2-32 57.6-51.2 96-51.2s70.4 25.6 96 51.2h416m12.8 64H377.6c0-25.6-25.6-51.2-51.2-51.2-32 0-51.2 25.6-51.2 51.2H172.8c-25.6 0-51.2-19.2-51.2-51.2v-556.8c0-25.6 25.6-51.2 51.2-51.2h102.4c0 25.6 25.6 51.2 51.2 51.2s51.2-25.6 51.2-51.2h473.6c25.6 0 51.2 25.6 51.2 51.2V659.2c0 32-25.6 51.2-51.2 51.2zM486.4 518.4h256v-64h-256zM486.4 307.20000000000005h256v-64h-256zM288 518.4h89.6v-64H288zM288 307.20000000000005h89.6v-64H288z"  horiz-adv-x="1024" />

    
    <glyph glyph-name="payment-o" unicode="&#58959;" d="M294.4 908.5155555555556h68.26666666666667V696.8888888888889h-68.26666666666667zM669.8666666666667 901.6888888888889h68.26666666666667v-211.62666666666667H669.8666666666667zM390.38293333333326 622.6147555555555l148.13866666666667-141.44853333333333-47.104-49.3568-148.13866666666667 141.38026666666667zM625.4933333333333 619.9523555555554l49.425066666666666-47.035733333333326-136.53333333333333-143.36-49.425066666666666 46.96746666666666zM362.6666666666667 471.60888888888877h300.37333333333333v-68.26666666666667H362.6666666666667zM362.6666666666667 314.59555555555573h300.37333333333333v-68.26666666666667H362.6666666666667zM478.71999999999997 430.64888888888885h68.26666666666667v-252.58666666666667h-68.26666666666667zM840.5333333333334 41.52888888888913H192.00000000000003c-54.61333333333334 0-102.4 47.78666666666666-102.4 102.4V717.3688888888889c0 54.61333333333334 47.78666666666666 102.4 102.4 102.4h648.5333333333333c54.61333333333334 0 102.4-47.78666666666666 102.4-102.4v-573.44c0-54.61333333333334-40.96-102.4-102.4-102.4zM192.00000000000003 751.5022222222221c-20.48 0-34.13333333333333-20.48-34.13333333333333-34.13333333333333v-573.44c0-20.48 20.48-34.13333333333333 34.13333333333333-34.13333333333333h648.5333333333333c20.48 0 34.13333333333333 20.48 34.13333333333333 34.13333333333333V717.3688888888889c0 13.653333333333334-13.653333333333334 34.13333333333333-34.13333333333333 34.13333333333333H192.00000000000003z"  horiz-adv-x="1024" />

    
    <glyph glyph-name="customer-o" unicode="&#58960;" d="M337.454545625 544.3636359375h157.09090875v-87.2727271875H337.454545625zM337.454545625 334.90909124999996h157.09090875v-87.2727271875H337.454545625zM337.454545625 138.54545437499985h157.09090875v-87.2727271875H337.454545625zM673.4545456249999-132H158.54545437499996V727.6363640625h514.90909125v-859.6363640625z m-427.63636406250004 87.2727271875h340.363636875V640.3636359374999H245.8181815625v-685.09090875zM952.7272728125-132h-362.1818184375v436.3636359375h362.1818184375v-436.3636359375z m-274.90909124999996 87.2727271875h187.6363640625v261.8181815625h-187.6363640625v-261.8181815625z"  horiz-adv-x="1024" />

    
    <glyph glyph-name="calendar-check-o" unicode="&#58961;" d="M160 428.8h691.2v-64H160zM281.6 729.6h64v-204.8h-64zM473.6 729.6h64v-204.8h-64zM672 729.6h64v-204.8h-64zM505.6 115.20000000000005l-153.6 134.4 44.8 51.2 102.4-96 128 134.4 44.8-38.4zM748.8 6.399999999999977H281.6C192 6.399999999999977 121.6 76.79999999999995 121.6 166.39999999999998V499.2C121.6 588.8 192 659.2 281.6 659.2h467.2c89.6 0 160-70.4 160-160v-332.8c0-89.6-76.8-160-160-160zM281.6 595.2c-51.2 0-96-44.8-96-96v-332.8c0-51.2 44.8-96 96-96h467.2c51.2 0 96 44.8 96 96V499.2c0 51.2-44.8 96-96 96H281.6z"  horiz-adv-x="1024" />

    
    <glyph glyph-name="info-o" unicode="&#58962;" d="M512 467.2h-6.4L153.6 576c-19.2 6.4-25.6 19.2-25.6 32s6.4 25.6 19.2 32l352 115.2h19.2L870.4 640c12.8-6.4 19.2-19.2 19.2-32s-6.4-25.6-19.2-32L518.4 467.2H512zM262.4 608L512 531.2l243.2 76.8L512 691.2 262.4 608zM518.4 230.39999999999998h-12.8l-352 115.2c-12.8 6.4-19.2 12.8-19.2 25.6s6.4 25.6 12.8 32L256 480l38.4-51.2-57.6-38.4 281.6-89.6 275.2 89.6-57.6 38.4 32 51.2 115.2-76.8c12.8-6.4 12.8-19.2 12.8-32s-12.8-19.2-19.2-25.6l-345.6-115.2h-12.8zM512-25.600000000000023h-12.8l-352 115.2c-6.4 6.4-19.2 12.8-19.2 25.6s6.4 25.6 12.8 32l108.8 76.8 38.4-51.2-57.6-38.4L512 38.39999999999998l275.2 89.6-64 38.4 38.4 51.2 115.2-76.8c12.8-6.4 12.8-19.2 12.8-32s-12.8-19.2-19.2-25.6l-345.6-115.2c-6.4 6.4-6.4 6.4-12.8 6.4z"  horiz-adv-x="1024" />

    
    <glyph glyph-name="level-high" unicode="&#59168;" d="M428.8 96h128v-128h-128zM428.8 800h128v-576h-128zM748.8 96h128v-128h-128zM748.8 800h128v-576h-128zM108.8 96h128v-128h-128zM108.8 800h128v-576h-128z"  horiz-adv-x="1024" />

    
    <glyph glyph-name="level-low" unicode="&#59169;" d="M448 89.60000000000002h128v-128h-128zM448 793.6h128v-576h-128z"  horiz-adv-x="1024" />

    
    <glyph glyph-name="level-secondary" unicode="&#59170;" d="M608 76.79999999999995h128v-128h-128zM608 780.8h128v-576h-128zM288 76.79999999999995h128v-128h-128zM288 780.8h128v-576h-128z"  horiz-adv-x="1024" />

    
    <glyph glyph-name="message-add-o" unicode="&#58931;" d="M847.127273 86.10909100000003v-130.327273h-88.436364v130.327273h-134.981818v83.781818h134.981818v130.327273h88.436364v-130.327273h134.981818v-83.781818h-134.981818z m0 256c4.654545 27.927273 0 65.163636 0 88.436364-18.618182 167.563636-172.218182 293.236364-353.745455 293.236363-176.872727 0-316.509091-116.363636-349.090909-260.654545-13.963636-51.2-9.309091-107.054545 4.654546-153.6C209.454545 100.07272699999999 32.581818 11.636363999999958 228.072727 58.18181800000002c65.163636 13.963636 134.981818 18.618182 200.145455 9.309091 27.927273-4.654545 60.509091-4.654545 88.436363-4.654545v-83.781819c-32.581818 0-69.818182 0-107.054545 4.654546-55.854545 9.309091-111.709091 4.654545-162.909091-9.309091l-60.509091-13.963636c-83.781818-18.618182-162.909091 51.2-139.636363 130.327272 0 0 13.963636 41.890909 13.963636 46.545455 13.963636 51.2 18.618182 102.4 4.654545 148.945454-18.618182 60.509091-18.618182 125.672727-4.654545 195.49091 41.890909 181.527273 214.109091 325.818182 432.872727 325.818181 232.727273 0 423.563636-167.563636 442.181818-381.672727 4.654545-27.927273 4.654545-55.854545 0-83.781818h-88.436363z"  horiz-adv-x="1024" />

    
    <glyph glyph-name="link" unicode="&#58964;" d="M283.927273-81.45454500000005c-65.163636 0-121.018182 23.272727-167.563637 69.818181S46.545455 90.76363600000002 46.545455 155.927273s23.272727 121.018182 69.818181 167.563636l41.890909 41.890909 65.163637-65.163636-41.890909-41.890909c-27.927273-27.927273-41.890909-65.163636-41.890909-102.4 0-37.236364 13.963636-74.472727 41.890909-102.4 55.854545-55.854545 148.945455-55.854545 204.8 0l195.490909 190.836363c55.854545 55.854545 55.854545 148.945455 0 204.8l-13.963637 13.963637 37.236364 83.781818c13.963636-9.309091 27.927273-18.618182 41.890909-32.581818 93.090909-93.090909 93.090909-242.036364 0-335.127273l-195.490909-190.836364c-46.545455-46.545455-102.4-69.818182-167.563636-69.818181zM437.527273 207.12727299999995c-23.272727 13.963636-41.890909 23.272727-60.509091 41.890909-93.090909 93.090909-93.090909 242.036364 0 335.127273l195.490909 195.490909c46.545455 46.545455 102.4 69.818182 167.563636 69.818181s121.018182-23.272727 167.563637-69.818181S977.454545 677.236364 977.454545 612.072727s-23.272727-121.018182-69.818181-167.563636l-37.236364-41.890909-69.818182 60.509091 37.236364 41.890909c32.581818 32.581818 46.545455 69.818182 46.545454 107.054545s-13.963636 74.472727-41.890909 102.4c-55.854545 55.854545-148.945455 55.854545-204.8 0l-195.490909-195.490909c-55.854545-55.854545-55.854545-148.945455 0-204.8 9.309091-9.309091 18.618182-13.963636 32.581818-23.272727l-37.236363-83.781818z"  horiz-adv-x="1024" />

    
    <glyph glyph-name="empty-o" unicode="&#58965;" d="M1113.11023187 653.42577778h-509.72444446c-50.97244445 0-87.38133333-36.40888889-87.38133334-80.09955556v-633.51466667c0-43.69066667 36.40888889-80.09955555 87.38133334-80.09955555h313.11644444l276.70755557 262.144V566.04444445c7.28177778 50.97244445-36.40888889 87.38133333-80.09955555 87.38133333zM931.06578741-52.90666667000005v138.35377778c0 21.84533333 14.56355555 36.40888889 36.40888888 36.40888889h152.91733335L931.06578741-52.90666667000005z m43.69066666 240.29866667c-58.25422222 0-101.94488889-43.69066667-101.94488889-101.94488889v-174.76266666H603.38578741c-14.56355555 0-29.12711111 14.56355555-29.12711113 21.84533333V566.04444445c0 14.56355555 14.56355555 21.84533333 29.12711113 21.84533333h509.72444447c14.56355555 0 29.12711111-14.56355555 29.12711106-21.84533333v-378.65244445H974.75645406zM370.36889853 92.72888889000001V762.65244445c0 14.56355555 14.56355555 29.12711111 29.12711109 29.1271111H887.37512074c14.56355555 0 29.12711111-14.56355555 29.12711111-29.1271111v-58.25422223h58.25422222v58.25422223c0 50.97244445-36.40888889 87.38133333-87.38133334 87.38133333H392.21423183C348.52356519 850.03377778 304.83289852 813.62488889 304.83289852 762.65244445V92.72888889000001c0-50.97244445 36.40888889-87.38133333 87.38133331-87.38133334h72.8177778v58.25422223h-72.8177778c-14.56355555 7.28177778-21.84533333 14.56355555-21.8453333 29.12711111zM901.93867629 464.09955555h101.94488891v-58.25422222H901.93867629zM676.20356519 464.09955555h131.07200001v-58.25422222H676.20356519zM676.20356519 303.90044445h327.68000001v-58.25422223H676.20356519zM676.20356519 136.41955555000004h101.94488886v-58.25422222H676.20356519zM1156.80089851 740.80711111c14.56355555 0 29.12711111 14.56355555 29.12711112 29.12711111V886.44266667c0 14.56355555-14.56355555 29.12711111-29.12711112 29.12711111s-29.12711111-14.56355555-29.1271111-29.12711111v-116.50844445c0-14.56355555 14.56355555-29.12711111 29.1271111-29.12711111zM1309.71823185 689.8346666699999l72.81777779 72.81777778c14.56355555 14.56355555 14.56355555 29.12711111 0 43.69066666-14.56355555 14.56355555-29.12711111 14.56355555-43.69066669 0l-72.81777776-72.81777778c-14.56355555-14.56355555-14.56355555-29.12711111 0-43.69066666 7.28177778-7.28177778 14.56355555-7.28177778 21.84533333-7.28177778 7.28177778 0 14.56355555 0 21.84533333 7.28177778zM1440.79023185 587.88977778H1324.2817874c-14.56355555 0-29.12711111-14.56355555-29.12711112-29.12711111s7.28177778-29.12711111 21.84533335-29.12711112h116.50844445c21.84533333 0 36.40888889 14.56355555 36.40888888 29.12711112s-14.56355555 29.12711111-29.12711112 29.12711111z"  horiz-adv-x="1659" />

    
    <glyph glyph-name="business-card" unicode="&#58966;" d="M802.816 740.352H212.992C155.648 740.352 102.4 691.2 102.4 625.664V117.75999999999999c0-61.44 49.152-114.688 114.688-114.688h593.92c61.44 0 114.688 49.152 114.688 114.688V629.76c-4.096 61.44-57.344 110.592-122.88 110.592z m-249.856-565.248l-339.968-4.096c-12.288 4.096-20.48 16.384-16.384 24.576 16.384 73.728 65.536 122.88 131.072 143.36-32.768 20.48-57.344 53.248-57.344 94.208 0 61.44 49.152 110.592 110.592 110.592S491.52 494.592 491.52 433.152c0-40.96-24.576-77.824-57.344-94.208 69.632-20.48 118.784-73.728 131.072-143.36 8.192-8.192 0-20.48-12.288-20.48z m176.128-8.192h-94.208v81.92h94.208v-81.92z m69.632 167.936h-159.744v81.92h159.744v-81.92z m0 163.84h-159.744v81.92h159.744v-81.92z"  horiz-adv-x="1024" />

    
    <glyph glyph-name="weather" unicode="&#58967;" d="M795.927273 281.6h-13.963637c-41.890909 93.090909-134.981818 158.254545-242.036363 158.254545-134.981818 0-246.690909-102.4-260.654546-232.727272-74.472727-4.654545-130.327273-69.818182-130.327272-144.290909 0-79.127273 65.163636-144.290909 144.290909-144.290909h214.109091c9.309091 0 23.272727-4.654545 37.236363-4.654546s23.272727 0 37.236364 4.654546h218.763636c97.745455 0 181.527273 79.127273 181.527273 181.527272-4.654545 102.4-88.436364 181.527273-186.181818 181.527273zM237.381818 267.63636399999996c23.272727 102.4 97.745455 190.836364 200.145455 223.418181-32.581818 41.890909-88.436364 65.163636-144.290909 55.854546-83.781818-13.963636-134.981818-93.090909-121.018182-176.872727 4.654545-46.545455 32.581818-79.127273 65.163636-102.4z"  horiz-adv-x="1024" />

    
    <glyph glyph-name="bar-chart-increment" unicode="&#58969;" d="M102.4 158.72000000000003h819.2v-81.92h-819.2zM147.456 506.88h159.744v-294.912H147.456zM434.176 613.376h159.744v-401.408h-159.744zM724.992 732.16h159.744v-520.192h-159.744z"  horiz-adv-x="1024" />

    
    <glyph glyph-name="clock" unicode="&#58970;" d="M181.527273 640l9.309091 9.309091c27.927273 41.890909 65.163636 79.127273 111.709091 107.054545-13.963636 18.618182-41.890909 32.581818-69.818182 32.581819-46.545455 0-83.781818-37.236364-83.781818-79.127273 0-32.581818 9.309091-55.854545 32.581818-69.818182zM842.472727 640l-9.309091 9.309091c-27.927273 41.890909-69.818182 79.127273-111.709091 107.054545 13.963636 23.272727 41.890909 37.236364 69.818182 37.236364 46.545455 0 83.781818-37.236364 83.781818-83.781818 0-32.581818-9.309091-55.854545-32.581818-69.818182zM521.309091 765.672727c-200.145455 0-363.054545-162.909091-363.054546-363.054545s162.909091-363.054545 363.054546-363.054546S884.363636 202.47272699999996 884.363636 402.618182s-162.909091 363.054545-363.054545 363.054545z m158.254545-432.872727h-204.8V560.8727269999999h74.472728v-153.6h130.327272v-74.472727zM232.727273-16.290909000000056c-13.963636 0-23.272727 4.654545-32.581818 13.963636-18.618182 18.618182-18.618182 46.545455 0 65.163637l97.745454 93.090909c18.618182 18.618182 46.545455 18.618182 65.163636 0 18.618182-18.618182 18.618182-46.545455 0-65.163637l-97.745454-93.090909c-9.309091-9.309091-23.272727-13.963636-32.581818-13.963636zM805.236364-25.600000000000023c-13.963636 0-23.272727 4.654545-32.581819 13.963636l-102.4 102.4c-18.618182 18.618182-18.618182 46.545455 0 65.163637s46.545455 18.618182 65.163637 0l102.4-102.4c18.618182-18.618182 18.618182-46.545455 0-65.163637-9.309091-9.309091-18.618182-13.963636-32.581818-13.963636z"  horiz-adv-x="1024" />

    
    <glyph glyph-name="th-large-app" unicode="&#58971;" d="M986.2826666666666 646.144L777.3866666666667 855.04c-20.48 20.48-49.152 20.48-69.632 0l-208.896-208.896c-20.48-20.48-20.48-49.152 0-69.632l208.896-208.896c20.48-20.48 49.152-20.48 69.632 0l208.896 208.896c20.48 20.48 20.48 53.248 0 69.632zM380.0746666666667 297.98400000000004H85.16266666666667c-28.672 0-53.248-24.576-53.248-53.248v-294.912c0-28.672 24.576-53.248 53.248-53.248h294.912c28.672 0 53.248 24.576 53.248 53.248v294.912c0 28.672-24.576 53.248-53.248 53.248zM380.0746666666667 785.408H85.16266666666667c-28.672 0-53.248-24.576-53.248-53.248v-294.912c0-28.672 24.576-53.248 53.248-53.248h294.912c28.672 0 53.248 24.576 53.248 53.248V732.16c0 28.672-24.576 53.248-53.248 53.248zM863.4026666666666 302.08000000000004h-294.912c-28.672 0-53.248-24.576-53.248-53.248v-299.008c0-28.672 24.576-53.248 53.248-53.248h294.912c28.672 0 53.248 24.576 53.248 53.248v299.008c0 28.672-24.576 53.248-53.248 53.248z"  horiz-adv-x="1024" />

    
    <glyph glyph-name="rss" unicode="&#58972;" d="M833.163636-11.636363999999958h158.254546C991.418182 430.545455 628.363636 788.945455 181.527273 788.945455v-153.6c353.745455-4.654545 651.636364-293.236364 651.636363-646.981819z m-279.272727 0h158.254546c0 288.581818-242.036364 525.963636-535.272728 525.963637v-153.6c102.4 0 195.490909-37.236364 269.963637-111.709091 69.818182-69.818182 107.054545-162.909091 107.054545-260.654546z m-269.963636 0c60.509091 0 107.054545 46.545455 107.054545 107.054546 0 60.509091-46.545455 107.054545-107.054545 107.054545s-107.054545-46.545455-107.054546-107.054545c0-60.509091 46.545455-107.054545 107.054546-107.054546z"  horiz-adv-x="1024" />

    
    <glyph glyph-name="qr-code" unicode="&#58973;" d="M386.327273 258.327273v-186.181818h-186.181818v186.181818h186.181818m93.090909 93.090909h-372.363637v-372.363637h372.363637v372.363637zM102.4 788.945455h93.090909V430.545455h-93.090909zM465.454545 788.945455h93.09091V430.545455h-93.09091zM828.509091 788.945455h93.090909V430.545455h-93.090909zM307.2 788.945455h46.545455V430.545455h-46.545455zM670.254545 788.945455h46.545455V430.545455h-46.545455zM260.654545 197.81818199999998H325.818182v-65.163637H260.654545zM851.781818 132.65454499999998h46.545455v-139.636363h-46.545455zM856.436364 337.45454500000005h46.545454v-139.636363h-46.545454zM619.054545 337.45454500000005h46.545455v-139.636363h-46.545455zM619.054545 25.600000000000023h279.272728v-46.545455h-279.272728z"  horiz-adv-x="1024" />

    
    <glyph glyph-name="file-text" unicode="&#58975;" d="M698.181818 849.454545H46.545455v-930.90909h930.90909V565.5272729999999L698.181818 849.454545z m186.181818-837.818181H139.636364V756.363636h465.454545v-279.272727h279.272727v-465.454545zM512 477.090909H232.727273V663.272727h279.272727v-186.181818z m-279.272727-93.090909h558.545454v-93.090909H232.727273v93.090909z m0-186.181818h558.545454v-93.090909H232.727273v93.090909z"  horiz-adv-x="1024" />

    
    <glyph glyph-name="bars-percent" unicode="&#58976;" d="M46.545455 523.636364v-279.272728h465.454545V523.636364H46.545455z m372.363636-93.090909v-93.09091H139.636364V430.545455h279.272727zM46.545455 849.454545v-279.272727h744.727272V849.454545H46.545455z m651.636363-93.090909v-93.090909H139.636364V756.363636h558.545454z m279.272727-558.545454H46.545455v-279.272727h930.90909v279.272727zM139.636364 11.636363999999958v93.090909h744.727272v-93.090909H139.636364z"  horiz-adv-x="1024" />

    
    <glyph glyph-name="text" unicode="&#58968;" d="M1003.055 751.71v-730.765H272.29V751.71h730.764m0 93.091H272.29c-51.2 0-93.091-41.89-93.091-93.09v-730.765c0-51.2 41.89-93.09 93.09-93.09h730.765c51.2 0 93.09 41.89 93.09 93.09V751.71c0 51.2-41.89 93.091-93.09 93.091zM779.636 644.655h111.71v-93.091h-111.71z m0-209.455h111.71v-93.09h-111.71zM384 216.43600000000004h507.345v-93.09H384z m0 437.528h288.582v-316.51H384z"  horiz-adv-x="1312" />

    
    <glyph glyph-name="image" unicode="&#58974;" d="M335.127273 612.072727C335.127273 560.8727269999999 372.363636 523.636364 423.563636 523.636364S512 560.8727269999999 512 612.072727s-41.890909 88.436364-88.436364 88.436364-88.436364-41.890909-88.436363-88.436364zM907.636364 886.690909H204.8c-60.509091 0-107.054545-46.545455-107.054545-102.4v-707.490909c0-55.854545 46.545455-107.054545 107.054545-107.054545h707.490909c55.854545 0 107.054545 46.545455 107.054546 107.054545V784.290909C1010.036364 840.145455 963.490909 886.690909 907.636364 886.690909z m0-102.4v-372.363636l-107.054546 102.4c-27.927273 27.927273-74.472727 27.927273-93.090909 0l-251.345454-256-125.672728 121.018182c-27.927273 27.927273-74.472727 27.927273-93.090909 0l-32.581818-32.581819V779.636364l702.836364 4.654545c0-4.654545 0 0 0 0z"  horiz-adv-x="1024" />

    
    <glyph glyph-name="user-upcoming" unicode="&#58978;" d="M730.763636 374.69090900000003c-116.363636 0-209.454545-93.090909-209.454545-209.454545s93.090909-209.454545 209.454545-209.454546 209.454545 93.090909 209.454546 209.454546-93.090909 209.454545-209.454546 209.454545z m125.672728-242.036364H702.836364v148.945455h60.509091v-88.436364h93.090909v-60.509091zM451.490909 169.89090899999997c0 144.290909 111.709091 260.654545 251.345455 269.963636 32.581818 37.236364 46.545455 83.781818 46.545454 139.636364C749.381818 709.818182 651.636364 807.563636 521.309091 807.563636c-83.781818 0-158.254545-46.545455-200.145455-111.709091-9.309091-13.963636-13.963636-27.927273-18.618181-46.545454 0-4.654545-4.654545-9.309091-4.654546-18.618182 0-4.654545 0-9.309091-4.654545-13.963636 0-13.963636-4.654545-23.272727-4.654546-41.890909v-37.236364 4.654545c0-9.309091 4.654545-18.618182 4.654546-32.581818 4.654545-18.618182 13.963636-41.890909 23.272727-55.854545 18.618182-27.927273 51.2-60.509091 83.781818-74.472727h-4.654545c-13.963636-4.654545-27.927273-9.309091-46.545455-13.963637-9.309091-4.654545-13.963636-4.654545-18.618182-9.309091-9.309091-4.654545-51.2-27.927273-60.509091-41.890909-4.654545-4.654545-46.545455-41.890909-46.545454-46.545454-13.963636-13.963636-60.509091-74.472727-65.163637-88.436364-23.272727-51.2-46.545455-107.054545-46.545454-162.909091l51.2-4.654545h335.127273c-27.927273 51.2-46.545455 97.745455-46.545455 158.254545z"  horiz-adv-x="1024" />

    
    </font>
</defs>
</svg>
