<?xml version="1.0" encoding="utf-8"?>
<!-- Generator: Adobe Illustrator 25.2.1, SVG Export Plug-In . SVG Version: 6.00 Build 0)  -->
<svg version="1.1" id="图层_1" xmlns="http://www.w3.org/2000/svg" xmlns:xlink="http://www.w3.org/1999/xlink" x="0px" y="0px"
	 viewBox="0 0 30 30" style="enable-background:new 0 0 30 30;" xml:space="preserve">
<style type="text/css">
	.st0{fill:#00D7E1;}
	.st1{fill:#FF5050;}
	.st2{fill:#00EADE;}
	.st3{fill:#246EFF;}
	.st4{fill:#00D6D6;}
</style>
<g>
	<path class="st0" d="M24.8,14.6"/>
	<path class="st1" d="M15.1,12.5c0.2-0.1,5-2.8,5-2.8l3.8,1.5l-0.7,3L17.7,17L15.1,12.5z"/>
	<path class="st2" d="M17.9,10.5l-1.5-0.9l-0.2-6.7L24,7.6c0.7,0.4,2.4,1.7,2.3,3.9l-0.2,8.8l-5.6-3.1L20.4,12L17.9,10.5z"/>
	<path class="st3" d="M19.5,19.1l5.8,3.3l-7.7,4.3c-0.6,0.4-2.2,1.1-4.2,0l-6.6-3.3c-2.3-1.1-2.5-3.3-2.5-4.1l-0.1-8.4
		c0-0.4-0.1-2.3,2.2-3.5l7.4-4.1l0.2,6.7l-4.3,2.2l0.1,6.3l5.7,2.9L19.5,19.1z"/>
	<path class="st3" d="M7.2,16.6c0.1,0,5.8-2.9,5.8-2.9l2.5,4.4l-5.9,3.3L7.2,20L7.2,16.6z"/>
	<path class="st4" d="M20.4,12l4.8,2.4c0,0,1,0.3,1,1.6l0,4.3l-5.7-3.2L20.4,12z"/>
</g>
</svg>
